Point(1) = {0,0,0,0.004176888888888889};
Point(2) = {0,0,0.004572,0.004176888888888889};
Point(3) = {0,0,0.009143999999999999,0.004176888888888889};
Point(4) = {0,0,0.013716,0.004176888888888889};
Point(5) = {0,0,0.018288,0.004176888888888889};
Point(6) = {0,0,0.02286,0.004176888888888889};
Point(7) = {0,0,0.027432,0.004176888888888889};
Point(8) = {0,0,0.032004,0.004176888888888889};
Point(9) = {0,0.003386666666666667,0,0.004176888888888889};
Point(10) = {0,0.003386666666666667,0.004572,0.004176888888888889};
Point(11) = {0,0.003386666666666667,0.009143999999999999,0.004176888888888889};
Point(12) = {0,0.003386666666666667,0.013716,0.004176888888888889};
Point(13) = {0,0.003386666666666667,0.018288,0.004176888888888889};
Point(14) = {0,0.003386666666666667,0.02286,0.004176888888888889};
Point(15) = {0,0.003386666666666667,0.027432,0.004176888888888889};
Point(16) = {0,0.003386666666666667,0.032004,0.004176888888888889};
Point(17) = {0,0.006773333333333333,0,0.004176888888888889};
Point(18) = {0,0.006773333333333333,0.004572,0.004176888888888889};
Point(19) = {0,0.006773333333333333,0.009143999999999999,0.004176888888888889};
Point(20) = {0,0.006773333333333333,0.013716,0.004176888888888889};
Point(21) = {0,0.006773333333333333,0.018288,0.004176888888888889};
Point(22) = {0,0.006773333333333333,0.02286,0.004176888888888889};
Point(23) = {0,0.006773333333333333,0.027432,0.004176888888888889};
Point(24) = {0,0.006773333333333333,0.032004,0.004176888888888889};
Point(25) = {0,0.01016,0,0.004176888888888889};
Point(26) = {0,0.01016,0.004572,0.004176888888888889};
Point(27) = {0,0.01016,0.009143999999999999,0.004176888888888889};
Point(28) = {0,0.01016,0.013716,0.004176888888888889};
Point(29) = {0,0.01016,0.018288,0.004176888888888889};
Point(30) = {0,0.01016,0.02286,0.004176888888888889};
Point(31) = {0,0.01016,0.027432,0.004176888888888889};
Point(32) = {0,0.01016,0.032004,0.004176888888888889};
Point(33) = {0.004572,0,0,0.004176888888888889};
Point(34) = {0.004572,0,0.004572,0.004176888888888889};
Point(35) = {0.004572,0,0.009143999999999999,0.004176888888888889};
Point(36) = {0.004572,0,0.013716,0.004176888888888889};
Point(37) = {0.004572,0,0.018288,0.004176888888888889};
Point(38) = {0.004572,0,0.02286,0.004176888888888889};
Point(39) = {0.004572,0,0.027432,0.004176888888888889};
Point(40) = {0.004572,0,0.032004,0.004176888888888889};
Point(41) = {0.004572,0.003386666666666667,0,0.004176888888888889};
Point(42) = {0.004572,0.003386666666666667,0.004572,0.004176888888888889};
Point(43) = {0.004572,0.003386666666666667,0.009143999999999999,0.004176888888888889};
Point(44) = {0.004572,0.003386666666666667,0.013716,0.004176888888888889};
Point(45) = {0.004572,0.003386666666666667,0.018288,0.004176888888888889};
Point(46) = {0.004572,0.003386666666666667,0.02286,0.004176888888888889};
Point(47) = {0.004572,0.003386666666666667,0.027432,0.004176888888888889};
Point(48) = {0.004572,0.003386666666666667,0.032004,0.004176888888888889};
Point(49) = {0.004572,0.006773333333333333,0,0.004176888888888889};
Point(50) = {0.004572,0.006773333333333333,0.004572,0.004176888888888889};
Point(51) = {0.004572,0.006773333333333333,0.009143999999999999,0.004176888888888889};
Point(52) = {0.004572,0.006773333333333333,0.013716,0.004176888888888889};
Point(53) = {0.004572,0.006773333333333333,0.018288,0.004176888888888889};
Point(54) = {0.004572,0.006773333333333333,0.02286,0.004176888888888889};
Point(55) = {0.004572,0.006773333333333333,0.027432,0.004176888888888889};
Point(56) = {0.004572,0.006773333333333333,0.032004,0.004176888888888889};
Point(57) = {0.004572,0.01016,0,0.004176888888888889};
Point(58) = {0.004572,0.01016,0.004572,0.004176888888888889};
Point(59) = {0.004572,0.01016,0.009143999999999999,0.004176888888888889};
Point(60) = {0.004572,0.01016,0.013716,0.004176888888888889};
Point(61) = {0.004572,0.01016,0.018288,0.004176888888888889};
Point(62) = {0.004572,0.01016,0.02286,0.004176888888888889};
Point(63) = {0.004572,0.01016,0.027432,0.004176888888888889};
Point(64) = {0.004572,0.01016,0.032004,0.004176888888888889};
Point(65) = {0.009143999999999999,0,0,0.004176888888888889};
Point(66) = {0.009143999999999999,0,0.004572,0.004176888888888889};
Point(67) = {0.009143999999999999,0,0.009143999999999999,0.004176888888888889};
Point(68) = {0.009143999999999999,0,0.013716,0.004176888888888889};
Point(69) = {0.009143999999999999,0,0.018288,0.004176888888888889};
Point(70) = {0.009143999999999999,0,0.02286,0.004176888888888889};
Point(71) = {0.009143999999999999,0,0.027432,0.004176888888888889};
Point(72) = {0.009143999999999999,0,0.032004,0.004176888888888889};
Point(73) = {0.009143999999999999,0.003386666666666667,0,0.004176888888888889};
Point(74) = {0.009143999999999999,0.003386666666666667,0.004572,0.004176888888888889};
Point(75) = {0.009143999999999999,0.003386666666666667,0.009143999999999999,0.004176888888888889};
Point(76) = {0.009143999999999999,0.003386666666666667,0.013716,0.004176888888888889};
Point(77) = {0.009143999999999999,0.003386666666666667,0.018288,0.004176888888888889};
Point(78) = {0.009143999999999999,0.003386666666666667,0.02286,0.004176888888888889};
Point(79) = {0.009143999999999999,0.003386666666666667,0.027432,0.004176888888888889};
Point(80) = {0.009143999999999999,0.003386666666666667,0.032004,0.004176888888888889};
Point(81) = {0.009143999999999999,0.006773333333333333,0,0.004176888888888889};
Point(82) = {0.009143999999999999,0.006773333333333333,0.004572,0.004176888888888889};
Point(83) = {0.009143999999999999,0.006773333333333333,0.009143999999999999,0.004176888888888889};
Point(84) = {0.009143999999999999,0.006773333333333333,0.013716,0.004176888888888889};
Point(85) = {0.009143999999999999,0.006773333333333333,0.018288,0.004176888888888889};
Point(86) = {0.009143999999999999,0.006773333333333333,0.02286,0.004176888888888889};
Point(87) = {0.009143999999999999,0.006773333333333333,0.027432,0.004176888888888889};
Point(88) = {0.009143999999999999,0.006773333333333333,0.032004,0.004176888888888889};
Point(89) = {0.009143999999999999,0.01016,0,0.004176888888888889};
Point(90) = {0.009143999999999999,0.01016,0.004572,0.004176888888888889};
Point(91) = {0.009143999999999999,0.01016,0.009143999999999999,0.004176888888888889};
Point(92) = {0.009143999999999999,0.01016,0.013716,0.004176888888888889};
Point(93) = {0.009143999999999999,0.01016,0.018288,0.004176888888888889};
Point(94) = {0.009143999999999999,0.01016,0.02286,0.004176888888888889};
Point(95) = {0.009143999999999999,0.01016,0.027432,0.004176888888888889};
Point(96) = {0.009143999999999999,0.01016,0.032004,0.004176888888888889};
Point(97) = {0.013716,0,0,0.004176888888888889};
Point(98) = {0.013716,0,0.004572,0.004176888888888889};
Point(99) = {0.013716,0,0.009143999999999999,0.004176888888888889};
Point(100) = {0.013716,0,0.013716,0.004176888888888889};
Point(101) = {0.013716,0,0.018288,0.004176888888888889};
Point(102) = {0.013716,0,0.02286,0.004176888888888889};
Point(103) = {0.013716,0,0.027432,0.004176888888888889};
Point(104) = {0.013716,0,0.032004,0.004176888888888889};
Point(105) = {0.013716,0.003386666666666667,0,0.004176888888888889};
Point(106) = {0.013716,0.003386666666666667,0.004572,0.004176888888888889};
Point(107) = {0.013716,0.003386666666666667,0.009143999999999999,0.004176888888888889};
Point(108) = {0.013716,0.003386666666666667,0.013716,0.004176888888888889};
Point(109) = {0.013716,0.003386666666666667,0.018288,0.004176888888888889};
Point(110) = {0.013716,0.003386666666666667,0.02286,0.004176888888888889};
Point(111) = {0.013716,0.003386666666666667,0.027432,0.004176888888888889};
Point(112) = {0.013716,0.003386666666666667,0.032004,0.004176888888888889};
Point(113) = {0.013716,0.006773333333333333,0,0.004176888888888889};
Point(114) = {0.013716,0.006773333333333333,0.004572,0.004176888888888889};
Point(115) = {0.013716,0.006773333333333333,0.009143999999999999,0.004176888888888889};
Point(116) = {0.013716,0.006773333333333333,0.013716,0.004176888888888889};
Point(117) = {0.013716,0.006773333333333333,0.018288,0.004176888888888889};
Point(118) = {0.013716,0.006773333333333333,0.02286,0.004176888888888889};
Point(119) = {0.013716,0.006773333333333333,0.027432,0.004176888888888889};
Point(120) = {0.013716,0.006773333333333333,0.032004,0.004176888888888889};
Point(121) = {0.013716,0.01016,0,0.004176888888888889};
Point(122) = {0.013716,0.01016,0.004572,0.004176888888888889};
Point(123) = {0.013716,0.01016,0.009143999999999999,0.004176888888888889};
Point(124) = {0.013716,0.01016,0.013716,0.004176888888888889};
Point(125) = {0.013716,0.01016,0.018288,0.004176888888888889};
Point(126) = {0.013716,0.01016,0.02286,0.004176888888888889};
Point(127) = {0.013716,0.01016,0.027432,0.004176888888888889};
Point(128) = {0.013716,0.01016,0.032004,0.004176888888888889};
Point(129) = {0.018288,0,0,0.004176888888888889};
Point(130) = {0.018288,0,0.004572,0.004176888888888889};
Point(131) = {0.018288,0,0.009143999999999999,0.004176888888888889};
Point(132) = {0.018288,0,0.013716,0.004176888888888889};
Point(133) = {0.018288,0,0.018288,0.004176888888888889};
Point(134) = {0.018288,0,0.02286,0.004176888888888889};
Point(135) = {0.018288,0,0.027432,0.004176888888888889};
Point(136) = {0.018288,0,0.032004,0.004176888888888889};
Point(137) = {0.018288,0.003386666666666667,0,0.004176888888888889};
Point(138) = {0.018288,0.003386666666666667,0.004572,0.004176888888888889};
Point(139) = {0.018288,0.003386666666666667,0.009143999999999999,0.004176888888888889};
Point(140) = {0.018288,0.003386666666666667,0.013716,0.004176888888888889};
Point(141) = {0.018288,0.003386666666666667,0.018288,0.004176888888888889};
Point(142) = {0.018288,0.003386666666666667,0.02286,0.004176888888888889};
Point(143) = {0.018288,0.003386666666666667,0.027432,0.004176888888888889};
Point(144) = {0.018288,0.003386666666666667,0.032004,0.004176888888888889};
Point(145) = {0.018288,0.006773333333333333,0,0.004176888888888889};
Point(146) = {0.018288,0.006773333333333333,0.004572,0.004176888888888889};
Point(147) = {0.018288,0.006773333333333333,0.009143999999999999,0.004176888888888889};
Point(148) = {0.018288,0.006773333333333333,0.013716,0.004176888888888889};
Point(149) = {0.018288,0.006773333333333333,0.018288,0.004176888888888889};
Point(150) = {0.018288,0.006773333333333333,0.02286,0.004176888888888889};
Point(151) = {0.018288,0.006773333333333333,0.027432,0.004176888888888889};
Point(152) = {0.018288,0.006773333333333333,0.032004,0.004176888888888889};
Point(153) = {0.018288,0.01016,0,0.004176888888888889};
Point(154) = {0.018288,0.01016,0.004572,0.004176888888888889};
Point(155) = {0.018288,0.01016,0.009143999999999999,0.004176888888888889};
Point(156) = {0.018288,0.01016,0.013716,0.004176888888888889};
Point(157) = {0.018288,0.01016,0.018288,0.004176888888888889};
Point(158) = {0.018288,0.01016,0.02286,0.004176888888888889};
Point(159) = {0.018288,0.01016,0.027432,0.004176888888888889};
Point(160) = {0.018288,0.01016,0.032004,0.004176888888888889};
Point(161) = {0.02286,0,0,0.004176888888888889};
Point(162) = {0.02286,0,0.004572,0.004176888888888889};
Point(163) = {0.02286,0,0.009143999999999999,0.004176888888888889};
Point(164) = {0.02286,0,0.013716,0.004176888888888889};
Point(165) = {0.02286,0,0.018288,0.004176888888888889};
Point(166) = {0.02286,0,0.02286,0.004176888888888889};
Point(167) = {0.02286,0,0.027432,0.004176888888888889};
Point(168) = {0.02286,0,0.032004,0.004176888888888889};
Point(169) = {0.02286,0.003386666666666667,0,0.004176888888888889};
Point(170) = {0.02286,0.003386666666666667,0.004572,0.004176888888888889};
Point(171) = {0.02286,0.003386666666666667,0.009143999999999999,0.004176888888888889};
Point(172) = {0.02286,0.003386666666666667,0.013716,0.004176888888888889};
Point(173) = {0.02286,0.003386666666666667,0.018288,0.004176888888888889};
Point(174) = {0.02286,0.003386666666666667,0.02286,0.004176888888888889};
Point(175) = {0.02286,0.003386666666666667,0.027432,0.004176888888888889};
Point(176) = {0.02286,0.003386666666666667,0.032004,0.004176888888888889};
Point(177) = {0.02286,0.006773333333333333,0,0.004176888888888889};
Point(178) = {0.02286,0.006773333333333333,0.004572,0.004176888888888889};
Point(179) = {0.02286,0.006773333333333333,0.009143999999999999,0.004176888888888889};
Point(180) = {0.02286,0.006773333333333333,0.013716,0.004176888888888889};
Point(181) = {0.02286,0.006773333333333333,0.018288,0.004176888888888889};
Point(182) = {0.02286,0.006773333333333333,0.02286,0.004176888888888889};
Point(183) = {0.02286,0.006773333333333333,0.027432,0.004176888888888889};
Point(184) = {0.02286,0.006773333333333333,0.032004,0.004176888888888889};
Point(185) = {0.02286,0.01016,0,0.004176888888888889};
Point(186) = {0.02286,0.01016,0.004572,0.004176888888888889};
Point(187) = {0.02286,0.01016,0.009143999999999999,0.004176888888888889};
Point(188) = {0.02286,0.01016,0.013716,0.004176888888888889};
Point(189) = {0.02286,0.01016,0.018288,0.004176888888888889};
Point(190) = {0.02286,0.01016,0.02286,0.004176888888888889};
Point(191) = {0.02286,0.01016,0.027432,0.004176888888888889};
Point(192) = {0.02286,0.01016,0.032004,0.004176888888888889};
Line(1) = {67,99};
Line(2) = {70,102};
Line(3) = {75,107};
Line(4) = {78,110};
Line(5) = {83,115};
Line(6) = {86,118};
Line(7) = {91,123};
Line(8) = {94,126};
Line(9) = {99,131};
Line(10) = {102,134};
Line(11) = {107,139};
Line(12) = {110,142};
Line(13) = {115,147};
Line(14) = {118,150};
Line(15) = {123,155};
Line(16) = {126,158};
Line(17) = {131,163};
Line(18) = {134,166};
Line(19) = {139,171};
Line(20) = {142,174};
Line(21) = {147,179};
Line(22) = {150,182};
Line(23) = {155,187};
Line(24) = {158,190};
Line(25) = {67,75};
Line(26) = {68,76};
Line(27) = {69,77};
Line(28) = {70,78};
Line(29) = {75,83};
Line(30) = {76,84};
Line(31) = {77,85};
Line(32) = {78,86};
Line(33) = {83,91};
Line(34) = {84,92};
Line(35) = {85,93};
Line(36) = {86,94};
Line(37) = {99,107};
Line(38) = {102,110};
Line(39) = {107,115};
Line(40) = {110,118};
Line(41) = {115,123};
Line(42) = {118,126};
Line(43) = {131,139};
Line(44) = {134,142};
Line(45) = {139,147};
Line(46) = {142,150};
Line(47) = {147,155};
Line(48) = {150,158};
Line(49) = {163,171};
Line(50) = {166,174};
Line(51) = {171,179};
Line(52) = {174,182};
Line(53) = {179,187};
Line(54) = {182,190};
Line(55) = {67,68};
Line(56) = {68,69};
Line(57) = {69,70};
Line(58) = {75,76};
Line(59) = {76,77};
Line(60) = {77,78};
Line(61) = {83,84};
Line(62) = {84,85};
Line(63) = {85,86};
Line(64) = {91,92};
Line(65) = {92,93};
Line(66) = {93,94};
Line Loop(1) = {55,26,-58,-25};
Plane Surface(1) = {1};
Line Loop(2) = {56,27,-59,-26};
Plane Surface(2) = {2};
Line Loop(3) = {57,28,-60,-27};
Plane Surface(3) = {3};
Line Loop(4) = {58,30,-61,-29};
Plane Surface(4) = {4};
Line Loop(5) = {59,31,-62,-30};
Plane Surface(5) = {5};
Line Loop(6) = {60,32,-63,-31};
Plane Surface(6) = {6};
Line Loop(7) = {61,34,-64,-33};
Plane Surface(7) = {7};
Line Loop(8) = {62,35,-65,-34};
Plane Surface(8) = {8};
Line Loop(9) = {63,36,-66,-35};
Plane Surface(9) = {9};
Line Loop(10) = {25,3,-37,-1};
Plane Surface(10) = {10};
Line Loop(11) = {28,4,-38,-2};
Plane Surface(11) = {11};
Line Loop(12) = {29,5,-39,-3};
Plane Surface(12) = {12};
Line Loop(13) = {32,6,-40,-4};
Plane Surface(13) = {13};
Line Loop(14) = {33,7,-41,-5};
Plane Surface(14) = {14};
Line Loop(15) = {36,8,-42,-6};
Plane Surface(15) = {15};
Line Loop(16) = {37,11,-43,-9};
Plane Surface(16) = {16};
Line Loop(17) = {38,12,-44,-10};
Plane Surface(17) = {17};
Line Loop(18) = {39,13,-45,-11};
Plane Surface(18) = {18};
Line Loop(19) = {40,14,-46,-12};
Plane Surface(19) = {19};
Line Loop(20) = {41,15,-47,-13};
Plane Surface(20) = {20};
Line Loop(21) = {42,16,-48,-14};
Plane Surface(21) = {21};
Line Loop(22) = {43,19,-49,-17};
Plane Surface(22) = {22};
Line Loop(23) = {44,20,-50,-18};
Plane Surface(23) = {23};
Line Loop(24) = {45,21,-51,-19};
Plane Surface(24) = {24};
Line Loop(25) = {46,22,-52,-20};
Plane Surface(25) = {25};
Line Loop(26) = {47,23,-53,-21};
Plane Surface(26) = {26};
Line Loop(27) = {48,24,-54,-22};
Plane Surface(27) = {27};
Physical Surface(1) = {1,2,3,4,5,6,7,8,9,10,11,12,13,14,15,16,17,18,19,20,21,22,23,24,25,26,27};
Line(67) = {166,163};
Line(68) = {187,190};
Line(69) = {125,124};
Line(70) = {156,124};
Line(71) = {125,157};
Line(72) = {156,157};
Line(73) = {133,157};
Line(74) = {132,156};
Line(75) = {100,124};
Line(76) = {101,125};
Line(77) = {133,101};
Line(78) = {101,100};
Line(79) = {100,132};
Line(80) = {132,133};
Line Loop(81) = {80,73,-72,-74};
Plane Surface(82) = {81};
Line Loop(83) = {71,-73,77,76};
Plane Surface(84) = {83};
Line Loop(85) = {76,69,-75,-78};
Plane Surface(86) = {85};
Line Loop(87) = {75,-70,-74,-79};
Plane Surface(88) = {87};
Line Loop(89) = {57,2,10,18,67,-17,-9,-1,55,56};
Line Loop(90) = {80,77,78,79};
Plane Surface(91) = {89,90};
Line Loop(92) = {24,-68,-23,-15,-7,64,65,66,8,16};
Line Loop(93) = {72,-71,69,-70};
Plane Surface(94) = {92,93};
Line Loop(95) = {68,-54,-52,-50,67,49,51,53};
Plane Surface(96) = {95};
Surface Loop(97) = {23,17,11,3,91,96,94,27,21,15,9,6,13,19,25,5,2,1,4,7,8,14,20,26,24,18,12,10,16,22,88,86,84,82};
Volume(98) = {97};
Physical Volume(99) = {98};
Physical Surface(1001) = {94,91,96,86,88,82,84};
