Point(1) = {0,0,0,0.004};
Point(2) = {0,0,0.007619999999999999,0.004};
Point(3) = {0,0,0.01524,0.004};
Point(4) = {0,0,0.02286,0.004};
Point(5) = {0,0,0.03048,0.004};
Point(6) = {0,0,0.03809999999999999,0.004};
Point(7) = {0,0,0.04572,0.004};
Point(8) = {0,0,0.05333999999999999,0.004};
Point(9) = {0,0.00508,0,0.004};
Point(10) = {0,0.00508,0.007619999999999999,0.004};
Point(11) = {0,0.00508,0.01524,0.004};
Point(12) = {0,0.00508,0.02286,0.004};
Point(13) = {0,0.00508,0.03048,0.004};
Point(14) = {0,0.00508,0.03809999999999999,0.004};
Point(15) = {0,0.00508,0.04572,0.004};
Point(16) = {0,0.00508,0.05333999999999999,0.004};
Point(17) = {0,0.01016,0,0.004};
Point(18) = {0,0.01016,0.007619999999999999,0.004};
Point(19) = {0,0.01016,0.01524,0.004};
Point(20) = {0,0.01016,0.02286,0.004};
Point(21) = {0,0.01016,0.03048,0.004};
Point(22) = {0,0.01016,0.03809999999999999,0.004};
Point(23) = {0,0.01016,0.04572,0.004};
Point(24) = {0,0.01016,0.05333999999999999,0.004};
Point(25) = {0.007619999999999999,0,0,0.004};
Point(26) = {0.007619999999999999,0,0.007619999999999999,0.004};
Point(27) = {0.007619999999999999,0,0.01524,0.004};
Point(28) = {0.007619999999999999,0,0.02286,0.004};
Point(29) = {0.007619999999999999,0,0.03048,0.004};
Point(30) = {0.007619999999999999,0,0.03809999999999999,0.004};
Point(31) = {0.007619999999999999,0,0.04572,0.004};
Point(32) = {0.007619999999999999,0,0.05333999999999999,0.004};
Point(33) = {0.007619999999999999,0.00508,0,0.004};
Point(34) = {0.007619999999999999,0.00508,0.007619999999999999,0.004};
Point(35) = {0.007619999999999999,0.00508,0.01524,0.004};
Point(36) = {0.007619999999999999,0.00508,0.02286,0.004};
Point(37) = {0.007619999999999999,0.00508,0.03048,0.004};
Point(38) = {0.007619999999999999,0.00508,0.03809999999999999,0.004};
Point(39) = {0.007619999999999999,0.00508,0.04572,0.004};
Point(40) = {0.007619999999999999,0.00508,0.05333999999999999,0.004};
Point(41) = {0.007619999999999999,0.01016,0,0.004};
Point(42) = {0.007619999999999999,0.01016,0.007619999999999999,0.004};
Point(43) = {0.007619999999999999,0.01016,0.01524,0.004};
Point(44) = {0.007619999999999999,0.01016,0.02286,0.004};
Point(45) = {0.007619999999999999,0.01016,0.03048,0.004};
Point(46) = {0.007619999999999999,0.01016,0.03809999999999999,0.004};
Point(47) = {0.007619999999999999,0.01016,0.04572,0.004};
Point(48) = {0.007619999999999999,0.01016,0.05333999999999999,0.004};
Point(49) = {0.01524,0,0,0.004};
Point(50) = {0.01524,0,0.007619999999999999,0.004};
Point(51) = {0.01524,0,0.01524,0.004};
Point(52) = {0.01524,0,0.02286,0.004};
Point(53) = {0.01524,0,0.03048,0.004};
Point(54) = {0.01524,0,0.03809999999999999,0.004};
Point(55) = {0.01524,0,0.04572,0.004};
Point(56) = {0.01524,0,0.05333999999999999,0.004};
Point(57) = {0.01524,0.00508,0,0.004};
Point(58) = {0.01524,0.00508,0.007619999999999999,0.004};
Point(59) = {0.01524,0.00508,0.01524,0.004};
Point(60) = {0.01524,0.00508,0.02286,0.004};
Point(61) = {0.01524,0.00508,0.03048,0.004};
Point(62) = {0.01524,0.00508,0.03809999999999999,0.004};
Point(63) = {0.01524,0.00508,0.04572,0.004};
Point(64) = {0.01524,0.00508,0.05333999999999999,0.004};
Point(65) = {0.01524,0.01016,0,0.004};
Point(66) = {0.01524,0.01016,0.007619999999999999,0.004};
Point(67) = {0.01524,0.01016,0.01524,0.004};
Point(68) = {0.01524,0.01016,0.02286,0.004};
Point(69) = {0.01524,0.01016,0.03048,0.004};
Point(70) = {0.01524,0.01016,0.03809999999999999,0.004};
Point(71) = {0.01524,0.01016,0.04572,0.004};
Point(72) = {0.01524,0.01016,0.05333999999999999,0.004};
Point(73) = {0.02286,0,0,0.004};
Point(74) = {0.02286,0,0.007619999999999999,0.004};
Point(75) = {0.02286,0,0.01524,0.004};
Point(76) = {0.02286,0,0.02286,0.004};
Point(77) = {0.02286,0,0.03048,0.004};
Point(78) = {0.02286,0,0.03809999999999999,0.004};
Point(79) = {0.02286,0,0.04572,0.004};
Point(80) = {0.02286,0,0.05333999999999999,0.004};
Point(81) = {0.02286,0.00508,0,0.004};
Point(82) = {0.02286,0.00508,0.007619999999999999,0.004};
Point(83) = {0.02286,0.00508,0.01524,0.004};
Point(84) = {0.02286,0.00508,0.02286,0.004};
Point(85) = {0.02286,0.00508,0.03048,0.004};
Point(86) = {0.02286,0.00508,0.03809999999999999,0.004};
Point(87) = {0.02286,0.00508,0.04572,0.004};
Point(88) = {0.02286,0.00508,0.05333999999999999,0.004};
Point(89) = {0.02286,0.01016,0,0.004};
Point(90) = {0.02286,0.01016,0.007619999999999999,0.004};
Point(91) = {0.02286,0.01016,0.01524,0.004};
Point(92) = {0.02286,0.01016,0.02286,0.004};
Point(93) = {0.02286,0.01016,0.03048,0.004};
Point(94) = {0.02286,0.01016,0.03809999999999999,0.004};
Point(95) = {0.02286,0.01016,0.04572,0.004};
Point(96) = {0.02286,0.01016,0.05333999999999999,0.004};
Line(1) = {3,27};
Line(2) = {6,30};
Line(3) = {11,35};
Line(4) = {14,38};
Line(5) = {19,43};
Line(6) = {22,46};
Line(7) = {27,51};
Line(8) = {30,54};
Line(9) = {35,59};
Line(10) = {38,62};
Line(11) = {43,67};
Line(12) = {46,70};
Line(13) = {3,11};
Line(14) = {6,14};
Line(15) = {11,19};
Line(16) = {14,22};
Line(17) = {27,35};
Line(18) = {30,38};
Line(19) = {35,43};
Line(20) = {38,46};
Line(21) = {51,59};
Line(22) = {52,60};
Line(23) = {53,61};
Line(24) = {54,62};
Line(25) = {59,67};
Line(26) = {60,68};
Line(27) = {61,69};
Line(28) = {62,70};
Line(29) = {51,52};
Line(30) = {52,53};
Line(31) = {53,54};
Line(32) = {59,60};
Line(33) = {60,61};
Line(34) = {61,62};
Line(35) = {67,68};
Line(36) = {68,69};
Line(37) = {69,70};
Line Loop(1) = {29,22,-32,-21};
Plane Surface(1) = {1};
Line Loop(2) = {30,23,-33,-22};
Plane Surface(2) = {2};
Line Loop(3) = {31,24,-34,-23};
Plane Surface(3) = {3};
Line Loop(4) = {32,26,-35,-25};
Plane Surface(4) = {4};
Line Loop(5) = {33,27,-36,-26};
Plane Surface(5) = {5};
Line Loop(6) = {34,28,-37,-27};
Plane Surface(6) = {6};
Line Loop(7) = {13,3,-17,-1};
Plane Surface(7) = {7};
Line Loop(8) = {14,4,-18,-2};
Plane Surface(8) = {8};
Line Loop(9) = {15,5,-19,-3};
Plane Surface(9) = {9};
Line Loop(10) = {16,6,-20,-4};
Plane Surface(10) = {10};
Line Loop(11) = {17,9,-21,-7};
Plane Surface(11) = {11};
Line Loop(12) = {18,10,-24,-8};
Plane Surface(12) = {12};
Line Loop(13) = {19,11,-25,-9};
Plane Surface(13) = {13};
Line Loop(14) = {20,12,-28,-10};
Plane Surface(14) = {14};
Point(97) = {0.00843,0.01016,0.03466999999999999,0.004};
Point(98) = {0.0004299999999999998,0.01016,0.02667,0.004};
Point(99) = {0.008429999999999998,0.01016,0.01867,0.004};
Point(100) = {0.00843,0,0.03466999999999999,0.004};
Point(101) = {0.0004299999999999998,0,0.02667,0.004};
Point(102) = {0.008429999999999998,0,0.01867,0.004};
Point(103) = {0.00843,0.01016,0.02667,0.004};
Point(104) = {0.00843,0,0.02667,0.004};
Line(38) = {100,97};
Line(39) = {101,98};
Line(40) = {102,99};
Line(41) = {97,99};
Line(42) = {100,102};
Circle(newc) = {97,103,98};
Circle(newc) = {98,103,99};
Circle(newc) = {100,104,101};
Circle(newc) = {101,104,102};
Line(47) = {19,20};
Line(48) = {20,4};
Line(49) = {4,3};
Line(50) = {20,21};
Line(51) = {21,5};
Line(52) = {5,4};
Line(53) = {21,22};
Line(54) = {22,6};
Line(55) = {6,5};
Line Loop(56) = {44,-40,-46,39};
Ruled Surface(57) = {56};
Line Loop(58) = {45,39,-43,-38};
Ruled Surface(59) = {58};
Line Loop(60) = {35,36,37,-12,-6,-53,-50,-47,5,11};
Line Loop(61) = {44,-41,43};
Plane Surface(62) = {60,61};
Line Loop(63) = {1,7,29,30,31,-8,-2,55,52,49};
Line Loop(64) = {46,-42,45};
Plane Surface(65) = {63,64};
Line Loop(66) = {53,-16,-14,55,-51};
Plane Surface(67) = {66};
Line Loop(68) = {51,52,-48,50};
Plane Surface(69) = {68};
Line Loop(70) = {47,48,49,13,15};
Plane Surface(71) = {70};
Line Loop(72) = {40,-41,-38,42};
Plane Surface(73) = {72};
Physical Surface(1) = {1,2,3,4,5,6,7,8,9,10,11,12,13,14};
Physical Surface(1001) = {73,57,59,67,69,71,65,62};
Surface Loop(1002) = {5,2,65,7,71,62,4,1,11,13,9,6,3,12,8,67,10,14,69,59,57,73};
Volume(1003) = {1002};
Physical Volume(1) = {1003};
Characteristic Length {102,99,97,100} = 0.002;
Characteristic Length {98,101} = 0.001;
Characteristic Length {20,4,5,21} = 0.001;
