Point(1) = {0,0,0,0.00428625};
Point(2) = {0,0,0.005715,0.00428625};
Point(3) = {0,0,0.01143,0.00428625};
Point(4) = {0,0,0.017145,0.00428625};
Point(5) = {0,0,0.02286,0.00428625};
Point(6) = {0,0,0.028575,0.00428625};
Point(7) = {0,0,0.03429,0.00428625};
Point(8) = {0,0,0.040005,0.00428625};
Point(9) = {0,0,0.04572,0.00428625};
Point(10) = {0,0.00508,0,0.00428625};
Point(11) = {0,0.00508,0.005715,0.00428625};
Point(12) = {0,0.00508,0.01143,0.00428625};
Point(13) = {0,0.00508,0.017145,0.00428625};
Point(14) = {0,0.00508,0.02286,0.00428625};
Point(15) = {0,0.00508,0.028575,0.00428625};
Point(16) = {0,0.00508,0.03429,0.00428625};
Point(17) = {0,0.00508,0.040005,0.00428625};
Point(18) = {0,0.00508,0.04572,0.00428625};
Point(19) = {0,0.01016,0,0.00428625};
Point(20) = {0,0.01016,0.005715,0.00428625};
Point(21) = {0,0.01016,0.01143,0.00428625};
Point(22) = {0,0.01016,0.017145,0.00428625};
Point(23) = {0,0.01016,0.02286,0.00428625};
Point(24) = {0,0.01016,0.028575,0.00428625};
Point(25) = {0,0.01016,0.03429,0.00428625};
Point(26) = {0,0.01016,0.040005,0.00428625};
Point(27) = {0,0.01016,0.04572,0.00428625};
Point(28) = {0.005715,0,0,0.00428625};
Point(29) = {0.005715,0,0.005715,0.00428625};
Point(30) = {0.005715,0,0.01143,0.00428625};
Point(31) = {0.005715,0,0.017145,0.00428625};
Point(32) = {0.005715,0,0.02286,0.00428625};
Point(33) = {0.005715,0,0.028575,0.00428625};
Point(34) = {0.005715,0,0.03429,0.00428625};
Point(35) = {0.005715,0,0.040005,0.00428625};
Point(36) = {0.005715,0,0.04572,0.00428625};
Point(37) = {0.005715,0.00508,0,0.00428625};
Point(38) = {0.005715,0.00508,0.005715,0.00428625};
Point(39) = {0.005715,0.00508,0.01143,0.00428625};
Point(40) = {0.005715,0.00508,0.017145,0.00428625};
Point(41) = {0.005715,0.00508,0.02286,0.00428625};
Point(42) = {0.005715,0.00508,0.028575,0.00428625};
Point(43) = {0.005715,0.00508,0.03429,0.00428625};
Point(44) = {0.005715,0.00508,0.040005,0.00428625};
Point(45) = {0.005715,0.00508,0.04572,0.00428625};
Point(46) = {0.005715,0.01016,0,0.00428625};
Point(47) = {0.005715,0.01016,0.005715,0.00428625};
Point(48) = {0.005715,0.01016,0.01143,0.00428625};
Point(49) = {0.005715,0.01016,0.017145,0.00428625};
Point(50) = {0.005715,0.01016,0.02286,0.00428625};
Point(51) = {0.005715,0.01016,0.028575,0.00428625};
Point(52) = {0.005715,0.01016,0.03429,0.00428625};
Point(53) = {0.005715,0.01016,0.040005,0.00428625};
Point(54) = {0.005715,0.01016,0.04572,0.00428625};
Point(55) = {0.01143,0,0,0.00428625};
Point(56) = {0.01143,0,0.005715,0.00428625};
Point(57) = {0.01143,0,0.01143,0.00428625};
Point(58) = {0.01143,0,0.017145,0.00428625};
Point(59) = {0.01143,0,0.02286,0.00428625};
Point(60) = {0.01143,0,0.028575,0.00428625};
Point(61) = {0.01143,0,0.03429,0.00428625};
Point(62) = {0.01143,0,0.040005,0.00428625};
Point(63) = {0.01143,0,0.04572,0.00428625};
Point(64) = {0.01143,0.00508,0,0.00428625};
Point(65) = {0.01143,0.00508,0.005715,0.00428625};
Point(66) = {0.01143,0.00508,0.01143,0.00428625};
Point(67) = {0.01143,0.00508,0.017145,0.00428625};
Point(68) = {0.01143,0.00508,0.02286,0.00428625};
Point(69) = {0.01143,0.00508,0.028575,0.00428625};
Point(70) = {0.01143,0.00508,0.03429,0.00428625};
Point(71) = {0.01143,0.00508,0.040005,0.00428625};
Point(72) = {0.01143,0.00508,0.04572,0.00428625};
Point(73) = {0.01143,0.01016,0,0.00428625};
Point(74) = {0.01143,0.01016,0.005715,0.00428625};
Point(75) = {0.01143,0.01016,0.01143,0.00428625};
Point(76) = {0.01143,0.01016,0.017145,0.00428625};
Point(77) = {0.01143,0.01016,0.02286,0.00428625};
Point(78) = {0.01143,0.01016,0.028575,0.00428625};
Point(79) = {0.01143,0.01016,0.03429,0.00428625};
Point(80) = {0.01143,0.01016,0.040005,0.00428625};
Point(81) = {0.01143,0.01016,0.04572,0.00428625};
Point(82) = {0.017145,0,0,0.00428625};
Point(83) = {0.017145,0,0.005715,0.00428625};
Point(84) = {0.017145,0,0.01143,0.00428625};
Point(85) = {0.017145,0,0.017145,0.00428625};
Point(86) = {0.017145,0,0.02286,0.00428625};
Point(87) = {0.017145,0,0.028575,0.00428625};
Point(88) = {0.017145,0,0.03429,0.00428625};
Point(89) = {0.017145,0,0.040005,0.00428625};
Point(90) = {0.017145,0,0.04572,0.00428625};
Point(91) = {0.017145,0.00508,0,0.00428625};
Point(92) = {0.017145,0.00508,0.005715,0.00428625};
Point(93) = {0.017145,0.00508,0.01143,0.00428625};
Point(94) = {0.017145,0.00508,0.017145,0.00428625};
Point(95) = {0.017145,0.00508,0.02286,0.00428625};
Point(96) = {0.017145,0.00508,0.028575,0.00428625};
Point(97) = {0.017145,0.00508,0.03429,0.00428625};
Point(98) = {0.017145,0.00508,0.040005,0.00428625};
Point(99) = {0.017145,0.00508,0.04572,0.00428625};
Point(100) = {0.017145,0.01016,0,0.00428625};
Point(101) = {0.017145,0.01016,0.005715,0.00428625};
Point(102) = {0.017145,0.01016,0.01143,0.00428625};
Point(103) = {0.017145,0.01016,0.017145,0.00428625};
Point(104) = {0.017145,0.01016,0.02286,0.00428625};
Point(105) = {0.017145,0.01016,0.028575,0.00428625};
Point(106) = {0.017145,0.01016,0.03429,0.00428625};
Point(107) = {0.017145,0.01016,0.040005,0.00428625};
Point(108) = {0.017145,0.01016,0.04572,0.00428625};
Point(109) = {0.02286,0,0,0.00428625};
Point(110) = {0.02286,0,0.005715,0.00428625};
Point(111) = {0.02286,0,0.01143,0.00428625};
Point(112) = {0.02286,0,0.017145,0.00428625};
Point(113) = {0.02286,0,0.02286,0.00428625};
Point(114) = {0.02286,0,0.028575,0.00428625};
Point(115) = {0.02286,0,0.03429,0.00428625};
Point(116) = {0.02286,0,0.040005,0.00428625};
Point(117) = {0.02286,0,0.04572,0.00428625};
Point(118) = {0.02286,0.00508,0,0.00428625};
Point(119) = {0.02286,0.00508,0.005715,0.00428625};
Point(120) = {0.02286,0.00508,0.01143,0.00428625};
Point(121) = {0.02286,0.00508,0.017145,0.00428625};
Point(122) = {0.02286,0.00508,0.02286,0.00428625};
Point(123) = {0.02286,0.00508,0.028575,0.00428625};
Point(124) = {0.02286,0.00508,0.03429,0.00428625};
Point(125) = {0.02286,0.00508,0.040005,0.00428625};
Point(126) = {0.02286,0.00508,0.04572,0.00428625};
Point(127) = {0.02286,0.01016,0,0.00428625};
Point(128) = {0.02286,0.01016,0.005715,0.00428625};
Point(129) = {0.02286,0.01016,0.01143,0.00428625};
Point(130) = {0.02286,0.01016,0.017145,0.00428625};
Point(131) = {0.02286,0.01016,0.02286,0.00428625};
Point(132) = {0.02286,0.01016,0.028575,0.00428625};
Point(133) = {0.02286,0.01016,0.03429,0.00428625};
Point(134) = {0.02286,0.01016,0.040005,0.00428625};
Point(135) = {0.02286,0.01016,0.04572,0.00428625};
Line(1) = {3,30};
Line(2) = {7,34};
Line(3) = {12,39};
Line(4) = {16,43};
Line(5) = {21,48};
Line(6) = {25,52};
Line(7) = {30,57};
Line(8) = {34,61};
Line(9) = {39,66};
Line(10) = {43,70};
Line(11) = {48,75};
Line(12) = {52,79};
Line(13) = {3,12};
Line(14) = {7,16};
Line(15) = {12,21};
Line(16) = {16,25};
Line(17) = {30,39};
Line(18) = {34,43};
Line(19) = {39,48};
Line(20) = {43,52};
Line(21) = {57,66};
Line(22) = {58,67};
Line(23) = {59,68};
Line(24) = {60,69};
Line(25) = {61,70};
Line(26) = {66,75};
Line(27) = {67,76};
Line(28) = {68,77};
Line(29) = {69,78};
Line(30) = {70,79};
Line(31) = {57,58};
Line(32) = {58,59};
Line(33) = {59,60};
Line(34) = {60,61};
Line(35) = {66,67};
Line(36) = {67,68};
Line(37) = {68,69};
Line(38) = {69,70};
Line(39) = {75,76};
Line(40) = {76,77};
Line(41) = {77,78};
Line(42) = {78,79};
Line Loop(1) = {31,22,-35,-21};
Plane Surface(1) = {1};
Line Loop(2) = {32,23,-36,-22};
Plane Surface(2) = {2};
Line Loop(3) = {33,24,-37,-23};
Plane Surface(3) = {3};
Line Loop(4) = {34,25,-38,-24};
Plane Surface(4) = {4};
Line Loop(5) = {35,27,-39,-26};
Plane Surface(5) = {5};
Line Loop(6) = {36,28,-40,-27};
Plane Surface(6) = {6};
Line Loop(7) = {37,29,-41,-28};
Plane Surface(7) = {7};
Line Loop(8) = {38,30,-42,-29};
Plane Surface(8) = {8};
Line Loop(9) = {13,3,-17,-1};
Plane Surface(9) = {9};
Line Loop(10) = {14,4,-18,-2};
Plane Surface(10) = {10};
Line Loop(11) = {15,5,-19,-3};
Plane Surface(11) = {11};
Line Loop(12) = {16,6,-20,-4};
Plane Surface(12) = {12};
Line Loop(13) = {17,9,-21,-7};
Plane Surface(13) = {13};
Line Loop(14) = {18,10,-25,-8};
Plane Surface(14) = {14};
Line Loop(15) = {19,11,-26,-9};
Plane Surface(15) = {15};
Line Loop(16) = {20,12,-30,-10};
Plane Surface(16) = {16};
Physical Surface(1) = {1,2,3,4,5,6,7,8,9,10,11,12,13,14,15,16};
Point(136) = {0.00843,0.01016,0.03086,0.00428625};
Point(137) = {0.0004299999999999998,0.01016,0.02286,0.00428625};
Point(138) = {0.008429999999999998,0.01016,0.01486,0.00428625};
Point(139) = {0.00843,0,0.03086,0.00428625};
Point(140) = {0.0004299999999999998,0,0.02286,0.00428625};
Point(141) = {0.008429999999999998,0,0.01486,0.00428625};
Point(142) = {0.00843,0.01016,0.02286,0.00428625};
Point(143) = {0.00843,0,0.02286,0.00428625};
Line(43) = {139,136};
Line(44) = {140,137};
Line(45) = {141,138};
Line(46) = {136,138};
Line(47) = {139,141};
Circle(newc) = {136,142,137};
Circle(newc) = {137,142,138};
Circle(newc) = {139,143,140};
Circle(newc) = {140,143,141};
Line(52) = {21,22};
Line(53) = {22,23};
Line(54) = {23,24};
Line(55) = {24,25};
Line(56) = {3,4};
Line(57) = {4,5};
Line(58) = {5,6};
Line(59) = {6,7};
Line(60) = {4,22};
Line(61) = {5,23};
Line(62) = {6,24};
Line Loop(63) = {45,-49,-44,51};
Ruled Surface(64) = {63};
Line Loop(65) = {48,-44,-50,43};
Ruled Surface(66) = {65};
Line Loop(67) = {1,7,31,32,33,34,-8,-2,-59,-58,-57,-56};
Line Loop(68) = {51,-47,50};
Plane Surface(69) = {67,68};
Line Loop(70) = {5,11,39,40,41,42,-12,-6,-55,-54,-53,-52};
Line Loop(71) = {49,-46,48};
Plane Surface(72) = {70,71};
Line Loop(73) = {46,-45,-47,43};
Plane Surface(74) = {73};
Line Loop(75) = {13,15,52,-60,-56};
Plane Surface(76) = {75};
Line Loop(77) = {53,-61,-57,60};
Plane Surface(78) = {77};
Line Loop(79) = {61,54,-62,-58};
Plane Surface(80) = {79};
Line Loop(81) = {62,55,-16,-14,-59};
Plane Surface(82) = {81};
Surface Loop(83) = {76,9,11,72,15,5,1,69,13,2,3,4,14,10,82,80,78,12,16,8,7,6,66,64,74};
Volume(84) = {83};
Physical Surface(1001) = {76,78,80,82,72,69,74,66,64};
Physical Volume(1) = {84};
Mesh.CharacteristicLengthFactor = .5;