Point(1) = {0,0,0,0.002143125};
Point(2) = {0,0,0.0028575,0.002143125};
Point(3) = {0,0,0.005715,0.002143125};
Point(4) = {0,0,0.0085725,0.002143125};
Point(5) = {0,0,0.01143,0.002143125};
Point(6) = {0,0,0.0142875,0.002143125};
Point(7) = {0,0,0.017145,0.002143125};
Point(8) = {0,0,0.0200025,0.002143125};
Point(9) = {0,0,0.02286,0.002143125};
Point(10) = {0,0,0.0257175,0.002143125};
Point(11) = {0,0,0.028575,0.002143125};
Point(12) = {0,0,0.0314325,0.002143125};
Point(13) = {0,0,0.03429,0.002143125};
Point(14) = {0,0,0.0371475,0.002143125};
Point(15) = {0,0,0.040005,0.002143125};
Point(16) = {0,0,0.0428625,0.002143125};
Point(17) = {0,0.00254,0,0.002143125};
Point(18) = {0,0.00254,0.0028575,0.002143125};
Point(19) = {0,0.00254,0.005715,0.002143125};
Point(20) = {0,0.00254,0.0085725,0.002143125};
Point(21) = {0,0.00254,0.01143,0.002143125};
Point(22) = {0,0.00254,0.0142875,0.002143125};
Point(23) = {0,0.00254,0.017145,0.002143125};
Point(24) = {0,0.00254,0.0200025,0.002143125};
Point(25) = {0,0.00254,0.02286,0.002143125};
Point(26) = {0,0.00254,0.0257175,0.002143125};
Point(27) = {0,0.00254,0.028575,0.002143125};
Point(28) = {0,0.00254,0.0314325,0.002143125};
Point(29) = {0,0.00254,0.03429,0.002143125};
Point(30) = {0,0.00254,0.0371475,0.002143125};
Point(31) = {0,0.00254,0.040005,0.002143125};
Point(32) = {0,0.00254,0.0428625,0.002143125};
Point(33) = {0,0.00508,0,0.002143125};
Point(34) = {0,0.00508,0.0028575,0.002143125};
Point(35) = {0,0.00508,0.005715,0.002143125};
Point(36) = {0,0.00508,0.0085725,0.002143125};
Point(37) = {0,0.00508,0.01143,0.002143125};
Point(38) = {0,0.00508,0.0142875,0.002143125};
Point(39) = {0,0.00508,0.017145,0.002143125};
Point(40) = {0,0.00508,0.0200025,0.002143125};
Point(41) = {0,0.00508,0.02286,0.002143125};
Point(42) = {0,0.00508,0.0257175,0.002143125};
Point(43) = {0,0.00508,0.028575,0.002143125};
Point(44) = {0,0.00508,0.0314325,0.002143125};
Point(45) = {0,0.00508,0.03429,0.002143125};
Point(46) = {0,0.00508,0.0371475,0.002143125};
Point(47) = {0,0.00508,0.040005,0.002143125};
Point(48) = {0,0.00508,0.0428625,0.002143125};
Point(49) = {0,0.00762,0,0.002143125};
Point(50) = {0,0.00762,0.0028575,0.002143125};
Point(51) = {0,0.00762,0.005715,0.002143125};
Point(52) = {0,0.00762,0.0085725,0.002143125};
Point(53) = {0,0.00762,0.01143,0.002143125};
Point(54) = {0,0.00762,0.0142875,0.002143125};
Point(55) = {0,0.00762,0.017145,0.002143125};
Point(56) = {0,0.00762,0.0200025,0.002143125};
Point(57) = {0,0.00762,0.02286,0.002143125};
Point(58) = {0,0.00762,0.0257175,0.002143125};
Point(59) = {0,0.00762,0.028575,0.002143125};
Point(60) = {0,0.00762,0.0314325,0.002143125};
Point(61) = {0,0.00762,0.03429,0.002143125};
Point(62) = {0,0.00762,0.0371475,0.002143125};
Point(63) = {0,0.00762,0.040005,0.002143125};
Point(64) = {0,0.00762,0.0428625,0.002143125};
Point(65) = {0,0.01016,0,0.002143125};
Point(66) = {0,0.01016,0.0028575,0.002143125};
Point(67) = {0,0.01016,0.005715,0.002143125};
Point(68) = {0,0.01016,0.0085725,0.002143125};
Point(69) = {0,0.01016,0.01143,0.002143125};
Point(70) = {0,0.01016,0.0142875,0.002143125};
Point(71) = {0,0.01016,0.017145,0.002143125};
Point(72) = {0,0.01016,0.0200025,0.002143125};
Point(73) = {0,0.01016,0.02286,0.002143125};
Point(74) = {0,0.01016,0.0257175,0.002143125};
Point(75) = {0,0.01016,0.028575,0.002143125};
Point(76) = {0,0.01016,0.0314325,0.002143125};
Point(77) = {0,0.01016,0.03429,0.002143125};
Point(78) = {0,0.01016,0.0371475,0.002143125};
Point(79) = {0,0.01016,0.040005,0.002143125};
Point(80) = {0,0.01016,0.0428625,0.002143125};
Point(81) = {0.0028575,0,0,0.002143125};
Point(82) = {0.0028575,0,0.0028575,0.002143125};
Point(83) = {0.0028575,0,0.005715,0.002143125};
Point(84) = {0.0028575,0,0.0085725,0.002143125};
Point(85) = {0.0028575,0,0.01143,0.002143125};
Point(86) = {0.0028575,0,0.0142875,0.002143125};
Point(87) = {0.0028575,0,0.017145,0.002143125};
Point(88) = {0.0028575,0,0.0200025,0.002143125};
Point(89) = {0.0028575,0,0.02286,0.002143125};
Point(90) = {0.0028575,0,0.0257175,0.002143125};
Point(91) = {0.0028575,0,0.028575,0.002143125};
Point(92) = {0.0028575,0,0.0314325,0.002143125};
Point(93) = {0.0028575,0,0.03429,0.002143125};
Point(94) = {0.0028575,0,0.0371475,0.002143125};
Point(95) = {0.0028575,0,0.040005,0.002143125};
Point(96) = {0.0028575,0,0.0428625,0.002143125};
Point(97) = {0.0028575,0.00254,0,0.002143125};
Point(98) = {0.0028575,0.00254,0.0028575,0.002143125};
Point(99) = {0.0028575,0.00254,0.005715,0.002143125};
Point(100) = {0.0028575,0.00254,0.0085725,0.002143125};
Point(101) = {0.0028575,0.00254,0.01143,0.002143125};
Point(102) = {0.0028575,0.00254,0.0142875,0.002143125};
Point(103) = {0.0028575,0.00254,0.017145,0.002143125};
Point(104) = {0.0028575,0.00254,0.0200025,0.002143125};
Point(105) = {0.0028575,0.00254,0.02286,0.002143125};
Point(106) = {0.0028575,0.00254,0.0257175,0.002143125};
Point(107) = {0.0028575,0.00254,0.028575,0.002143125};
Point(108) = {0.0028575,0.00254,0.0314325,0.002143125};
Point(109) = {0.0028575,0.00254,0.03429,0.002143125};
Point(110) = {0.0028575,0.00254,0.0371475,0.002143125};
Point(111) = {0.0028575,0.00254,0.040005,0.002143125};
Point(112) = {0.0028575,0.00254,0.0428625,0.002143125};
Point(113) = {0.0028575,0.00508,0,0.002143125};
Point(114) = {0.0028575,0.00508,0.0028575,0.002143125};
Point(115) = {0.0028575,0.00508,0.005715,0.002143125};
Point(116) = {0.0028575,0.00508,0.0085725,0.002143125};
Point(117) = {0.0028575,0.00508,0.01143,0.002143125};
Point(118) = {0.0028575,0.00508,0.0142875,0.002143125};
Point(119) = {0.0028575,0.00508,0.017145,0.002143125};
Point(120) = {0.0028575,0.00508,0.0200025,0.002143125};
Point(121) = {0.0028575,0.00508,0.02286,0.002143125};
Point(122) = {0.0028575,0.00508,0.0257175,0.002143125};
Point(123) = {0.0028575,0.00508,0.028575,0.002143125};
Point(124) = {0.0028575,0.00508,0.0314325,0.002143125};
Point(125) = {0.0028575,0.00508,0.03429,0.002143125};
Point(126) = {0.0028575,0.00508,0.0371475,0.002143125};
Point(127) = {0.0028575,0.00508,0.040005,0.002143125};
Point(128) = {0.0028575,0.00508,0.0428625,0.002143125};
Point(129) = {0.0028575,0.00762,0,0.002143125};
Point(130) = {0.0028575,0.00762,0.0028575,0.002143125};
Point(131) = {0.0028575,0.00762,0.005715,0.002143125};
Point(132) = {0.0028575,0.00762,0.0085725,0.002143125};
Point(133) = {0.0028575,0.00762,0.01143,0.002143125};
Point(134) = {0.0028575,0.00762,0.0142875,0.002143125};
Point(135) = {0.0028575,0.00762,0.017145,0.002143125};
Point(136) = {0.0028575,0.00762,0.0200025,0.002143125};
Point(137) = {0.0028575,0.00762,0.02286,0.002143125};
Point(138) = {0.0028575,0.00762,0.0257175,0.002143125};
Point(139) = {0.0028575,0.00762,0.028575,0.002143125};
Point(140) = {0.0028575,0.00762,0.0314325,0.002143125};
Point(141) = {0.0028575,0.00762,0.03429,0.002143125};
Point(142) = {0.0028575,0.00762,0.0371475,0.002143125};
Point(143) = {0.0028575,0.00762,0.040005,0.002143125};
Point(144) = {0.0028575,0.00762,0.0428625,0.002143125};
Point(145) = {0.0028575,0.01016,0,0.002143125};
Point(146) = {0.0028575,0.01016,0.0028575,0.002143125};
Point(147) = {0.0028575,0.01016,0.005715,0.002143125};
Point(148) = {0.0028575,0.01016,0.0085725,0.002143125};
Point(149) = {0.0028575,0.01016,0.01143,0.002143125};
Point(150) = {0.0028575,0.01016,0.0142875,0.002143125};
Point(151) = {0.0028575,0.01016,0.017145,0.002143125};
Point(152) = {0.0028575,0.01016,0.0200025,0.002143125};
Point(153) = {0.0028575,0.01016,0.02286,0.002143125};
Point(154) = {0.0028575,0.01016,0.0257175,0.002143125};
Point(155) = {0.0028575,0.01016,0.028575,0.002143125};
Point(156) = {0.0028575,0.01016,0.0314325,0.002143125};
Point(157) = {0.0028575,0.01016,0.03429,0.002143125};
Point(158) = {0.0028575,0.01016,0.0371475,0.002143125};
Point(159) = {0.0028575,0.01016,0.040005,0.002143125};
Point(160) = {0.0028575,0.01016,0.0428625,0.002143125};
Point(161) = {0.005715,0,0,0.002143125};
Point(162) = {0.005715,0,0.0028575,0.002143125};
Point(163) = {0.005715,0,0.005715,0.002143125};
Point(164) = {0.005715,0,0.0085725,0.002143125};
Point(165) = {0.005715,0,0.01143,0.002143125};
Point(166) = {0.005715,0,0.0142875,0.002143125};
Point(167) = {0.005715,0,0.017145,0.002143125};
Point(168) = {0.005715,0,0.0200025,0.002143125};
Point(169) = {0.005715,0,0.02286,0.002143125};
Point(170) = {0.005715,0,0.0257175,0.002143125};
Point(171) = {0.005715,0,0.028575,0.002143125};
Point(172) = {0.005715,0,0.0314325,0.002143125};
Point(173) = {0.005715,0,0.03429,0.002143125};
Point(174) = {0.005715,0,0.0371475,0.002143125};
Point(175) = {0.005715,0,0.040005,0.002143125};
Point(176) = {0.005715,0,0.0428625,0.002143125};
Point(177) = {0.005715,0.00254,0,0.002143125};
Point(178) = {0.005715,0.00254,0.0028575,0.002143125};
Point(179) = {0.005715,0.00254,0.005715,0.002143125};
Point(180) = {0.005715,0.00254,0.0085725,0.002143125};
Point(181) = {0.005715,0.00254,0.01143,0.002143125};
Point(182) = {0.005715,0.00254,0.0142875,0.002143125};
Point(183) = {0.005715,0.00254,0.017145,0.002143125};
Point(184) = {0.005715,0.00254,0.0200025,0.002143125};
Point(185) = {0.005715,0.00254,0.02286,0.002143125};
Point(186) = {0.005715,0.00254,0.0257175,0.002143125};
Point(187) = {0.005715,0.00254,0.028575,0.002143125};
Point(188) = {0.005715,0.00254,0.0314325,0.002143125};
Point(189) = {0.005715,0.00254,0.03429,0.002143125};
Point(190) = {0.005715,0.00254,0.0371475,0.002143125};
Point(191) = {0.005715,0.00254,0.040005,0.002143125};
Point(192) = {0.005715,0.00254,0.0428625,0.002143125};
Point(193) = {0.005715,0.00508,0,0.002143125};
Point(194) = {0.005715,0.00508,0.0028575,0.002143125};
Point(195) = {0.005715,0.00508,0.005715,0.002143125};
Point(196) = {0.005715,0.00508,0.0085725,0.002143125};
Point(197) = {0.005715,0.00508,0.01143,0.002143125};
Point(198) = {0.005715,0.00508,0.0142875,0.002143125};
Point(199) = {0.005715,0.00508,0.017145,0.002143125};
Point(200) = {0.005715,0.00508,0.0200025,0.002143125};
Point(201) = {0.005715,0.00508,0.02286,0.002143125};
Point(202) = {0.005715,0.00508,0.0257175,0.002143125};
Point(203) = {0.005715,0.00508,0.028575,0.002143125};
Point(204) = {0.005715,0.00508,0.0314325,0.002143125};
Point(205) = {0.005715,0.00508,0.03429,0.002143125};
Point(206) = {0.005715,0.00508,0.0371475,0.002143125};
Point(207) = {0.005715,0.00508,0.040005,0.002143125};
Point(208) = {0.005715,0.00508,0.0428625,0.002143125};
Point(209) = {0.005715,0.00762,0,0.002143125};
Point(210) = {0.005715,0.00762,0.0028575,0.002143125};
Point(211) = {0.005715,0.00762,0.005715,0.002143125};
Point(212) = {0.005715,0.00762,0.0085725,0.002143125};
Point(213) = {0.005715,0.00762,0.01143,0.002143125};
Point(214) = {0.005715,0.00762,0.0142875,0.002143125};
Point(215) = {0.005715,0.00762,0.017145,0.002143125};
Point(216) = {0.005715,0.00762,0.0200025,0.002143125};
Point(217) = {0.005715,0.00762,0.02286,0.002143125};
Point(218) = {0.005715,0.00762,0.0257175,0.002143125};
Point(219) = {0.005715,0.00762,0.028575,0.002143125};
Point(220) = {0.005715,0.00762,0.0314325,0.002143125};
Point(221) = {0.005715,0.00762,0.03429,0.002143125};
Point(222) = {0.005715,0.00762,0.0371475,0.002143125};
Point(223) = {0.005715,0.00762,0.040005,0.002143125};
Point(224) = {0.005715,0.00762,0.0428625,0.002143125};
Point(225) = {0.005715,0.01016,0,0.002143125};
Point(226) = {0.005715,0.01016,0.0028575,0.002143125};
Point(227) = {0.005715,0.01016,0.005715,0.002143125};
Point(228) = {0.005715,0.01016,0.0085725,0.002143125};
Point(229) = {0.005715,0.01016,0.01143,0.002143125};
Point(230) = {0.005715,0.01016,0.0142875,0.002143125};
Point(231) = {0.005715,0.01016,0.017145,0.002143125};
Point(232) = {0.005715,0.01016,0.0200025,0.002143125};
Point(233) = {0.005715,0.01016,0.02286,0.002143125};
Point(234) = {0.005715,0.01016,0.0257175,0.002143125};
Point(235) = {0.005715,0.01016,0.028575,0.002143125};
Point(236) = {0.005715,0.01016,0.0314325,0.002143125};
Point(237) = {0.005715,0.01016,0.03429,0.002143125};
Point(238) = {0.005715,0.01016,0.0371475,0.002143125};
Point(239) = {0.005715,0.01016,0.040005,0.002143125};
Point(240) = {0.005715,0.01016,0.0428625,0.002143125};
Point(241) = {0.0085725,0,0,0.002143125};
Point(242) = {0.0085725,0,0.0028575,0.002143125};
Point(243) = {0.0085725,0,0.005715,0.002143125};
Point(244) = {0.0085725,0,0.0085725,0.002143125};
Point(245) = {0.0085725,0,0.01143,0.002143125};
Point(246) = {0.0085725,0,0.0142875,0.002143125};
Point(247) = {0.0085725,0,0.017145,0.002143125};
Point(248) = {0.0085725,0,0.0200025,0.002143125};
Point(249) = {0.0085725,0,0.02286,0.002143125};
Point(250) = {0.0085725,0,0.0257175,0.002143125};
Point(251) = {0.0085725,0,0.028575,0.002143125};
Point(252) = {0.0085725,0,0.0314325,0.002143125};
Point(253) = {0.0085725,0,0.03429,0.002143125};
Point(254) = {0.0085725,0,0.0371475,0.002143125};
Point(255) = {0.0085725,0,0.040005,0.002143125};
Point(256) = {0.0085725,0,0.0428625,0.002143125};
Point(257) = {0.0085725,0.00254,0,0.002143125};
Point(258) = {0.0085725,0.00254,0.0028575,0.002143125};
Point(259) = {0.0085725,0.00254,0.005715,0.002143125};
Point(260) = {0.0085725,0.00254,0.0085725,0.002143125};
Point(261) = {0.0085725,0.00254,0.01143,0.002143125};
Point(262) = {0.0085725,0.00254,0.0142875,0.002143125};
Point(263) = {0.0085725,0.00254,0.017145,0.002143125};
Point(264) = {0.0085725,0.00254,0.0200025,0.002143125};
Point(265) = {0.0085725,0.00254,0.02286,0.002143125};
Point(266) = {0.0085725,0.00254,0.0257175,0.002143125};
Point(267) = {0.0085725,0.00254,0.028575,0.002143125};
Point(268) = {0.0085725,0.00254,0.0314325,0.002143125};
Point(269) = {0.0085725,0.00254,0.03429,0.002143125};
Point(270) = {0.0085725,0.00254,0.0371475,0.002143125};
Point(271) = {0.0085725,0.00254,0.040005,0.002143125};
Point(272) = {0.0085725,0.00254,0.0428625,0.002143125};
Point(273) = {0.0085725,0.00508,0,0.002143125};
Point(274) = {0.0085725,0.00508,0.0028575,0.002143125};
Point(275) = {0.0085725,0.00508,0.005715,0.002143125};
Point(276) = {0.0085725,0.00508,0.0085725,0.002143125};
Point(277) = {0.0085725,0.00508,0.01143,0.002143125};
Point(278) = {0.0085725,0.00508,0.0142875,0.002143125};
Point(279) = {0.0085725,0.00508,0.017145,0.002143125};
Point(280) = {0.0085725,0.00508,0.0200025,0.002143125};
Point(281) = {0.0085725,0.00508,0.02286,0.002143125};
Point(282) = {0.0085725,0.00508,0.0257175,0.002143125};
Point(283) = {0.0085725,0.00508,0.028575,0.002143125};
Point(284) = {0.0085725,0.00508,0.0314325,0.002143125};
Point(285) = {0.0085725,0.00508,0.03429,0.002143125};
Point(286) = {0.0085725,0.00508,0.0371475,0.002143125};
Point(287) = {0.0085725,0.00508,0.040005,0.002143125};
Point(288) = {0.0085725,0.00508,0.0428625,0.002143125};
Point(289) = {0.0085725,0.00762,0,0.002143125};
Point(290) = {0.0085725,0.00762,0.0028575,0.002143125};
Point(291) = {0.0085725,0.00762,0.005715,0.002143125};
Point(292) = {0.0085725,0.00762,0.0085725,0.002143125};
Point(293) = {0.0085725,0.00762,0.01143,0.002143125};
Point(294) = {0.0085725,0.00762,0.0142875,0.002143125};
Point(295) = {0.0085725,0.00762,0.017145,0.002143125};
Point(296) = {0.0085725,0.00762,0.0200025,0.002143125};
Point(297) = {0.0085725,0.00762,0.02286,0.002143125};
Point(298) = {0.0085725,0.00762,0.0257175,0.002143125};
Point(299) = {0.0085725,0.00762,0.028575,0.002143125};
Point(300) = {0.0085725,0.00762,0.0314325,0.002143125};
Point(301) = {0.0085725,0.00762,0.03429,0.002143125};
Point(302) = {0.0085725,0.00762,0.0371475,0.002143125};
Point(303) = {0.0085725,0.00762,0.040005,0.002143125};
Point(304) = {0.0085725,0.00762,0.0428625,0.002143125};
Point(305) = {0.0085725,0.01016,0,0.002143125};
Point(306) = {0.0085725,0.01016,0.0028575,0.002143125};
Point(307) = {0.0085725,0.01016,0.005715,0.002143125};
Point(308) = {0.0085725,0.01016,0.0085725,0.002143125};
Point(309) = {0.0085725,0.01016,0.01143,0.002143125};
Point(310) = {0.0085725,0.01016,0.0142875,0.002143125};
Point(311) = {0.0085725,0.01016,0.017145,0.002143125};
Point(312) = {0.0085725,0.01016,0.0200025,0.002143125};
Point(313) = {0.0085725,0.01016,0.02286,0.002143125};
Point(314) = {0.0085725,0.01016,0.0257175,0.002143125};
Point(315) = {0.0085725,0.01016,0.028575,0.002143125};
Point(316) = {0.0085725,0.01016,0.0314325,0.002143125};
Point(317) = {0.0085725,0.01016,0.03429,0.002143125};
Point(318) = {0.0085725,0.01016,0.0371475,0.002143125};
Point(319) = {0.0085725,0.01016,0.040005,0.002143125};
Point(320) = {0.0085725,0.01016,0.0428625,0.002143125};
Point(321) = {0.01143,0,0,0.002143125};
Point(322) = {0.01143,0,0.0028575,0.002143125};
Point(323) = {0.01143,0,0.005715,0.002143125};
Point(324) = {0.01143,0,0.0085725,0.002143125};
Point(325) = {0.01143,0,0.01143,0.002143125};
Point(326) = {0.01143,0,0.0142875,0.002143125};
Point(327) = {0.01143,0,0.017145,0.002143125};
Point(328) = {0.01143,0,0.0200025,0.002143125};
Point(329) = {0.01143,0,0.02286,0.002143125};
Point(330) = {0.01143,0,0.0257175,0.002143125};
Point(331) = {0.01143,0,0.028575,0.002143125};
Point(332) = {0.01143,0,0.0314325,0.002143125};
Point(333) = {0.01143,0,0.03429,0.002143125};
Point(334) = {0.01143,0,0.0371475,0.002143125};
Point(335) = {0.01143,0,0.040005,0.002143125};
Point(336) = {0.01143,0,0.0428625,0.002143125};
Point(337) = {0.01143,0.00254,0,0.002143125};
Point(338) = {0.01143,0.00254,0.0028575,0.002143125};
Point(339) = {0.01143,0.00254,0.005715,0.002143125};
Point(340) = {0.01143,0.00254,0.0085725,0.002143125};
Point(341) = {0.01143,0.00254,0.01143,0.002143125};
Point(342) = {0.01143,0.00254,0.0142875,0.002143125};
Point(343) = {0.01143,0.00254,0.017145,0.002143125};
Point(344) = {0.01143,0.00254,0.0200025,0.002143125};
Point(345) = {0.01143,0.00254,0.02286,0.002143125};
Point(346) = {0.01143,0.00254,0.0257175,0.002143125};
Point(347) = {0.01143,0.00254,0.028575,0.002143125};
Point(348) = {0.01143,0.00254,0.0314325,0.002143125};
Point(349) = {0.01143,0.00254,0.03429,0.002143125};
Point(350) = {0.01143,0.00254,0.0371475,0.002143125};
Point(351) = {0.01143,0.00254,0.040005,0.002143125};
Point(352) = {0.01143,0.00254,0.0428625,0.002143125};
Point(353) = {0.01143,0.00508,0,0.002143125};
Point(354) = {0.01143,0.00508,0.0028575,0.002143125};
Point(355) = {0.01143,0.00508,0.005715,0.002143125};
Point(356) = {0.01143,0.00508,0.0085725,0.002143125};
Point(357) = {0.01143,0.00508,0.01143,0.002143125};
Point(358) = {0.01143,0.00508,0.0142875,0.002143125};
Point(359) = {0.01143,0.00508,0.017145,0.002143125};
Point(360) = {0.01143,0.00508,0.0200025,0.002143125};
Point(361) = {0.01143,0.00508,0.02286,0.002143125};
Point(362) = {0.01143,0.00508,0.0257175,0.002143125};
Point(363) = {0.01143,0.00508,0.028575,0.002143125};
Point(364) = {0.01143,0.00508,0.0314325,0.002143125};
Point(365) = {0.01143,0.00508,0.03429,0.002143125};
Point(366) = {0.01143,0.00508,0.0371475,0.002143125};
Point(367) = {0.01143,0.00508,0.040005,0.002143125};
Point(368) = {0.01143,0.00508,0.0428625,0.002143125};
Point(369) = {0.01143,0.00762,0,0.002143125};
Point(370) = {0.01143,0.00762,0.0028575,0.002143125};
Point(371) = {0.01143,0.00762,0.005715,0.002143125};
Point(372) = {0.01143,0.00762,0.0085725,0.002143125};
Point(373) = {0.01143,0.00762,0.01143,0.002143125};
Point(374) = {0.01143,0.00762,0.0142875,0.002143125};
Point(375) = {0.01143,0.00762,0.017145,0.002143125};
Point(376) = {0.01143,0.00762,0.0200025,0.002143125};
Point(377) = {0.01143,0.00762,0.02286,0.002143125};
Point(378) = {0.01143,0.00762,0.0257175,0.002143125};
Point(379) = {0.01143,0.00762,0.028575,0.002143125};
Point(380) = {0.01143,0.00762,0.0314325,0.002143125};
Point(381) = {0.01143,0.00762,0.03429,0.002143125};
Point(382) = {0.01143,0.00762,0.0371475,0.002143125};
Point(383) = {0.01143,0.00762,0.040005,0.002143125};
Point(384) = {0.01143,0.00762,0.0428625,0.002143125};
Point(385) = {0.01143,0.01016,0,0.002143125};
Point(386) = {0.01143,0.01016,0.0028575,0.002143125};
Point(387) = {0.01143,0.01016,0.005715,0.002143125};
Point(388) = {0.01143,0.01016,0.0085725,0.002143125};
Point(389) = {0.01143,0.01016,0.01143,0.002143125};
Point(390) = {0.01143,0.01016,0.0142875,0.002143125};
Point(391) = {0.01143,0.01016,0.017145,0.002143125};
Point(392) = {0.01143,0.01016,0.0200025,0.002143125};
Point(393) = {0.01143,0.01016,0.02286,0.002143125};
Point(394) = {0.01143,0.01016,0.0257175,0.002143125};
Point(395) = {0.01143,0.01016,0.028575,0.002143125};
Point(396) = {0.01143,0.01016,0.0314325,0.002143125};
Point(397) = {0.01143,0.01016,0.03429,0.002143125};
Point(398) = {0.01143,0.01016,0.0371475,0.002143125};
Point(399) = {0.01143,0.01016,0.040005,0.002143125};
Point(400) = {0.01143,0.01016,0.0428625,0.002143125};
Point(401) = {0.0142875,0,0,0.002143125};
Point(402) = {0.0142875,0,0.0028575,0.002143125};
Point(403) = {0.0142875,0,0.005715,0.002143125};
Point(404) = {0.0142875,0,0.0085725,0.002143125};
Point(405) = {0.0142875,0,0.01143,0.002143125};
Point(406) = {0.0142875,0,0.0142875,0.002143125};
Point(407) = {0.0142875,0,0.017145,0.002143125};
Point(408) = {0.0142875,0,0.0200025,0.002143125};
Point(409) = {0.0142875,0,0.02286,0.002143125};
Point(410) = {0.0142875,0,0.0257175,0.002143125};
Point(411) = {0.0142875,0,0.028575,0.002143125};
Point(412) = {0.0142875,0,0.0314325,0.002143125};
Point(413) = {0.0142875,0,0.03429,0.002143125};
Point(414) = {0.0142875,0,0.0371475,0.002143125};
Point(415) = {0.0142875,0,0.040005,0.002143125};
Point(416) = {0.0142875,0,0.0428625,0.002143125};
Point(417) = {0.0142875,0.00254,0,0.002143125};
Point(418) = {0.0142875,0.00254,0.0028575,0.002143125};
Point(419) = {0.0142875,0.00254,0.005715,0.002143125};
Point(420) = {0.0142875,0.00254,0.0085725,0.002143125};
Point(421) = {0.0142875,0.00254,0.01143,0.002143125};
Point(422) = {0.0142875,0.00254,0.0142875,0.002143125};
Point(423) = {0.0142875,0.00254,0.017145,0.002143125};
Point(424) = {0.0142875,0.00254,0.0200025,0.002143125};
Point(425) = {0.0142875,0.00254,0.02286,0.002143125};
Point(426) = {0.0142875,0.00254,0.0257175,0.002143125};
Point(427) = {0.0142875,0.00254,0.028575,0.002143125};
Point(428) = {0.0142875,0.00254,0.0314325,0.002143125};
Point(429) = {0.0142875,0.00254,0.03429,0.002143125};
Point(430) = {0.0142875,0.00254,0.0371475,0.002143125};
Point(431) = {0.0142875,0.00254,0.040005,0.002143125};
Point(432) = {0.0142875,0.00254,0.0428625,0.002143125};
Point(433) = {0.0142875,0.00508,0,0.002143125};
Point(434) = {0.0142875,0.00508,0.0028575,0.002143125};
Point(435) = {0.0142875,0.00508,0.005715,0.002143125};
Point(436) = {0.0142875,0.00508,0.0085725,0.002143125};
Point(437) = {0.0142875,0.00508,0.01143,0.002143125};
Point(438) = {0.0142875,0.00508,0.0142875,0.002143125};
Point(439) = {0.0142875,0.00508,0.017145,0.002143125};
Point(440) = {0.0142875,0.00508,0.0200025,0.002143125};
Point(441) = {0.0142875,0.00508,0.02286,0.002143125};
Point(442) = {0.0142875,0.00508,0.0257175,0.002143125};
Point(443) = {0.0142875,0.00508,0.028575,0.002143125};
Point(444) = {0.0142875,0.00508,0.0314325,0.002143125};
Point(445) = {0.0142875,0.00508,0.03429,0.002143125};
Point(446) = {0.0142875,0.00508,0.0371475,0.002143125};
Point(447) = {0.0142875,0.00508,0.040005,0.002143125};
Point(448) = {0.0142875,0.00508,0.0428625,0.002143125};
Point(449) = {0.0142875,0.00762,0,0.002143125};
Point(450) = {0.0142875,0.00762,0.0028575,0.002143125};
Point(451) = {0.0142875,0.00762,0.005715,0.002143125};
Point(452) = {0.0142875,0.00762,0.0085725,0.002143125};
Point(453) = {0.0142875,0.00762,0.01143,0.002143125};
Point(454) = {0.0142875,0.00762,0.0142875,0.002143125};
Point(455) = {0.0142875,0.00762,0.017145,0.002143125};
Point(456) = {0.0142875,0.00762,0.0200025,0.002143125};
Point(457) = {0.0142875,0.00762,0.02286,0.002143125};
Point(458) = {0.0142875,0.00762,0.0257175,0.002143125};
Point(459) = {0.0142875,0.00762,0.028575,0.002143125};
Point(460) = {0.0142875,0.00762,0.0314325,0.002143125};
Point(461) = {0.0142875,0.00762,0.03429,0.002143125};
Point(462) = {0.0142875,0.00762,0.0371475,0.002143125};
Point(463) = {0.0142875,0.00762,0.040005,0.002143125};
Point(464) = {0.0142875,0.00762,0.0428625,0.002143125};
Point(465) = {0.0142875,0.01016,0,0.002143125};
Point(466) = {0.0142875,0.01016,0.0028575,0.002143125};
Point(467) = {0.0142875,0.01016,0.005715,0.002143125};
Point(468) = {0.0142875,0.01016,0.0085725,0.002143125};
Point(469) = {0.0142875,0.01016,0.01143,0.002143125};
Point(470) = {0.0142875,0.01016,0.0142875,0.002143125};
Point(471) = {0.0142875,0.01016,0.017145,0.002143125};
Point(472) = {0.0142875,0.01016,0.0200025,0.002143125};
Point(473) = {0.0142875,0.01016,0.02286,0.002143125};
Point(474) = {0.0142875,0.01016,0.0257175,0.002143125};
Point(475) = {0.0142875,0.01016,0.028575,0.002143125};
Point(476) = {0.0142875,0.01016,0.0314325,0.002143125};
Point(477) = {0.0142875,0.01016,0.03429,0.002143125};
Point(478) = {0.0142875,0.01016,0.0371475,0.002143125};
Point(479) = {0.0142875,0.01016,0.040005,0.002143125};
Point(480) = {0.0142875,0.01016,0.0428625,0.002143125};
Point(481) = {0.017145,0,0,0.002143125};
Point(482) = {0.017145,0,0.0028575,0.002143125};
Point(483) = {0.017145,0,0.005715,0.002143125};
Point(484) = {0.017145,0,0.0085725,0.002143125};
Point(485) = {0.017145,0,0.01143,0.002143125};
Point(486) = {0.017145,0,0.0142875,0.002143125};
Point(487) = {0.017145,0,0.017145,0.002143125};
Point(488) = {0.017145,0,0.0200025,0.002143125};
Point(489) = {0.017145,0,0.02286,0.002143125};
Point(490) = {0.017145,0,0.0257175,0.002143125};
Point(491) = {0.017145,0,0.028575,0.002143125};
Point(492) = {0.017145,0,0.0314325,0.002143125};
Point(493) = {0.017145,0,0.03429,0.002143125};
Point(494) = {0.017145,0,0.0371475,0.002143125};
Point(495) = {0.017145,0,0.040005,0.002143125};
Point(496) = {0.017145,0,0.0428625,0.002143125};
Point(497) = {0.017145,0.00254,0,0.002143125};
Point(498) = {0.017145,0.00254,0.0028575,0.002143125};
Point(499) = {0.017145,0.00254,0.005715,0.002143125};
Point(500) = {0.017145,0.00254,0.0085725,0.002143125};
Point(501) = {0.017145,0.00254,0.01143,0.002143125};
Point(502) = {0.017145,0.00254,0.0142875,0.002143125};
Point(503) = {0.017145,0.00254,0.017145,0.002143125};
Point(504) = {0.017145,0.00254,0.0200025,0.002143125};
Point(505) = {0.017145,0.00254,0.02286,0.002143125};
Point(506) = {0.017145,0.00254,0.0257175,0.002143125};
Point(507) = {0.017145,0.00254,0.028575,0.002143125};
Point(508) = {0.017145,0.00254,0.0314325,0.002143125};
Point(509) = {0.017145,0.00254,0.03429,0.002143125};
Point(510) = {0.017145,0.00254,0.0371475,0.002143125};
Point(511) = {0.017145,0.00254,0.040005,0.002143125};
Point(512) = {0.017145,0.00254,0.0428625,0.002143125};
Point(513) = {0.017145,0.00508,0,0.002143125};
Point(514) = {0.017145,0.00508,0.0028575,0.002143125};
Point(515) = {0.017145,0.00508,0.005715,0.002143125};
Point(516) = {0.017145,0.00508,0.0085725,0.002143125};
Point(517) = {0.017145,0.00508,0.01143,0.002143125};
Point(518) = {0.017145,0.00508,0.0142875,0.002143125};
Point(519) = {0.017145,0.00508,0.017145,0.002143125};
Point(520) = {0.017145,0.00508,0.0200025,0.002143125};
Point(521) = {0.017145,0.00508,0.02286,0.002143125};
Point(522) = {0.017145,0.00508,0.0257175,0.002143125};
Point(523) = {0.017145,0.00508,0.028575,0.002143125};
Point(524) = {0.017145,0.00508,0.0314325,0.002143125};
Point(525) = {0.017145,0.00508,0.03429,0.002143125};
Point(526) = {0.017145,0.00508,0.0371475,0.002143125};
Point(527) = {0.017145,0.00508,0.040005,0.002143125};
Point(528) = {0.017145,0.00508,0.0428625,0.002143125};
Point(529) = {0.017145,0.00762,0,0.002143125};
Point(530) = {0.017145,0.00762,0.0028575,0.002143125};
Point(531) = {0.017145,0.00762,0.005715,0.002143125};
Point(532) = {0.017145,0.00762,0.0085725,0.002143125};
Point(533) = {0.017145,0.00762,0.01143,0.002143125};
Point(534) = {0.017145,0.00762,0.0142875,0.002143125};
Point(535) = {0.017145,0.00762,0.017145,0.002143125};
Point(536) = {0.017145,0.00762,0.0200025,0.002143125};
Point(537) = {0.017145,0.00762,0.02286,0.002143125};
Point(538) = {0.017145,0.00762,0.0257175,0.002143125};
Point(539) = {0.017145,0.00762,0.028575,0.002143125};
Point(540) = {0.017145,0.00762,0.0314325,0.002143125};
Point(541) = {0.017145,0.00762,0.03429,0.002143125};
Point(542) = {0.017145,0.00762,0.0371475,0.002143125};
Point(543) = {0.017145,0.00762,0.040005,0.002143125};
Point(544) = {0.017145,0.00762,0.0428625,0.002143125};
Point(545) = {0.017145,0.01016,0,0.002143125};
Point(546) = {0.017145,0.01016,0.0028575,0.002143125};
Point(547) = {0.017145,0.01016,0.005715,0.002143125};
Point(548) = {0.017145,0.01016,0.0085725,0.002143125};
Point(549) = {0.017145,0.01016,0.01143,0.002143125};
Point(550) = {0.017145,0.01016,0.0142875,0.002143125};
Point(551) = {0.017145,0.01016,0.017145,0.002143125};
Point(552) = {0.017145,0.01016,0.0200025,0.002143125};
Point(553) = {0.017145,0.01016,0.02286,0.002143125};
Point(554) = {0.017145,0.01016,0.0257175,0.002143125};
Point(555) = {0.017145,0.01016,0.028575,0.002143125};
Point(556) = {0.017145,0.01016,0.0314325,0.002143125};
Point(557) = {0.017145,0.01016,0.03429,0.002143125};
Point(558) = {0.017145,0.01016,0.0371475,0.002143125};
Point(559) = {0.017145,0.01016,0.040005,0.002143125};
Point(560) = {0.017145,0.01016,0.0428625,0.002143125};
Point(561) = {0.0200025,0,0,0.002143125};
Point(562) = {0.0200025,0,0.0028575,0.002143125};
Point(563) = {0.0200025,0,0.005715,0.002143125};
Point(564) = {0.0200025,0,0.0085725,0.002143125};
Point(565) = {0.0200025,0,0.01143,0.002143125};
Point(566) = {0.0200025,0,0.0142875,0.002143125};
Point(567) = {0.0200025,0,0.017145,0.002143125};
Point(568) = {0.0200025,0,0.0200025,0.002143125};
Point(569) = {0.0200025,0,0.02286,0.002143125};
Point(570) = {0.0200025,0,0.0257175,0.002143125};
Point(571) = {0.0200025,0,0.028575,0.002143125};
Point(572) = {0.0200025,0,0.0314325,0.002143125};
Point(573) = {0.0200025,0,0.03429,0.002143125};
Point(574) = {0.0200025,0,0.0371475,0.002143125};
Point(575) = {0.0200025,0,0.040005,0.002143125};
Point(576) = {0.0200025,0,0.0428625,0.002143125};
Point(577) = {0.0200025,0.00254,0,0.002143125};
Point(578) = {0.0200025,0.00254,0.0028575,0.002143125};
Point(579) = {0.0200025,0.00254,0.005715,0.002143125};
Point(580) = {0.0200025,0.00254,0.0085725,0.002143125};
Point(581) = {0.0200025,0.00254,0.01143,0.002143125};
Point(582) = {0.0200025,0.00254,0.0142875,0.002143125};
Point(583) = {0.0200025,0.00254,0.017145,0.002143125};
Point(584) = {0.0200025,0.00254,0.0200025,0.002143125};
Point(585) = {0.0200025,0.00254,0.02286,0.002143125};
Point(586) = {0.0200025,0.00254,0.0257175,0.002143125};
Point(587) = {0.0200025,0.00254,0.028575,0.002143125};
Point(588) = {0.0200025,0.00254,0.0314325,0.002143125};
Point(589) = {0.0200025,0.00254,0.03429,0.002143125};
Point(590) = {0.0200025,0.00254,0.0371475,0.002143125};
Point(591) = {0.0200025,0.00254,0.040005,0.002143125};
Point(592) = {0.0200025,0.00254,0.0428625,0.002143125};
Point(593) = {0.0200025,0.00508,0,0.002143125};
Point(594) = {0.0200025,0.00508,0.0028575,0.002143125};
Point(595) = {0.0200025,0.00508,0.005715,0.002143125};
Point(596) = {0.0200025,0.00508,0.0085725,0.002143125};
Point(597) = {0.0200025,0.00508,0.01143,0.002143125};
Point(598) = {0.0200025,0.00508,0.0142875,0.002143125};
Point(599) = {0.0200025,0.00508,0.017145,0.002143125};
Point(600) = {0.0200025,0.00508,0.0200025,0.002143125};
Point(601) = {0.0200025,0.00508,0.02286,0.002143125};
Point(602) = {0.0200025,0.00508,0.0257175,0.002143125};
Point(603) = {0.0200025,0.00508,0.028575,0.002143125};
Point(604) = {0.0200025,0.00508,0.0314325,0.002143125};
Point(605) = {0.0200025,0.00508,0.03429,0.002143125};
Point(606) = {0.0200025,0.00508,0.0371475,0.002143125};
Point(607) = {0.0200025,0.00508,0.040005,0.002143125};
Point(608) = {0.0200025,0.00508,0.0428625,0.002143125};
Point(609) = {0.0200025,0.00762,0,0.002143125};
Point(610) = {0.0200025,0.00762,0.0028575,0.002143125};
Point(611) = {0.0200025,0.00762,0.005715,0.002143125};
Point(612) = {0.0200025,0.00762,0.0085725,0.002143125};
Point(613) = {0.0200025,0.00762,0.01143,0.002143125};
Point(614) = {0.0200025,0.00762,0.0142875,0.002143125};
Point(615) = {0.0200025,0.00762,0.017145,0.002143125};
Point(616) = {0.0200025,0.00762,0.0200025,0.002143125};
Point(617) = {0.0200025,0.00762,0.02286,0.002143125};
Point(618) = {0.0200025,0.00762,0.0257175,0.002143125};
Point(619) = {0.0200025,0.00762,0.028575,0.002143125};
Point(620) = {0.0200025,0.00762,0.0314325,0.002143125};
Point(621) = {0.0200025,0.00762,0.03429,0.002143125};
Point(622) = {0.0200025,0.00762,0.0371475,0.002143125};
Point(623) = {0.0200025,0.00762,0.040005,0.002143125};
Point(624) = {0.0200025,0.00762,0.0428625,0.002143125};
Point(625) = {0.0200025,0.01016,0,0.002143125};
Point(626) = {0.0200025,0.01016,0.0028575,0.002143125};
Point(627) = {0.0200025,0.01016,0.005715,0.002143125};
Point(628) = {0.0200025,0.01016,0.0085725,0.002143125};
Point(629) = {0.0200025,0.01016,0.01143,0.002143125};
Point(630) = {0.0200025,0.01016,0.0142875,0.002143125};
Point(631) = {0.0200025,0.01016,0.017145,0.002143125};
Point(632) = {0.0200025,0.01016,0.0200025,0.002143125};
Point(633) = {0.0200025,0.01016,0.02286,0.002143125};
Point(634) = {0.0200025,0.01016,0.0257175,0.002143125};
Point(635) = {0.0200025,0.01016,0.028575,0.002143125};
Point(636) = {0.0200025,0.01016,0.0314325,0.002143125};
Point(637) = {0.0200025,0.01016,0.03429,0.002143125};
Point(638) = {0.0200025,0.01016,0.0371475,0.002143125};
Point(639) = {0.0200025,0.01016,0.040005,0.002143125};
Point(640) = {0.0200025,0.01016,0.0428625,0.002143125};
Point(641) = {0.02286,0,0,0.002143125};
Point(642) = {0.02286,0,0.0028575,0.002143125};
Point(643) = {0.02286,0,0.005715,0.002143125};
Point(644) = {0.02286,0,0.0085725,0.002143125};
Point(645) = {0.02286,0,0.01143,0.002143125};
Point(646) = {0.02286,0,0.0142875,0.002143125};
Point(647) = {0.02286,0,0.017145,0.002143125};
Point(648) = {0.02286,0,0.0200025,0.002143125};
Point(649) = {0.02286,0,0.02286,0.002143125};
Point(650) = {0.02286,0,0.0257175,0.002143125};
Point(651) = {0.02286,0,0.028575,0.002143125};
Point(652) = {0.02286,0,0.0314325,0.002143125};
Point(653) = {0.02286,0,0.03429,0.002143125};
Point(654) = {0.02286,0,0.0371475,0.002143125};
Point(655) = {0.02286,0,0.040005,0.002143125};
Point(656) = {0.02286,0,0.0428625,0.002143125};
Point(657) = {0.02286,0.00254,0,0.002143125};
Point(658) = {0.02286,0.00254,0.0028575,0.002143125};
Point(659) = {0.02286,0.00254,0.005715,0.002143125};
Point(660) = {0.02286,0.00254,0.0085725,0.002143125};
Point(661) = {0.02286,0.00254,0.01143,0.002143125};
Point(662) = {0.02286,0.00254,0.0142875,0.002143125};
Point(663) = {0.02286,0.00254,0.017145,0.002143125};
Point(664) = {0.02286,0.00254,0.0200025,0.002143125};
Point(665) = {0.02286,0.00254,0.02286,0.002143125};
Point(666) = {0.02286,0.00254,0.0257175,0.002143125};
Point(667) = {0.02286,0.00254,0.028575,0.002143125};
Point(668) = {0.02286,0.00254,0.0314325,0.002143125};
Point(669) = {0.02286,0.00254,0.03429,0.002143125};
Point(670) = {0.02286,0.00254,0.0371475,0.002143125};
Point(671) = {0.02286,0.00254,0.040005,0.002143125};
Point(672) = {0.02286,0.00254,0.0428625,0.002143125};
Point(673) = {0.02286,0.00508,0,0.002143125};
Point(674) = {0.02286,0.00508,0.0028575,0.002143125};
Point(675) = {0.02286,0.00508,0.005715,0.002143125};
Point(676) = {0.02286,0.00508,0.0085725,0.002143125};
Point(677) = {0.02286,0.00508,0.01143,0.002143125};
Point(678) = {0.02286,0.00508,0.0142875,0.002143125};
Point(679) = {0.02286,0.00508,0.017145,0.002143125};
Point(680) = {0.02286,0.00508,0.0200025,0.002143125};
Point(681) = {0.02286,0.00508,0.02286,0.002143125};
Point(682) = {0.02286,0.00508,0.0257175,0.002143125};
Point(683) = {0.02286,0.00508,0.028575,0.002143125};
Point(684) = {0.02286,0.00508,0.0314325,0.002143125};
Point(685) = {0.02286,0.00508,0.03429,0.002143125};
Point(686) = {0.02286,0.00508,0.0371475,0.002143125};
Point(687) = {0.02286,0.00508,0.040005,0.002143125};
Point(688) = {0.02286,0.00508,0.0428625,0.002143125};
Point(689) = {0.02286,0.00762,0,0.002143125};
Point(690) = {0.02286,0.00762,0.0028575,0.002143125};
Point(691) = {0.02286,0.00762,0.005715,0.002143125};
Point(692) = {0.02286,0.00762,0.0085725,0.002143125};
Point(693) = {0.02286,0.00762,0.01143,0.002143125};
Point(694) = {0.02286,0.00762,0.0142875,0.002143125};
Point(695) = {0.02286,0.00762,0.017145,0.002143125};
Point(696) = {0.02286,0.00762,0.0200025,0.002143125};
Point(697) = {0.02286,0.00762,0.02286,0.002143125};
Point(698) = {0.02286,0.00762,0.0257175,0.002143125};
Point(699) = {0.02286,0.00762,0.028575,0.002143125};
Point(700) = {0.02286,0.00762,0.0314325,0.002143125};
Point(701) = {0.02286,0.00762,0.03429,0.002143125};
Point(702) = {0.02286,0.00762,0.0371475,0.002143125};
Point(703) = {0.02286,0.00762,0.040005,0.002143125};
Point(704) = {0.02286,0.00762,0.0428625,0.002143125};
Point(705) = {0.02286,0.01016,0,0.002143125};
Point(706) = {0.02286,0.01016,0.0028575,0.002143125};
Point(707) = {0.02286,0.01016,0.005715,0.002143125};
Point(708) = {0.02286,0.01016,0.0085725,0.002143125};
Point(709) = {0.02286,0.01016,0.01143,0.002143125};
Point(710) = {0.02286,0.01016,0.0142875,0.002143125};
Point(711) = {0.02286,0.01016,0.017145,0.002143125};
Point(712) = {0.02286,0.01016,0.0200025,0.002143125};
Point(713) = {0.02286,0.01016,0.02286,0.002143125};
Point(714) = {0.02286,0.01016,0.0257175,0.002143125};
Point(715) = {0.02286,0.01016,0.028575,0.002143125};
Point(716) = {0.02286,0.01016,0.0314325,0.002143125};
Point(717) = {0.02286,0.01016,0.03429,0.002143125};
Point(718) = {0.02286,0.01016,0.0371475,0.002143125};
Point(719) = {0.02286,0.01016,0.040005,0.002143125};
Point(720) = {0.02286,0.01016,0.0428625,0.002143125};
Line(1) = {6,86};
Line(2) = {11,91};
Line(3) = {22,102};
Line(4) = {27,107};
Line(5) = {38,118};
Line(6) = {43,123};
Line(7) = {54,134};
Line(8) = {59,139};
Line(9) = {70,150};
Line(10) = {75,155};
Line(11) = {85,165};
Line(12) = {92,172};
Line(13) = {101,181};
Line(14) = {108,188};
Line(15) = {117,197};
Line(16) = {124,204};
Line(17) = {133,213};
Line(18) = {140,220};
Line(19) = {149,229};
Line(20) = {156,236};
Line(21) = {165,245};
Line(22) = {172,252};
Line(23) = {181,261};
Line(24) = {188,268};
Line(25) = {197,277};
Line(26) = {204,284};
Line(27) = {213,293};
Line(28) = {220,300};
Line(29) = {229,309};
Line(30) = {236,316};
Line(31) = {245,325};
Line(32) = {252,332};
Line(33) = {261,341};
Line(34) = {268,348};
Line(35) = {277,357};
Line(36) = {284,364};
Line(37) = {293,373};
Line(38) = {300,380};
Line(39) = {309,389};
Line(40) = {316,396};
Line(41) = {6,22};
Line(42) = {11,27};
Line(43) = {22,38};
Line(44) = {27,43};
Line(45) = {38,54};
Line(46) = {43,59};
Line(47) = {54,70};
Line(48) = {59,75};
Line(49) = {85,101};
Line(50) = {86,102};
Line(51) = {91,107};
Line(52) = {92,108};
Line(53) = {101,117};
Line(54) = {102,118};
Line(55) = {107,123};
Line(56) = {108,124};
Line(57) = {117,133};
Line(58) = {118,134};
Line(59) = {123,139};
Line(60) = {124,140};
Line(61) = {133,149};
Line(62) = {134,150};
Line(63) = {139,155};
Line(64) = {140,156};
Line(65) = {165,181};
Line(66) = {172,188};
Line(67) = {181,197};
Line(68) = {188,204};
Line(69) = {197,213};
Line(70) = {204,220};
Line(71) = {213,229};
Line(72) = {220,236};
Line(73) = {245,261};
Line(74) = {252,268};
Line(75) = {261,277};
Line(76) = {268,284};
Line(77) = {277,293};
Line(78) = {284,300};
Line(79) = {293,309};
Line(80) = {300,316};
Line(81) = {325,341};
Line(82) = {326,342};
Line(83) = {327,343};
Line(84) = {328,344};
Line(85) = {329,345};
Line(86) = {330,346};
Line(87) = {331,347};
Line(88) = {332,348};
Line(89) = {341,357};
Line(90) = {342,358};
Line(91) = {343,359};
Line(92) = {344,360};
Line(93) = {345,361};
Line(94) = {346,362};
Line(95) = {347,363};
Line(96) = {348,364};
Line(97) = {357,373};
Line(98) = {358,374};
Line(99) = {359,375};
Line(100) = {360,376};
Line(101) = {361,377};
Line(102) = {362,378};
Line(103) = {363,379};
Line(104) = {364,380};
Line(105) = {373,389};
Line(106) = {374,390};
Line(107) = {375,391};
Line(108) = {376,392};
Line(109) = {377,393};
Line(110) = {378,394};
Line(111) = {379,395};
Line(112) = {380,396};
Line(113) = {85,86};
Line(114) = {91,92};
Line(115) = {101,102};
Line(116) = {107,108};
Line(117) = {117,118};
Line(118) = {123,124};
Line(119) = {133,134};
Line(120) = {139,140};
Line(121) = {149,150};
Line(122) = {155,156};
Line(123) = {325,326};
Line(124) = {326,327};
Line(125) = {327,328};
Line(126) = {328,329};
Line(127) = {329,330};
Line(128) = {330,331};
Line(129) = {331,332};
Line(130) = {341,342};
Line(131) = {342,343};
Line(132) = {343,344};
Line(133) = {344,345};
Line(134) = {345,346};
Line(135) = {346,347};
Line(136) = {347,348};
Line(137) = {357,358};
Line(138) = {358,359};
Line(139) = {359,360};
Line(140) = {360,361};
Line(141) = {361,362};
Line(142) = {362,363};
Line(143) = {363,364};
Line(144) = {373,374};
Line(145) = {374,375};
Line(146) = {375,376};
Line(147) = {376,377};
Line(148) = {377,378};
Line(149) = {378,379};
Line(150) = {379,380};
Line(151) = {389,390};
Line(152) = {390,391};
Line(153) = {391,392};
Line(154) = {392,393};
Line(155) = {393,394};
Line(156) = {394,395};
Line(157) = {395,396};
Line Loop(1) = {113,50,-115,-49};
Plane Surface(1) = {1};
Line Loop(2) = {114,52,-116,-51};
Plane Surface(2) = {2};
Line Loop(3) = {115,54,-117,-53};
Plane Surface(3) = {3};
Line Loop(4) = {116,56,-118,-55};
Plane Surface(4) = {4};
Line Loop(5) = {117,58,-119,-57};
Plane Surface(5) = {5};
Line Loop(6) = {118,60,-120,-59};
Plane Surface(6) = {6};
Line Loop(7) = {119,62,-121,-61};
Plane Surface(7) = {7};
Line Loop(8) = {120,64,-122,-63};
Plane Surface(8) = {8};
Line Loop(9) = {123,82,-130,-81};
Plane Surface(9) = {9};
Line Loop(10) = {124,83,-131,-82};
Plane Surface(10) = {10};
Line Loop(11) = {125,84,-132,-83};
Plane Surface(11) = {11};
Line Loop(12) = {126,85,-133,-84};
Plane Surface(12) = {12};
Line Loop(13) = {127,86,-134,-85};
Plane Surface(13) = {13};
Line Loop(14) = {128,87,-135,-86};
Plane Surface(14) = {14};
Line Loop(15) = {129,88,-136,-87};
Plane Surface(15) = {15};
Line Loop(16) = {130,90,-137,-89};
Plane Surface(16) = {16};
Line Loop(17) = {131,91,-138,-90};
Plane Surface(17) = {17};
Line Loop(18) = {132,92,-139,-91};
Plane Surface(18) = {18};
Line Loop(19) = {133,93,-140,-92};
Plane Surface(19) = {19};
Line Loop(20) = {134,94,-141,-93};
Plane Surface(20) = {20};
Line Loop(21) = {135,95,-142,-94};
Plane Surface(21) = {21};
Line Loop(22) = {136,96,-143,-95};
Plane Surface(22) = {22};
Line Loop(23) = {137,98,-144,-97};
Plane Surface(23) = {23};
Line Loop(24) = {138,99,-145,-98};
Plane Surface(24) = {24};
Line Loop(25) = {139,100,-146,-99};
Plane Surface(25) = {25};
Line Loop(26) = {140,101,-147,-100};
Plane Surface(26) = {26};
Line Loop(27) = {141,102,-148,-101};
Plane Surface(27) = {27};
Line Loop(28) = {142,103,-149,-102};
Plane Surface(28) = {28};
Line Loop(29) = {143,104,-150,-103};
Plane Surface(29) = {29};
Line Loop(30) = {144,106,-151,-105};
Plane Surface(30) = {30};
Line Loop(31) = {145,107,-152,-106};
Plane Surface(31) = {31};
Line Loop(32) = {146,108,-153,-107};
Plane Surface(32) = {32};
Line Loop(33) = {147,109,-154,-108};
Plane Surface(33) = {33};
Line Loop(34) = {148,110,-155,-109};
Plane Surface(34) = {34};
Line Loop(35) = {149,111,-156,-110};
Plane Surface(35) = {35};
Line Loop(36) = {150,112,-157,-111};
Plane Surface(36) = {36};
Line Loop(37) = {41,3,-50,-1};
Plane Surface(37) = {37};
Line Loop(38) = {42,4,-51,-2};
Plane Surface(38) = {38};
Line Loop(39) = {43,5,-54,-3};
Plane Surface(39) = {39};
Line Loop(40) = {44,6,-55,-4};
Plane Surface(40) = {40};
Line Loop(41) = {45,7,-58,-5};
Plane Surface(41) = {41};
Line Loop(42) = {46,8,-59,-6};
Plane Surface(42) = {42};
Line Loop(43) = {47,9,-62,-7};
Plane Surface(43) = {43};
Line Loop(44) = {48,10,-63,-8};
Plane Surface(44) = {44};
Line Loop(45) = {49,13,-65,-11};
Plane Surface(45) = {45};
Line Loop(46) = {52,14,-66,-12};
Plane Surface(46) = {46};
Line Loop(47) = {53,15,-67,-13};
Plane Surface(47) = {47};
Line Loop(48) = {56,16,-68,-14};
Plane Surface(48) = {48};
Line Loop(49) = {57,17,-69,-15};
Plane Surface(49) = {49};
Line Loop(50) = {60,18,-70,-16};
Plane Surface(50) = {50};
Line Loop(51) = {61,19,-71,-17};
Plane Surface(51) = {51};
Line Loop(52) = {64,20,-72,-18};
Plane Surface(52) = {52};
Line Loop(53) = {65,23,-73,-21};
Plane Surface(53) = {53};
Line Loop(54) = {66,24,-74,-22};
Plane Surface(54) = {54};
Line Loop(55) = {67,25,-75,-23};
Plane Surface(55) = {55};
Line Loop(56) = {68,26,-76,-24};
Plane Surface(56) = {56};
Line Loop(57) = {69,27,-77,-25};
Plane Surface(57) = {57};
Line Loop(58) = {70,28,-78,-26};
Plane Surface(58) = {58};
Line Loop(59) = {71,29,-79,-27};
Plane Surface(59) = {59};
Line Loop(60) = {72,30,-80,-28};
Plane Surface(60) = {60};
Line Loop(61) = {73,33,-81,-31};
Plane Surface(61) = {61};
Line Loop(62) = {74,34,-88,-32};
Plane Surface(62) = {62};
Line Loop(63) = {75,35,-89,-33};
Plane Surface(63) = {63};
Line Loop(64) = {76,36,-96,-34};
Plane Surface(64) = {64};
Line Loop(65) = {77,37,-97,-35};
Plane Surface(65) = {65};
Line Loop(66) = {78,38,-104,-36};
Plane Surface(66) = {66};
Line Loop(67) = {79,39,-105,-37};
Plane Surface(67) = {67};
Line Loop(68) = {80,40,-112,-38};
Plane Surface(68) = {68};
Physical Surface(1) = {1,2,3,4,5,6,7,8,9,10,11,12,13,14,15,16,17,18,19,20,21,22,23,24,25,26,27,28,29,30,31,32,33,34,35,36,37,38,39,40,41,42,43,44,45,46,47,48,49,50,51,52,53,54,55,56,57,58,59,60,61,62,63,64,65,66,67,68};
Point(721) = {0.00843,0.01016,0.02943125,0.002143125};
Point(722) = {0.0004299999999999998,0.01016,0.02143125,0.002143125};
Point(723) = {0.008429999999999998,0.01016,0.01343125,0.002143125};
Point(724) = {0.00843,0,0.02943125,0.002143125};
Point(725) = {0.0004299999999999998,0,0.02143125,0.002143125};
Point(726) = {0.008429999999999998,0,0.01343125,0.002143125};
Point(727) = {0.00843,0.01016,0.02143125,0.002143125};
Point(728) = {0.00843,0,0.02143125,0.002143125};
Line(158) = {724,721};
Line(159) = {725,722};
Line(160) = {726,723};
Line(161) = {721,723};
Line(162) = {724,726};
Circle(newc) = {721,727,722};
Circle(newc) = {722,727,723};
Circle(newc) = {724,728,725};
Circle(newc) = {725,728,726};
Line Loop(167) = {163,-159,-165,158};
Ruled Surface(168) = {167};
Line Loop(169) = {166,160,-164,-159};
Ruled Surface(170) = {169};
Line Loop(171) = {158,161,-160,-162};
Plane Surface(172) = {171};
Line(173) = {71,7};
Line(174) = {8,72};
Line(175) = {73,9};
Line(176) = {10,74};
Line(177) = {6,7};
Line(178) = {7,8};
Line(179) = {8,9};
Line(180) = {9,10};
Line(181) = {10,11};
Line(182) = {70,71};
Line(183) = {71,72};
Line(184) = {72,73};
Line(185) = {73,74};
Line(186) = {74,75};
Line Loop(187) = {182,173,-177,41,43,45,47};
Plane Surface(188) = {187};
Line Loop(189) = {173,178,174,-183};
Plane Surface(190) = {189};
Line Loop(191) = {174,184,175,-179};
Plane Surface(192) = {191};
Line Loop(193) = {175,180,176,-185};
Plane Surface(194) = {193};
Line Loop(195) = {176,186,-48,-46,-44,-42,-181};
Plane Surface(196) = {195};
Line Loop(197) = {9,-121,19,29,39,151,152,153,154,155,156,157,-40,-30,-20,-122,-10,-186,-185,-184,-183,-182};
Line Loop(198) = {164,-161,163};
Plane Surface(199) = {197,198};
Line Loop(200) = {2,114,12,22,32,-129,-128,-127,-126,-125,-124,-123,-31,-21,-11,113,-1,177,178,179,180,181};
Line Loop(201) = {165,166,-162};
Plane Surface(202) = {200,201};
Surface Loop(203) = {172,168,199,43,188,190,202,38,196,194,192,44,8,6,4,2,46,48,50,52,60,68,36,29,22,15,62,54,56,58,66,64,14,21,28,35,34,27,20,13,12,19,26,33,32,25,18,11,10,17,24,31,30,23,16,9,61,53,45,1,37,39,41,5,3,47,49,51,7,59,67,65,57,55,63,40,42,170};
Volume(204) = {203};
Physical Surface(1001) = {196,194,192,190,188,168,170,172,202,199};
Physical Volume(1) = {204};
Characteristic Length {724,721,723,726} = 0.002;
Characteristic Length {725,722,73,9,8,72} = 0.001;
