Point(1) = {0,0,0,0.005715};
Point(2) = {0,0,0.007619999999999999,0.005715};
Point(3) = {0,0,0.01524,0.005715};
Point(4) = {0,0,0.02286,0.005715};
Point(5) = {0,0,0.03048,0.005715};
Point(6) = {0,0,0.03809999999999999,0.005715};
Point(7) = {0,0,0.04572,0.005715};
Point(8) = {0,0,0.05333999999999999,0.005715};
Point(9) = {0,0.00508,0,0.005715};
Point(10) = {0,0.00508,0.007619999999999999,0.005715};
Point(11) = {0,0.00508,0.01524,0.005715};
Point(12) = {0,0.00508,0.02286,0.005715};
Point(13) = {0,0.00508,0.03048,0.005715};
Point(14) = {0,0.00508,0.03809999999999999,0.005715};
Point(15) = {0,0.00508,0.04572,0.005715};
Point(16) = {0,0.00508,0.05333999999999999,0.005715};
Point(17) = {0,0.01016,0,0.005715};
Point(18) = {0,0.01016,0.007619999999999999,0.005715};
Point(19) = {0,0.01016,0.01524,0.005715};
Point(20) = {0,0.01016,0.02286,0.005715};
Point(21) = {0,0.01016,0.03048,0.005715};
Point(22) = {0,0.01016,0.03809999999999999,0.005715};
Point(23) = {0,0.01016,0.04572,0.005715};
Point(24) = {0,0.01016,0.05333999999999999,0.005715};
Point(25) = {0.007619999999999999,0,0,0.005715};
Point(26) = {0.007619999999999999,0,0.007619999999999999,0.005715};
Point(27) = {0.007619999999999999,0,0.01524,0.005715};
Point(28) = {0.007619999999999999,0,0.02286,0.005715};
Point(29) = {0.007619999999999999,0,0.03048,0.005715};
Point(30) = {0.007619999999999999,0,0.03809999999999999,0.005715};
Point(31) = {0.007619999999999999,0,0.04572,0.005715};
Point(32) = {0.007619999999999999,0,0.05333999999999999,0.005715};
Point(33) = {0.007619999999999999,0.00508,0,0.005715};
Point(34) = {0.007619999999999999,0.00508,0.007619999999999999,0.005715};
Point(35) = {0.007619999999999999,0.00508,0.01524,0.005715};
Point(36) = {0.007619999999999999,0.00508,0.02286,0.005715};
Point(37) = {0.007619999999999999,0.00508,0.03048,0.005715};
Point(38) = {0.007619999999999999,0.00508,0.03809999999999999,0.005715};
Point(39) = {0.007619999999999999,0.00508,0.04572,0.005715};
Point(40) = {0.007619999999999999,0.00508,0.05333999999999999,0.005715};
Point(41) = {0.007619999999999999,0.01016,0,0.005715};
Point(42) = {0.007619999999999999,0.01016,0.007619999999999999,0.005715};
Point(43) = {0.007619999999999999,0.01016,0.01524,0.005715};
Point(44) = {0.007619999999999999,0.01016,0.02286,0.005715};
Point(45) = {0.007619999999999999,0.01016,0.03048,0.005715};
Point(46) = {0.007619999999999999,0.01016,0.03809999999999999,0.005715};
Point(47) = {0.007619999999999999,0.01016,0.04572,0.005715};
Point(48) = {0.007619999999999999,0.01016,0.05333999999999999,0.005715};
Point(49) = {0.01524,0,0,0.005715};
Point(50) = {0.01524,0,0.007619999999999999,0.005715};
Point(51) = {0.01524,0,0.01524,0.005715};
Point(52) = {0.01524,0,0.02286,0.005715};
Point(53) = {0.01524,0,0.03048,0.005715};
Point(54) = {0.01524,0,0.03809999999999999,0.005715};
Point(55) = {0.01524,0,0.04572,0.005715};
Point(56) = {0.01524,0,0.05333999999999999,0.005715};
Point(57) = {0.01524,0.00508,0,0.005715};
Point(58) = {0.01524,0.00508,0.007619999999999999,0.005715};
Point(59) = {0.01524,0.00508,0.01524,0.005715};
Point(60) = {0.01524,0.00508,0.02286,0.005715};
Point(61) = {0.01524,0.00508,0.03048,0.005715};
Point(62) = {0.01524,0.00508,0.03809999999999999,0.005715};
Point(63) = {0.01524,0.00508,0.04572,0.005715};
Point(64) = {0.01524,0.00508,0.05333999999999999,0.005715};
Point(65) = {0.01524,0.01016,0,0.005715};
Point(66) = {0.01524,0.01016,0.007619999999999999,0.005715};
Point(67) = {0.01524,0.01016,0.01524,0.005715};
Point(68) = {0.01524,0.01016,0.02286,0.005715};
Point(69) = {0.01524,0.01016,0.03048,0.005715};
Point(70) = {0.01524,0.01016,0.03809999999999999,0.005715};
Point(71) = {0.01524,0.01016,0.04572,0.005715};
Point(72) = {0.01524,0.01016,0.05333999999999999,0.005715};
Point(73) = {0.02286,0,0,0.005715};
Point(74) = {0.02286,0,0.007619999999999999,0.005715};
Point(75) = {0.02286,0,0.01524,0.005715};
Point(76) = {0.02286,0,0.02286,0.005715};
Point(77) = {0.02286,0,0.03048,0.005715};
Point(78) = {0.02286,0,0.03809999999999999,0.005715};
Point(79) = {0.02286,0,0.04572,0.005715};
Point(80) = {0.02286,0,0.05333999999999999,0.005715};
Point(81) = {0.02286,0.00508,0,0.005715};
Point(82) = {0.02286,0.00508,0.007619999999999999,0.005715};
Point(83) = {0.02286,0.00508,0.01524,0.005715};
Point(84) = {0.02286,0.00508,0.02286,0.005715};
Point(85) = {0.02286,0.00508,0.03048,0.005715};
Point(86) = {0.02286,0.00508,0.03809999999999999,0.005715};
Point(87) = {0.02286,0.00508,0.04572,0.005715};
Point(88) = {0.02286,0.00508,0.05333999999999999,0.005715};
Point(89) = {0.02286,0.01016,0,0.005715};
Point(90) = {0.02286,0.01016,0.007619999999999999,0.005715};
Point(91) = {0.02286,0.01016,0.01524,0.005715};
Point(92) = {0.02286,0.01016,0.02286,0.005715};
Point(93) = {0.02286,0.01016,0.03048,0.005715};
Point(94) = {0.02286,0.01016,0.03809999999999999,0.005715};
Point(95) = {0.02286,0.01016,0.04572,0.005715};
Point(96) = {0.02286,0.01016,0.05333999999999999,0.005715};
Line(1) = {3,27};
Line(2) = {5,29};
Line(3) = {11,35};
Line(4) = {13,37};
Line(5) = {19,43};
Line(6) = {21,45};
Line(7) = {27,51};
Line(8) = {28,52};
Line(9) = {29,53};
Line(10) = {30,54};
Line(11) = {35,59};
Line(12) = {36,60};
Line(13) = {37,61};
Line(14) = {38,62};
Line(15) = {43,67};
Line(16) = {44,68};
Line(17) = {45,69};
Line(18) = {46,70};
Line(19) = {52,76};
Line(20) = {54,78};
Line(21) = {60,84};
Line(22) = {62,86};
Line(23) = {68,92};
Line(24) = {70,94};
Line(25) = {3,11};
Line(26) = {5,13};
Line(27) = {11,19};
Line(28) = {13,21};
Line(29) = {27,35};
Line(30) = {28,36};
Line(31) = {29,37};
Line(32) = {30,38};
Line(33) = {35,43};
Line(34) = {36,44};
Line(35) = {37,45};
Line(36) = {38,46};
Line(37) = {51,59};
Line(38) = {52,60};
Line(39) = {53,61};
Line(40) = {54,62};
Line(41) = {59,67};
Line(42) = {60,68};
Line(43) = {61,69};
Line(44) = {62,70};
Line(45) = {76,84};
Line(46) = {78,86};
Line(47) = {84,92};
Line(48) = {86,94};
Line(49) = {28,29};
Line(50) = {29,30};
Line(51) = {36,37};
Line(52) = {37,38};
Line(53) = {44,45};
Line(54) = {45,46};
Line(55) = {51,52};
Line(56) = {52,53};
Line(57) = {59,60};
Line(58) = {60,61};
Line(59) = {67,68};
Line(60) = {68,69};
Line Loop(1) = {49,31,-51,-30};
Plane Surface(1) = {1};
Line Loop(2) = {50,32,-52,-31};
Plane Surface(2) = {2};
Line Loop(3) = {51,35,-53,-34};
Plane Surface(3) = {3};
Line Loop(4) = {52,36,-54,-35};
Plane Surface(4) = {4};
Line Loop(5) = {55,38,-57,-37};
Plane Surface(5) = {5};
Line Loop(6) = {56,39,-58,-38};
Plane Surface(6) = {6};
Line Loop(7) = {57,42,-59,-41};
Plane Surface(7) = {7};
Line Loop(8) = {58,43,-60,-42};
Plane Surface(8) = {8};
Line Loop(9) = {25,3,-29,-1};
Plane Surface(9) = {9};
Line Loop(10) = {26,4,-31,-2};
Plane Surface(10) = {10};
Line Loop(11) = {27,5,-33,-3};
Plane Surface(11) = {11};
Line Loop(12) = {28,6,-35,-4};
Plane Surface(12) = {12};
Line Loop(13) = {29,11,-37,-7};
Plane Surface(13) = {13};
Line Loop(14) = {30,12,-38,-8};
Plane Surface(14) = {14};
Line Loop(15) = {31,13,-39,-9};
Plane Surface(15) = {15};
Line Loop(16) = {32,14,-40,-10};
Plane Surface(16) = {16};
Line Loop(17) = {33,15,-41,-11};
Plane Surface(17) = {17};
Line Loop(18) = {34,16,-42,-12};
Plane Surface(18) = {18};
Line Loop(19) = {35,17,-43,-13};
Plane Surface(19) = {19};
Line Loop(20) = {36,18,-44,-14};
Plane Surface(20) = {20};
Line Loop(21) = {38,21,-45,-19};
Plane Surface(21) = {21};
Line Loop(22) = {40,22,-46,-20};
Plane Surface(22) = {22};
Line Loop(23) = {42,23,-47,-21};
Plane Surface(23) = {23};
Line Loop(24) = {44,24,-48,-22};
Plane Surface(24) = {24};
Point(97) = {0.01843,0.01016,0.02820589838486224,0.005715};
Point(98) = {0.01989410161513775,0.01016,0.03367,0.005715};
Point(99) = {0.01443,0.01016,0.03513410161513775,0.005715};
Point(100) = {0.01843,0,0.02820589838486224,0.005715};
Point(101) = {0.01989410161513775,0,0.03367,0.005715};
Point(102) = {0.01443,0,0.03513410161513775,0.005715};
Point(103) = {0.01643,0.01016,0.03167,0.005715};
Point(104) = {0.01643,0,0.03167,0.005715};
Point(105) = {0.004131866670643065,0.01016,0.02359836282905961,0.005715};
Point(106) = {0.004501637170940381,0.01016,0.01937186667064306,0.005715};
Point(107) = {0.008728133329356933,0.01016,0.01974163717094038,0.005715};
Point(108) = {0.004131866670643065,0,0.02359836282905961,0.005715};
Point(109) = {0.004501637170940381,0,0.01937186667064306,0.005715};
Point(110) = {0.008728133329356933,0,0.01974163717094038,0.005715};
Point(111) = {0.006429999999999999,0.01016,0.02166999999999999,0.005715};
Point(112) = {0.006429999999999999,0,0.02166999999999999,0.005715};
Line(61) = {100,97};
Line(62) = {101,98};
Line(63) = {102,99};
Line(64) = {97,99};
Line(65) = {100,102};
Line(66) = {108,105};
Line(67) = {109,106};
Line(68) = {110,107};
Line(69) = {105,107};
Line(70) = {108,110};
Circle(newc) = {97,103,98};
Circle(newc) = {98,103,99};
Circle(newc) = {100,104,101};
Circle(newc) = {101,104,102};
Circle(newc) = {105,111,106};
Circle(newc) = {106,111,107};
Circle(newc) = {108,112,109};
Circle(newc) = {109,112,110};
Line Loop(79) = {66,75,-67,-77};
Ruled Surface(80) = {79};
Line Loop(81) = {78,68,-76,-67};
Ruled Surface(82) = {81};
Line Loop(83) = {63,-72,-62,74};
Ruled Surface(84) = {83};
Line Loop(85) = {73,62,-71,-61};
Ruled Surface(86) = {85};
Line Loop(87) = {70,68,-69,-66};
Plane Surface(88) = {87};
Line Loop(89) = {63,-64,-61,65};
Plane Surface(90) = {89};
Line(91) = {19,21};
Line(92) = {5,3};
Line(93) = {76,78};
Line(94) = {94,92};
Line Loop(95) = {55,-8,49,-2,92,1,7};
Line Loop(96) = {77,78,-70};
Plane Surface(97) = {95,96};
Line Loop(98) = {9,-56,19,93,-20,-10,-50};
Line Loop(99) = {65,-74,-73};
Plane Surface(100) = {98,99};
Line Loop(101) = {54,18,24,94,-23,60,-17};
Line Loop(102) = {64,-72,-71};
Plane Surface(103) = {101,102};
Line Loop(104) = {53,-6,-91,5,15,59,-16};
Line Loop(105) = {75,76,-69};
Plane Surface(106) = {104,105};
Line Loop(107) = {25,27,91,-28,-26,92};
Plane Surface(108) = {107};
Line Loop(109) = {93,46,48,94,-47,-45};
Plane Surface(110) = {109};
Surface Loop(111) = {103,4,2,100,15,19,8,6,21,23,110,22,16,20,24,86,84,90};
Volume(112) = {111};
Surface Loop(113) = {106,3,1,97,5,7,17,11,108,9,13,12,10,14,18,88,82,80};
Volume(114) = {113};
Physical Surface(1) = {1,2,3,4,5,6,7,8,9,10,11,12,13,14,15,16,17,18,19,20,21,22,23,24};
Physical Surface(1001) = {90,84,86,110,103,100,108,106,97,80,82,88};
Physical Volume(1) = {112,114};
Characteristic Length {108,112,110,107,105,111,99,103,97,102,104,100} = 0.002;
Characteristic Length {106,109,101,98} = 0.001;
