Point(1) = {0,0,0,0.00428625};
Point(2) = {0,0,0.005715,0.00428625};
Point(3) = {0,0,0.01143,0.00428625};
Point(4) = {0,0,0.017145,0.00428625};
Point(5) = {0,0,0.02286,0.00428625};
Point(6) = {0,0,0.028575,0.00428625};
Point(7) = {0,0,0.03429,0.00428625};
Point(8) = {0,0,0.040005,0.00428625};
Point(9) = {0,0,0.04572,0.00428625};
Point(10) = {0,0.00508,0,0.00428625};
Point(11) = {0,0.00508,0.005715,0.00428625};
Point(12) = {0,0.00508,0.01143,0.00428625};
Point(13) = {0,0.00508,0.017145,0.00428625};
Point(14) = {0,0.00508,0.02286,0.00428625};
Point(15) = {0,0.00508,0.028575,0.00428625};
Point(16) = {0,0.00508,0.03429,0.00428625};
Point(17) = {0,0.00508,0.040005,0.00428625};
Point(18) = {0,0.00508,0.04572,0.00428625};
Point(19) = {0,0.01016,0,0.00428625};
Point(20) = {0,0.01016,0.005715,0.00428625};
Point(21) = {0,0.01016,0.01143,0.00428625};
Point(22) = {0,0.01016,0.017145,0.00428625};
Point(23) = {0,0.01016,0.02286,0.00428625};
Point(24) = {0,0.01016,0.028575,0.00428625};
Point(25) = {0,0.01016,0.03429,0.00428625};
Point(26) = {0,0.01016,0.040005,0.00428625};
Point(27) = {0,0.01016,0.04572,0.00428625};
Point(28) = {0.005715,0,0,0.00428625};
Point(29) = {0.005715,0,0.005715,0.00428625};
Point(30) = {0.005715,0,0.01143,0.00428625};
Point(31) = {0.005715,0,0.017145,0.00428625};
Point(32) = {0.005715,0,0.02286,0.00428625};
Point(33) = {0.005715,0,0.028575,0.00428625};
Point(34) = {0.005715,0,0.03429,0.00428625};
Point(35) = {0.005715,0,0.040005,0.00428625};
Point(36) = {0.005715,0,0.04572,0.00428625};
Point(37) = {0.005715,0.00508,0,0.00428625};
Point(38) = {0.005715,0.00508,0.005715,0.00428625};
Point(39) = {0.005715,0.00508,0.01143,0.00428625};
Point(40) = {0.005715,0.00508,0.017145,0.00428625};
Point(41) = {0.005715,0.00508,0.02286,0.00428625};
Point(42) = {0.005715,0.00508,0.028575,0.00428625};
Point(43) = {0.005715,0.00508,0.03429,0.00428625};
Point(44) = {0.005715,0.00508,0.040005,0.00428625};
Point(45) = {0.005715,0.00508,0.04572,0.00428625};
Point(46) = {0.005715,0.01016,0,0.00428625};
Point(47) = {0.005715,0.01016,0.005715,0.00428625};
Point(48) = {0.005715,0.01016,0.01143,0.00428625};
Point(49) = {0.005715,0.01016,0.017145,0.00428625};
Point(50) = {0.005715,0.01016,0.02286,0.00428625};
Point(51) = {0.005715,0.01016,0.028575,0.00428625};
Point(52) = {0.005715,0.01016,0.03429,0.00428625};
Point(53) = {0.005715,0.01016,0.040005,0.00428625};
Point(54) = {0.005715,0.01016,0.04572,0.00428625};
Point(55) = {0.01143,0,0,0.00428625};
Point(56) = {0.01143,0,0.005715,0.00428625};
Point(57) = {0.01143,0,0.01143,0.00428625};
Point(58) = {0.01143,0,0.017145,0.00428625};
Point(59) = {0.01143,0,0.02286,0.00428625};
Point(60) = {0.01143,0,0.028575,0.00428625};
Point(61) = {0.01143,0,0.03429,0.00428625};
Point(62) = {0.01143,0,0.040005,0.00428625};
Point(63) = {0.01143,0,0.04572,0.00428625};
Point(64) = {0.01143,0.00508,0,0.00428625};
Point(65) = {0.01143,0.00508,0.005715,0.00428625};
Point(66) = {0.01143,0.00508,0.01143,0.00428625};
Point(67) = {0.01143,0.00508,0.017145,0.00428625};
Point(68) = {0.01143,0.00508,0.02286,0.00428625};
Point(69) = {0.01143,0.00508,0.028575,0.00428625};
Point(70) = {0.01143,0.00508,0.03429,0.00428625};
Point(71) = {0.01143,0.00508,0.040005,0.00428625};
Point(72) = {0.01143,0.00508,0.04572,0.00428625};
Point(73) = {0.01143,0.01016,0,0.00428625};
Point(74) = {0.01143,0.01016,0.005715,0.00428625};
Point(75) = {0.01143,0.01016,0.01143,0.00428625};
Point(76) = {0.01143,0.01016,0.017145,0.00428625};
Point(77) = {0.01143,0.01016,0.02286,0.00428625};
Point(78) = {0.01143,0.01016,0.028575,0.00428625};
Point(79) = {0.01143,0.01016,0.03429,0.00428625};
Point(80) = {0.01143,0.01016,0.040005,0.00428625};
Point(81) = {0.01143,0.01016,0.04572,0.00428625};
Point(82) = {0.017145,0,0,0.00428625};
Point(83) = {0.017145,0,0.005715,0.00428625};
Point(84) = {0.017145,0,0.01143,0.00428625};
Point(85) = {0.017145,0,0.017145,0.00428625};
Point(86) = {0.017145,0,0.02286,0.00428625};
Point(87) = {0.017145,0,0.028575,0.00428625};
Point(88) = {0.017145,0,0.03429,0.00428625};
Point(89) = {0.017145,0,0.040005,0.00428625};
Point(90) = {0.017145,0,0.04572,0.00428625};
Point(91) = {0.017145,0.00508,0,0.00428625};
Point(92) = {0.017145,0.00508,0.005715,0.00428625};
Point(93) = {0.017145,0.00508,0.01143,0.00428625};
Point(94) = {0.017145,0.00508,0.017145,0.00428625};
Point(95) = {0.017145,0.00508,0.02286,0.00428625};
Point(96) = {0.017145,0.00508,0.028575,0.00428625};
Point(97) = {0.017145,0.00508,0.03429,0.00428625};
Point(98) = {0.017145,0.00508,0.040005,0.00428625};
Point(99) = {0.017145,0.00508,0.04572,0.00428625};
Point(100) = {0.017145,0.01016,0,0.00428625};
Point(101) = {0.017145,0.01016,0.005715,0.00428625};
Point(102) = {0.017145,0.01016,0.01143,0.00428625};
Point(103) = {0.017145,0.01016,0.017145,0.00428625};
Point(104) = {0.017145,0.01016,0.02286,0.00428625};
Point(105) = {0.017145,0.01016,0.028575,0.00428625};
Point(106) = {0.017145,0.01016,0.03429,0.00428625};
Point(107) = {0.017145,0.01016,0.040005,0.00428625};
Point(108) = {0.017145,0.01016,0.04572,0.00428625};
Point(109) = {0.02286,0,0,0.00428625};
Point(110) = {0.02286,0,0.005715,0.00428625};
Point(111) = {0.02286,0,0.01143,0.00428625};
Point(112) = {0.02286,0,0.017145,0.00428625};
Point(113) = {0.02286,0,0.02286,0.00428625};
Point(114) = {0.02286,0,0.028575,0.00428625};
Point(115) = {0.02286,0,0.03429,0.00428625};
Point(116) = {0.02286,0,0.040005,0.00428625};
Point(117) = {0.02286,0,0.04572,0.00428625};
Point(118) = {0.02286,0.00508,0,0.00428625};
Point(119) = {0.02286,0.00508,0.005715,0.00428625};
Point(120) = {0.02286,0.00508,0.01143,0.00428625};
Point(121) = {0.02286,0.00508,0.017145,0.00428625};
Point(122) = {0.02286,0.00508,0.02286,0.00428625};
Point(123) = {0.02286,0.00508,0.028575,0.00428625};
Point(124) = {0.02286,0.00508,0.03429,0.00428625};
Point(125) = {0.02286,0.00508,0.040005,0.00428625};
Point(126) = {0.02286,0.00508,0.04572,0.00428625};
Point(127) = {0.02286,0.01016,0,0.00428625};
Point(128) = {0.02286,0.01016,0.005715,0.00428625};
Point(129) = {0.02286,0.01016,0.01143,0.00428625};
Point(130) = {0.02286,0.01016,0.017145,0.00428625};
Point(131) = {0.02286,0.01016,0.02286,0.00428625};
Point(132) = {0.02286,0.01016,0.028575,0.00428625};
Point(133) = {0.02286,0.01016,0.03429,0.00428625};
Point(134) = {0.02286,0.01016,0.040005,0.00428625};
Point(135) = {0.02286,0.01016,0.04572,0.00428625};
Line(1) = {3,30};
Line(2) = {5,32};
Line(3) = {12,39};
Line(4) = {14,41};
Line(5) = {21,48};
Line(6) = {23,50};
Line(7) = {30,57};
Line(8) = {32,59};
Line(9) = {39,66};
Line(10) = {41,68};
Line(11) = {48,75};
Line(12) = {50,77};
Line(13) = {59,86};
Line(14) = {61,88};
Line(15) = {68,95};
Line(16) = {70,97};
Line(17) = {77,104};
Line(18) = {79,106};
Line(19) = {86,113};
Line(20) = {88,115};
Line(21) = {95,122};
Line(22) = {97,124};
Line(23) = {104,131};
Line(24) = {106,133};
Line(25) = {3,12};
Line(26) = {5,14};
Line(27) = {12,21};
Line(28) = {14,23};
Line(29) = {30,39};
Line(30) = {32,41};
Line(31) = {39,48};
Line(32) = {41,50};
Line(33) = {57,66};
Line(34) = {58,67};
Line(35) = {59,68};
Line(36) = {60,69};
Line(37) = {61,70};
Line(38) = {66,75};
Line(39) = {67,76};
Line(40) = {68,77};
Line(41) = {69,78};
Line(42) = {70,79};
Line(43) = {86,95};
Line(44) = {88,97};
Line(45) = {95,104};
Line(46) = {97,106};
Line(47) = {113,122};
Line(48) = {115,124};
Line(49) = {122,131};
Line(50) = {124,133};
Line(51) = {57,58};
Line(52) = {58,59};
Line(53) = {59,60};
Line(54) = {60,61};
Line(55) = {66,67};
Line(56) = {67,68};
Line(57) = {68,69};
Line(58) = {69,70};
Line(59) = {75,76};
Line(60) = {76,77};
Line(61) = {77,78};
Line(62) = {78,79};
Line Loop(1) = {51,34,-55,-33};
Plane Surface(1) = {1};
Line Loop(2) = {52,35,-56,-34};
Plane Surface(2) = {2};
Line Loop(3) = {53,36,-57,-35};
Plane Surface(3) = {3};
Line Loop(4) = {54,37,-58,-36};
Plane Surface(4) = {4};
Line Loop(5) = {55,39,-59,-38};
Plane Surface(5) = {5};
Line Loop(6) = {56,40,-60,-39};
Plane Surface(6) = {6};
Line Loop(7) = {57,41,-61,-40};
Plane Surface(7) = {7};
Line Loop(8) = {58,42,-62,-41};
Plane Surface(8) = {8};
Line Loop(9) = {25,3,-29,-1};
Plane Surface(9) = {9};
Line Loop(10) = {26,4,-30,-2};
Plane Surface(10) = {10};
Line Loop(11) = {27,5,-31,-3};
Plane Surface(11) = {11};
Line Loop(12) = {28,6,-32,-4};
Plane Surface(12) = {12};
Line Loop(13) = {29,9,-33,-7};
Plane Surface(13) = {13};
Line Loop(14) = {30,10,-35,-8};
Plane Surface(14) = {14};
Line Loop(15) = {31,11,-38,-9};
Plane Surface(15) = {15};
Line Loop(16) = {32,12,-40,-10};
Plane Surface(16) = {16};
Line Loop(17) = {35,15,-43,-13};
Plane Surface(17) = {17};
Line Loop(18) = {37,16,-44,-14};
Plane Surface(18) = {18};
Line Loop(19) = {40,17,-45,-15};
Plane Surface(19) = {19};
Line Loop(20) = {42,18,-46,-16};
Plane Surface(20) = {20};
Line Loop(21) = {43,21,-47,-19};
Plane Surface(21) = {21};
Line Loop(22) = {44,22,-48,-20};
Plane Surface(22) = {22};
Line Loop(23) = {45,23,-49,-21};
Plane Surface(23) = {23};
Line Loop(24) = {46,24,-50,-22};
Plane Surface(24) = {24};
Point(136) = {0.01843,0.01016,0.02439589838486225,0.00428625};
Point(137) = {0.01989410161513775,0.01016,0.02986,0.00428625};
Point(138) = {0.01443,0.01016,0.03132410161513775,0.00428625};
Point(139) = {0.01843,0,0.02439589838486225,0.00428625};
Point(140) = {0.01989410161513775,0,0.02986,0.00428625};
Point(141) = {0.01443,0,0.03132410161513775,0.00428625};
Point(142) = {0.01643,0.01016,0.02786,0.00428625};
Point(143) = {0.01643,0,0.02786,0.00428625};
Point(144) = {0.004131866670643065,0.01016,0.01978836282905962,0.00428625};
Point(145) = {0.004501637170940381,0.01016,0.01556186667064306,0.00428625};
Point(146) = {0.008728133329356933,0.01016,0.01593163717094038,0.00428625};
Point(147) = {0.004131866670643065,0,0.01978836282905962,0.00428625};
Point(148) = {0.004501637170940381,0,0.01556186667064306,0.00428625};
Point(149) = {0.008728133329356933,0,0.01593163717094038,0.00428625};
Point(150) = {0.006429999999999999,0.01016,0.01786,0.00428625};
Point(151) = {0.006429999999999999,0,0.01786,0.00428625};
Line(63) = {139,136};
Line(64) = {140,137};
Line(65) = {141,138};
Line(66) = {136,138};
Line(67) = {139,141};
Line(68) = {147,144};
Line(69) = {148,145};
Line(70) = {149,146};
Line(71) = {144,146};
Line(72) = {147,149};
Circle(newc) = {136,142,137};
Circle(newc) = {137,142,138};
Circle(newc) = {139,143,140};
Circle(newc) = {140,143,141};
Circle(newc) = {144,150,145};
Circle(newc) = {145,150,146};
Circle(newc) = {147,151,148};
Circle(newc) = {148,151,149};
Line Loop(81) = {77,-69,-79,68};
Ruled Surface(82) = {81};
Line Loop(83) = {80,70,-78,-69};
Ruled Surface(84) = {83};
Line Loop(85) = {75,64,-73,-63};
Ruled Surface(86) = {85};
Line Loop(87) = {64,74,-65,-76};
Ruled Surface(88) = {87};
Line Loop(89) = {68,71,-70,-72};
Plane Surface(90) = {89};
Line Loop(91) = {66,-65,-67,63};
Plane Surface(92) = {91};
Line(93) = {3,5};
Line(94) = {23,21};
Line(95) = {115,113};
Line(96) = {131,133};
Line Loop(97) = {25,27,-94,-28,-26,-93};
Plane Surface(98) = {97};
Line Loop(99) = {93,2,8,-52,-51,-7,-1};
Line Loop(100) = {79,80,-72};
Plane Surface(101) = {99,100};
Line Loop(102) = {94,5,11,59,60,-12,-6};
Line Loop(103) = {77,78,-71};
Plane Surface(104) = {102,103};
Line Loop(105) = {95,-19,-13,53,54,14,20};
Line Loop(106) = {75,76,-67};
Plane Surface(107) = {105,106};
Line Loop(108) = {47,49,96,-50,-48,95};
Plane Surface(109) = {108};
Line Loop(110) = {24,-96,-23,-17,61,62,18};
Line Loop(111) = {74,-66,73};
Plane Surface(112) = {110,111};
Surface Loop(113) = {112,24,20,8,4,107,109,21,17,19,23,22,18,3,7,92,88,86};
Volume(114) = {113};
Surface Loop(115) = {101,98,9,11,104,15,5,1,2,6,13,16,12,10,14,90,82,84};
Volume(116) = {115};
Physical Surface(1) = {1,2,3,4,5,6,7,8,9,10,11,12,13,14,15,16,17,18,19,20,21,22,23,24};
Physical Surface(1001) = {109,107,112,92,86,88,104,101,84,82,90,98};
Physical Volume(1) = {114,116};
Characteristic Length {137,140,148,145} = 0.001;
Characteristic Length {139,136,138,141,149,146,144,147} = 0.002;
