Point(1) = {0,0,0,0.002143125};
Point(2) = {0,0,0.0028575,0.002143125};
Point(3) = {0,0,0.005715,0.002143125};
Point(4) = {0,0,0.0085725,0.002143125};
Point(5) = {0,0,0.01143,0.002143125};
Point(6) = {0,0,0.0142875,0.002143125};
Point(7) = {0,0,0.017145,0.002143125};
Point(8) = {0,0,0.0200025,0.002143125};
Point(9) = {0,0,0.02286,0.002143125};
Point(10) = {0,0,0.0257175,0.002143125};
Point(11) = {0,0,0.028575,0.002143125};
Point(12) = {0,0,0.0314325,0.002143125};
Point(13) = {0,0,0.03429,0.002143125};
Point(14) = {0,0,0.0371475,0.002143125};
Point(15) = {0,0,0.040005,0.002143125};
Point(16) = {0,0,0.0428625,0.002143125};
Point(17) = {0,0.00254,0,0.002143125};
Point(18) = {0,0.00254,0.0028575,0.002143125};
Point(19) = {0,0.00254,0.005715,0.002143125};
Point(20) = {0,0.00254,0.0085725,0.002143125};
Point(21) = {0,0.00254,0.01143,0.002143125};
Point(22) = {0,0.00254,0.0142875,0.002143125};
Point(23) = {0,0.00254,0.017145,0.002143125};
Point(24) = {0,0.00254,0.0200025,0.002143125};
Point(25) = {0,0.00254,0.02286,0.002143125};
Point(26) = {0,0.00254,0.0257175,0.002143125};
Point(27) = {0,0.00254,0.028575,0.002143125};
Point(28) = {0,0.00254,0.0314325,0.002143125};
Point(29) = {0,0.00254,0.03429,0.002143125};
Point(30) = {0,0.00254,0.0371475,0.002143125};
Point(31) = {0,0.00254,0.040005,0.002143125};
Point(32) = {0,0.00254,0.0428625,0.002143125};
Point(33) = {0,0.00508,0,0.002143125};
Point(34) = {0,0.00508,0.0028575,0.002143125};
Point(35) = {0,0.00508,0.005715,0.002143125};
Point(36) = {0,0.00508,0.0085725,0.002143125};
Point(37) = {0,0.00508,0.01143,0.002143125};
Point(38) = {0,0.00508,0.0142875,0.002143125};
Point(39) = {0,0.00508,0.017145,0.002143125};
Point(40) = {0,0.00508,0.0200025,0.002143125};
Point(41) = {0,0.00508,0.02286,0.002143125};
Point(42) = {0,0.00508,0.0257175,0.002143125};
Point(43) = {0,0.00508,0.028575,0.002143125};
Point(44) = {0,0.00508,0.0314325,0.002143125};
Point(45) = {0,0.00508,0.03429,0.002143125};
Point(46) = {0,0.00508,0.0371475,0.002143125};
Point(47) = {0,0.00508,0.040005,0.002143125};
Point(48) = {0,0.00508,0.0428625,0.002143125};
Point(49) = {0,0.00762,0,0.002143125};
Point(50) = {0,0.00762,0.0028575,0.002143125};
Point(51) = {0,0.00762,0.005715,0.002143125};
Point(52) = {0,0.00762,0.0085725,0.002143125};
Point(53) = {0,0.00762,0.01143,0.002143125};
Point(54) = {0,0.00762,0.0142875,0.002143125};
Point(55) = {0,0.00762,0.017145,0.002143125};
Point(56) = {0,0.00762,0.0200025,0.002143125};
Point(57) = {0,0.00762,0.02286,0.002143125};
Point(58) = {0,0.00762,0.0257175,0.002143125};
Point(59) = {0,0.00762,0.028575,0.002143125};
Point(60) = {0,0.00762,0.0314325,0.002143125};
Point(61) = {0,0.00762,0.03429,0.002143125};
Point(62) = {0,0.00762,0.0371475,0.002143125};
Point(63) = {0,0.00762,0.040005,0.002143125};
Point(64) = {0,0.00762,0.0428625,0.002143125};
Point(65) = {0,0.01016,0,0.002143125};
Point(66) = {0,0.01016,0.0028575,0.002143125};
Point(67) = {0,0.01016,0.005715,0.002143125};
Point(68) = {0,0.01016,0.0085725,0.002143125};
Point(69) = {0,0.01016,0.01143,0.002143125};
Point(70) = {0,0.01016,0.0142875,0.002143125};
Point(71) = {0,0.01016,0.017145,0.002143125};
Point(72) = {0,0.01016,0.0200025,0.002143125};
Point(73) = {0,0.01016,0.02286,0.002143125};
Point(74) = {0,0.01016,0.0257175,0.002143125};
Point(75) = {0,0.01016,0.028575,0.002143125};
Point(76) = {0,0.01016,0.0314325,0.002143125};
Point(77) = {0,0.01016,0.03429,0.002143125};
Point(78) = {0,0.01016,0.0371475,0.002143125};
Point(79) = {0,0.01016,0.040005,0.002143125};
Point(80) = {0,0.01016,0.0428625,0.002143125};
Point(81) = {0.0028575,0,0,0.002143125};
Point(82) = {0.0028575,0,0.0028575,0.002143125};
Point(83) = {0.0028575,0,0.005715,0.002143125};
Point(84) = {0.0028575,0,0.0085725,0.002143125};
Point(85) = {0.0028575,0,0.01143,0.002143125};
Point(86) = {0.0028575,0,0.0142875,0.002143125};
Point(87) = {0.0028575,0,0.017145,0.002143125};
Point(88) = {0.0028575,0,0.0200025,0.002143125};
Point(89) = {0.0028575,0,0.02286,0.002143125};
Point(90) = {0.0028575,0,0.0257175,0.002143125};
Point(91) = {0.0028575,0,0.028575,0.002143125};
Point(92) = {0.0028575,0,0.0314325,0.002143125};
Point(93) = {0.0028575,0,0.03429,0.002143125};
Point(94) = {0.0028575,0,0.0371475,0.002143125};
Point(95) = {0.0028575,0,0.040005,0.002143125};
Point(96) = {0.0028575,0,0.0428625,0.002143125};
Point(97) = {0.0028575,0.00254,0,0.002143125};
Point(98) = {0.0028575,0.00254,0.0028575,0.002143125};
Point(99) = {0.0028575,0.00254,0.005715,0.002143125};
Point(100) = {0.0028575,0.00254,0.0085725,0.002143125};
Point(101) = {0.0028575,0.00254,0.01143,0.002143125};
Point(102) = {0.0028575,0.00254,0.0142875,0.002143125};
Point(103) = {0.0028575,0.00254,0.017145,0.002143125};
Point(104) = {0.0028575,0.00254,0.0200025,0.002143125};
Point(105) = {0.0028575,0.00254,0.02286,0.002143125};
Point(106) = {0.0028575,0.00254,0.0257175,0.002143125};
Point(107) = {0.0028575,0.00254,0.028575,0.002143125};
Point(108) = {0.0028575,0.00254,0.0314325,0.002143125};
Point(109) = {0.0028575,0.00254,0.03429,0.002143125};
Point(110) = {0.0028575,0.00254,0.0371475,0.002143125};
Point(111) = {0.0028575,0.00254,0.040005,0.002143125};
Point(112) = {0.0028575,0.00254,0.0428625,0.002143125};
Point(113) = {0.0028575,0.00508,0,0.002143125};
Point(114) = {0.0028575,0.00508,0.0028575,0.002143125};
Point(115) = {0.0028575,0.00508,0.005715,0.002143125};
Point(116) = {0.0028575,0.00508,0.0085725,0.002143125};
Point(117) = {0.0028575,0.00508,0.01143,0.002143125};
Point(118) = {0.0028575,0.00508,0.0142875,0.002143125};
Point(119) = {0.0028575,0.00508,0.017145,0.002143125};
Point(120) = {0.0028575,0.00508,0.0200025,0.002143125};
Point(121) = {0.0028575,0.00508,0.02286,0.002143125};
Point(122) = {0.0028575,0.00508,0.0257175,0.002143125};
Point(123) = {0.0028575,0.00508,0.028575,0.002143125};
Point(124) = {0.0028575,0.00508,0.0314325,0.002143125};
Point(125) = {0.0028575,0.00508,0.03429,0.002143125};
Point(126) = {0.0028575,0.00508,0.0371475,0.002143125};
Point(127) = {0.0028575,0.00508,0.040005,0.002143125};
Point(128) = {0.0028575,0.00508,0.0428625,0.002143125};
Point(129) = {0.0028575,0.00762,0,0.002143125};
Point(130) = {0.0028575,0.00762,0.0028575,0.002143125};
Point(131) = {0.0028575,0.00762,0.005715,0.002143125};
Point(132) = {0.0028575,0.00762,0.0085725,0.002143125};
Point(133) = {0.0028575,0.00762,0.01143,0.002143125};
Point(134) = {0.0028575,0.00762,0.0142875,0.002143125};
Point(135) = {0.0028575,0.00762,0.017145,0.002143125};
Point(136) = {0.0028575,0.00762,0.0200025,0.002143125};
Point(137) = {0.0028575,0.00762,0.02286,0.002143125};
Point(138) = {0.0028575,0.00762,0.0257175,0.002143125};
Point(139) = {0.0028575,0.00762,0.028575,0.002143125};
Point(140) = {0.0028575,0.00762,0.0314325,0.002143125};
Point(141) = {0.0028575,0.00762,0.03429,0.002143125};
Point(142) = {0.0028575,0.00762,0.0371475,0.002143125};
Point(143) = {0.0028575,0.00762,0.040005,0.002143125};
Point(144) = {0.0028575,0.00762,0.0428625,0.002143125};
Point(145) = {0.0028575,0.01016,0,0.002143125};
Point(146) = {0.0028575,0.01016,0.0028575,0.002143125};
Point(147) = {0.0028575,0.01016,0.005715,0.002143125};
Point(148) = {0.0028575,0.01016,0.0085725,0.002143125};
Point(149) = {0.0028575,0.01016,0.01143,0.002143125};
Point(150) = {0.0028575,0.01016,0.0142875,0.002143125};
Point(151) = {0.0028575,0.01016,0.017145,0.002143125};
Point(152) = {0.0028575,0.01016,0.0200025,0.002143125};
Point(153) = {0.0028575,0.01016,0.02286,0.002143125};
Point(154) = {0.0028575,0.01016,0.0257175,0.002143125};
Point(155) = {0.0028575,0.01016,0.028575,0.002143125};
Point(156) = {0.0028575,0.01016,0.0314325,0.002143125};
Point(157) = {0.0028575,0.01016,0.03429,0.002143125};
Point(158) = {0.0028575,0.01016,0.0371475,0.002143125};
Point(159) = {0.0028575,0.01016,0.040005,0.002143125};
Point(160) = {0.0028575,0.01016,0.0428625,0.002143125};
Point(161) = {0.005715,0,0,0.002143125};
Point(162) = {0.005715,0,0.0028575,0.002143125};
Point(163) = {0.005715,0,0.005715,0.002143125};
Point(164) = {0.005715,0,0.0085725,0.002143125};
Point(165) = {0.005715,0,0.01143,0.002143125};
Point(166) = {0.005715,0,0.0142875,0.002143125};
Point(167) = {0.005715,0,0.017145,0.002143125};
Point(168) = {0.005715,0,0.0200025,0.002143125};
Point(169) = {0.005715,0,0.02286,0.002143125};
Point(170) = {0.005715,0,0.0257175,0.002143125};
Point(171) = {0.005715,0,0.028575,0.002143125};
Point(172) = {0.005715,0,0.0314325,0.002143125};
Point(173) = {0.005715,0,0.03429,0.002143125};
Point(174) = {0.005715,0,0.0371475,0.002143125};
Point(175) = {0.005715,0,0.040005,0.002143125};
Point(176) = {0.005715,0,0.0428625,0.002143125};
Point(177) = {0.005715,0.00254,0,0.002143125};
Point(178) = {0.005715,0.00254,0.0028575,0.002143125};
Point(179) = {0.005715,0.00254,0.005715,0.002143125};
Point(180) = {0.005715,0.00254,0.0085725,0.002143125};
Point(181) = {0.005715,0.00254,0.01143,0.002143125};
Point(182) = {0.005715,0.00254,0.0142875,0.002143125};
Point(183) = {0.005715,0.00254,0.017145,0.002143125};
Point(184) = {0.005715,0.00254,0.0200025,0.002143125};
Point(185) = {0.005715,0.00254,0.02286,0.002143125};
Point(186) = {0.005715,0.00254,0.0257175,0.002143125};
Point(187) = {0.005715,0.00254,0.028575,0.002143125};
Point(188) = {0.005715,0.00254,0.0314325,0.002143125};
Point(189) = {0.005715,0.00254,0.03429,0.002143125};
Point(190) = {0.005715,0.00254,0.0371475,0.002143125};
Point(191) = {0.005715,0.00254,0.040005,0.002143125};
Point(192) = {0.005715,0.00254,0.0428625,0.002143125};
Point(193) = {0.005715,0.00508,0,0.002143125};
Point(194) = {0.005715,0.00508,0.0028575,0.002143125};
Point(195) = {0.005715,0.00508,0.005715,0.002143125};
Point(196) = {0.005715,0.00508,0.0085725,0.002143125};
Point(197) = {0.005715,0.00508,0.01143,0.002143125};
Point(198) = {0.005715,0.00508,0.0142875,0.002143125};
Point(199) = {0.005715,0.00508,0.017145,0.002143125};
Point(200) = {0.005715,0.00508,0.0200025,0.002143125};
Point(201) = {0.005715,0.00508,0.02286,0.002143125};
Point(202) = {0.005715,0.00508,0.0257175,0.002143125};
Point(203) = {0.005715,0.00508,0.028575,0.002143125};
Point(204) = {0.005715,0.00508,0.0314325,0.002143125};
Point(205) = {0.005715,0.00508,0.03429,0.002143125};
Point(206) = {0.005715,0.00508,0.0371475,0.002143125};
Point(207) = {0.005715,0.00508,0.040005,0.002143125};
Point(208) = {0.005715,0.00508,0.0428625,0.002143125};
Point(209) = {0.005715,0.00762,0,0.002143125};
Point(210) = {0.005715,0.00762,0.0028575,0.002143125};
Point(211) = {0.005715,0.00762,0.005715,0.002143125};
Point(212) = {0.005715,0.00762,0.0085725,0.002143125};
Point(213) = {0.005715,0.00762,0.01143,0.002143125};
Point(214) = {0.005715,0.00762,0.0142875,0.002143125};
Point(215) = {0.005715,0.00762,0.017145,0.002143125};
Point(216) = {0.005715,0.00762,0.0200025,0.002143125};
Point(217) = {0.005715,0.00762,0.02286,0.002143125};
Point(218) = {0.005715,0.00762,0.0257175,0.002143125};
Point(219) = {0.005715,0.00762,0.028575,0.002143125};
Point(220) = {0.005715,0.00762,0.0314325,0.002143125};
Point(221) = {0.005715,0.00762,0.03429,0.002143125};
Point(222) = {0.005715,0.00762,0.0371475,0.002143125};
Point(223) = {0.005715,0.00762,0.040005,0.002143125};
Point(224) = {0.005715,0.00762,0.0428625,0.002143125};
Point(225) = {0.005715,0.01016,0,0.002143125};
Point(226) = {0.005715,0.01016,0.0028575,0.002143125};
Point(227) = {0.005715,0.01016,0.005715,0.002143125};
Point(228) = {0.005715,0.01016,0.0085725,0.002143125};
Point(229) = {0.005715,0.01016,0.01143,0.002143125};
Point(230) = {0.005715,0.01016,0.0142875,0.002143125};
Point(231) = {0.005715,0.01016,0.017145,0.002143125};
Point(232) = {0.005715,0.01016,0.0200025,0.002143125};
Point(233) = {0.005715,0.01016,0.02286,0.002143125};
Point(234) = {0.005715,0.01016,0.0257175,0.002143125};
Point(235) = {0.005715,0.01016,0.028575,0.002143125};
Point(236) = {0.005715,0.01016,0.0314325,0.002143125};
Point(237) = {0.005715,0.01016,0.03429,0.002143125};
Point(238) = {0.005715,0.01016,0.0371475,0.002143125};
Point(239) = {0.005715,0.01016,0.040005,0.002143125};
Point(240) = {0.005715,0.01016,0.0428625,0.002143125};
Point(241) = {0.0085725,0,0,0.002143125};
Point(242) = {0.0085725,0,0.0028575,0.002143125};
Point(243) = {0.0085725,0,0.005715,0.002143125};
Point(244) = {0.0085725,0,0.0085725,0.002143125};
Point(245) = {0.0085725,0,0.01143,0.002143125};
Point(246) = {0.0085725,0,0.0142875,0.002143125};
Point(247) = {0.0085725,0,0.017145,0.002143125};
Point(248) = {0.0085725,0,0.0200025,0.002143125};
Point(249) = {0.0085725,0,0.02286,0.002143125};
Point(250) = {0.0085725,0,0.0257175,0.002143125};
Point(251) = {0.0085725,0,0.028575,0.002143125};
Point(252) = {0.0085725,0,0.0314325,0.002143125};
Point(253) = {0.0085725,0,0.03429,0.002143125};
Point(254) = {0.0085725,0,0.0371475,0.002143125};
Point(255) = {0.0085725,0,0.040005,0.002143125};
Point(256) = {0.0085725,0,0.0428625,0.002143125};
Point(257) = {0.0085725,0.00254,0,0.002143125};
Point(258) = {0.0085725,0.00254,0.0028575,0.002143125};
Point(259) = {0.0085725,0.00254,0.005715,0.002143125};
Point(260) = {0.0085725,0.00254,0.0085725,0.002143125};
Point(261) = {0.0085725,0.00254,0.01143,0.002143125};
Point(262) = {0.0085725,0.00254,0.0142875,0.002143125};
Point(263) = {0.0085725,0.00254,0.017145,0.002143125};
Point(264) = {0.0085725,0.00254,0.0200025,0.002143125};
Point(265) = {0.0085725,0.00254,0.02286,0.002143125};
Point(266) = {0.0085725,0.00254,0.0257175,0.002143125};
Point(267) = {0.0085725,0.00254,0.028575,0.002143125};
Point(268) = {0.0085725,0.00254,0.0314325,0.002143125};
Point(269) = {0.0085725,0.00254,0.03429,0.002143125};
Point(270) = {0.0085725,0.00254,0.0371475,0.002143125};
Point(271) = {0.0085725,0.00254,0.040005,0.002143125};
Point(272) = {0.0085725,0.00254,0.0428625,0.002143125};
Point(273) = {0.0085725,0.00508,0,0.002143125};
Point(274) = {0.0085725,0.00508,0.0028575,0.002143125};
Point(275) = {0.0085725,0.00508,0.005715,0.002143125};
Point(276) = {0.0085725,0.00508,0.0085725,0.002143125};
Point(277) = {0.0085725,0.00508,0.01143,0.002143125};
Point(278) = {0.0085725,0.00508,0.0142875,0.002143125};
Point(279) = {0.0085725,0.00508,0.017145,0.002143125};
Point(280) = {0.0085725,0.00508,0.0200025,0.002143125};
Point(281) = {0.0085725,0.00508,0.02286,0.002143125};
Point(282) = {0.0085725,0.00508,0.0257175,0.002143125};
Point(283) = {0.0085725,0.00508,0.028575,0.002143125};
Point(284) = {0.0085725,0.00508,0.0314325,0.002143125};
Point(285) = {0.0085725,0.00508,0.03429,0.002143125};
Point(286) = {0.0085725,0.00508,0.0371475,0.002143125};
Point(287) = {0.0085725,0.00508,0.040005,0.002143125};
Point(288) = {0.0085725,0.00508,0.0428625,0.002143125};
Point(289) = {0.0085725,0.00762,0,0.002143125};
Point(290) = {0.0085725,0.00762,0.0028575,0.002143125};
Point(291) = {0.0085725,0.00762,0.005715,0.002143125};
Point(292) = {0.0085725,0.00762,0.0085725,0.002143125};
Point(293) = {0.0085725,0.00762,0.01143,0.002143125};
Point(294) = {0.0085725,0.00762,0.0142875,0.002143125};
Point(295) = {0.0085725,0.00762,0.017145,0.002143125};
Point(296) = {0.0085725,0.00762,0.0200025,0.002143125};
Point(297) = {0.0085725,0.00762,0.02286,0.002143125};
Point(298) = {0.0085725,0.00762,0.0257175,0.002143125};
Point(299) = {0.0085725,0.00762,0.028575,0.002143125};
Point(300) = {0.0085725,0.00762,0.0314325,0.002143125};
Point(301) = {0.0085725,0.00762,0.03429,0.002143125};
Point(302) = {0.0085725,0.00762,0.0371475,0.002143125};
Point(303) = {0.0085725,0.00762,0.040005,0.002143125};
Point(304) = {0.0085725,0.00762,0.0428625,0.002143125};
Point(305) = {0.0085725,0.01016,0,0.002143125};
Point(306) = {0.0085725,0.01016,0.0028575,0.002143125};
Point(307) = {0.0085725,0.01016,0.005715,0.002143125};
Point(308) = {0.0085725,0.01016,0.0085725,0.002143125};
Point(309) = {0.0085725,0.01016,0.01143,0.002143125};
Point(310) = {0.0085725,0.01016,0.0142875,0.002143125};
Point(311) = {0.0085725,0.01016,0.017145,0.002143125};
Point(312) = {0.0085725,0.01016,0.0200025,0.002143125};
Point(313) = {0.0085725,0.01016,0.02286,0.002143125};
Point(314) = {0.0085725,0.01016,0.0257175,0.002143125};
Point(315) = {0.0085725,0.01016,0.028575,0.002143125};
Point(316) = {0.0085725,0.01016,0.0314325,0.002143125};
Point(317) = {0.0085725,0.01016,0.03429,0.002143125};
Point(318) = {0.0085725,0.01016,0.0371475,0.002143125};
Point(319) = {0.0085725,0.01016,0.040005,0.002143125};
Point(320) = {0.0085725,0.01016,0.0428625,0.002143125};
Point(321) = {0.01143,0,0,0.002143125};
Point(322) = {0.01143,0,0.0028575,0.002143125};
Point(323) = {0.01143,0,0.005715,0.002143125};
Point(324) = {0.01143,0,0.0085725,0.002143125};
Point(325) = {0.01143,0,0.01143,0.002143125};
Point(326) = {0.01143,0,0.0142875,0.002143125};
Point(327) = {0.01143,0,0.017145,0.002143125};
Point(328) = {0.01143,0,0.0200025,0.002143125};
Point(329) = {0.01143,0,0.02286,0.002143125};
Point(330) = {0.01143,0,0.0257175,0.002143125};
Point(331) = {0.01143,0,0.028575,0.002143125};
Point(332) = {0.01143,0,0.0314325,0.002143125};
Point(333) = {0.01143,0,0.03429,0.002143125};
Point(334) = {0.01143,0,0.0371475,0.002143125};
Point(335) = {0.01143,0,0.040005,0.002143125};
Point(336) = {0.01143,0,0.0428625,0.002143125};
Point(337) = {0.01143,0.00254,0,0.002143125};
Point(338) = {0.01143,0.00254,0.0028575,0.002143125};
Point(339) = {0.01143,0.00254,0.005715,0.002143125};
Point(340) = {0.01143,0.00254,0.0085725,0.002143125};
Point(341) = {0.01143,0.00254,0.01143,0.002143125};
Point(342) = {0.01143,0.00254,0.0142875,0.002143125};
Point(343) = {0.01143,0.00254,0.017145,0.002143125};
Point(344) = {0.01143,0.00254,0.0200025,0.002143125};
Point(345) = {0.01143,0.00254,0.02286,0.002143125};
Point(346) = {0.01143,0.00254,0.0257175,0.002143125};
Point(347) = {0.01143,0.00254,0.028575,0.002143125};
Point(348) = {0.01143,0.00254,0.0314325,0.002143125};
Point(349) = {0.01143,0.00254,0.03429,0.002143125};
Point(350) = {0.01143,0.00254,0.0371475,0.002143125};
Point(351) = {0.01143,0.00254,0.040005,0.002143125};
Point(352) = {0.01143,0.00254,0.0428625,0.002143125};
Point(353) = {0.01143,0.00508,0,0.002143125};
Point(354) = {0.01143,0.00508,0.0028575,0.002143125};
Point(355) = {0.01143,0.00508,0.005715,0.002143125};
Point(356) = {0.01143,0.00508,0.0085725,0.002143125};
Point(357) = {0.01143,0.00508,0.01143,0.002143125};
Point(358) = {0.01143,0.00508,0.0142875,0.002143125};
Point(359) = {0.01143,0.00508,0.017145,0.002143125};
Point(360) = {0.01143,0.00508,0.0200025,0.002143125};
Point(361) = {0.01143,0.00508,0.02286,0.002143125};
Point(362) = {0.01143,0.00508,0.0257175,0.002143125};
Point(363) = {0.01143,0.00508,0.028575,0.002143125};
Point(364) = {0.01143,0.00508,0.0314325,0.002143125};
Point(365) = {0.01143,0.00508,0.03429,0.002143125};
Point(366) = {0.01143,0.00508,0.0371475,0.002143125};
Point(367) = {0.01143,0.00508,0.040005,0.002143125};
Point(368) = {0.01143,0.00508,0.0428625,0.002143125};
Point(369) = {0.01143,0.00762,0,0.002143125};
Point(370) = {0.01143,0.00762,0.0028575,0.002143125};
Point(371) = {0.01143,0.00762,0.005715,0.002143125};
Point(372) = {0.01143,0.00762,0.0085725,0.002143125};
Point(373) = {0.01143,0.00762,0.01143,0.002143125};
Point(374) = {0.01143,0.00762,0.0142875,0.002143125};
Point(375) = {0.01143,0.00762,0.017145,0.002143125};
Point(376) = {0.01143,0.00762,0.0200025,0.002143125};
Point(377) = {0.01143,0.00762,0.02286,0.002143125};
Point(378) = {0.01143,0.00762,0.0257175,0.002143125};
Point(379) = {0.01143,0.00762,0.028575,0.002143125};
Point(380) = {0.01143,0.00762,0.0314325,0.002143125};
Point(381) = {0.01143,0.00762,0.03429,0.002143125};
Point(382) = {0.01143,0.00762,0.0371475,0.002143125};
Point(383) = {0.01143,0.00762,0.040005,0.002143125};
Point(384) = {0.01143,0.00762,0.0428625,0.002143125};
Point(385) = {0.01143,0.01016,0,0.002143125};
Point(386) = {0.01143,0.01016,0.0028575,0.002143125};
Point(387) = {0.01143,0.01016,0.005715,0.002143125};
Point(388) = {0.01143,0.01016,0.0085725,0.002143125};
Point(389) = {0.01143,0.01016,0.01143,0.002143125};
Point(390) = {0.01143,0.01016,0.0142875,0.002143125};
Point(391) = {0.01143,0.01016,0.017145,0.002143125};
Point(392) = {0.01143,0.01016,0.0200025,0.002143125};
Point(393) = {0.01143,0.01016,0.02286,0.002143125};
Point(394) = {0.01143,0.01016,0.0257175,0.002143125};
Point(395) = {0.01143,0.01016,0.028575,0.002143125};
Point(396) = {0.01143,0.01016,0.0314325,0.002143125};
Point(397) = {0.01143,0.01016,0.03429,0.002143125};
Point(398) = {0.01143,0.01016,0.0371475,0.002143125};
Point(399) = {0.01143,0.01016,0.040005,0.002143125};
Point(400) = {0.01143,0.01016,0.0428625,0.002143125};
Point(401) = {0.0142875,0,0,0.002143125};
Point(402) = {0.0142875,0,0.0028575,0.002143125};
Point(403) = {0.0142875,0,0.005715,0.002143125};
Point(404) = {0.0142875,0,0.0085725,0.002143125};
Point(405) = {0.0142875,0,0.01143,0.002143125};
Point(406) = {0.0142875,0,0.0142875,0.002143125};
Point(407) = {0.0142875,0,0.017145,0.002143125};
Point(408) = {0.0142875,0,0.0200025,0.002143125};
Point(409) = {0.0142875,0,0.02286,0.002143125};
Point(410) = {0.0142875,0,0.0257175,0.002143125};
Point(411) = {0.0142875,0,0.028575,0.002143125};
Point(412) = {0.0142875,0,0.0314325,0.002143125};
Point(413) = {0.0142875,0,0.03429,0.002143125};
Point(414) = {0.0142875,0,0.0371475,0.002143125};
Point(415) = {0.0142875,0,0.040005,0.002143125};
Point(416) = {0.0142875,0,0.0428625,0.002143125};
Point(417) = {0.0142875,0.00254,0,0.002143125};
Point(418) = {0.0142875,0.00254,0.0028575,0.002143125};
Point(419) = {0.0142875,0.00254,0.005715,0.002143125};
Point(420) = {0.0142875,0.00254,0.0085725,0.002143125};
Point(421) = {0.0142875,0.00254,0.01143,0.002143125};
Point(422) = {0.0142875,0.00254,0.0142875,0.002143125};
Point(423) = {0.0142875,0.00254,0.017145,0.002143125};
Point(424) = {0.0142875,0.00254,0.0200025,0.002143125};
Point(425) = {0.0142875,0.00254,0.02286,0.002143125};
Point(426) = {0.0142875,0.00254,0.0257175,0.002143125};
Point(427) = {0.0142875,0.00254,0.028575,0.002143125};
Point(428) = {0.0142875,0.00254,0.0314325,0.002143125};
Point(429) = {0.0142875,0.00254,0.03429,0.002143125};
Point(430) = {0.0142875,0.00254,0.0371475,0.002143125};
Point(431) = {0.0142875,0.00254,0.040005,0.002143125};
Point(432) = {0.0142875,0.00254,0.0428625,0.002143125};
Point(433) = {0.0142875,0.00508,0,0.002143125};
Point(434) = {0.0142875,0.00508,0.0028575,0.002143125};
Point(435) = {0.0142875,0.00508,0.005715,0.002143125};
Point(436) = {0.0142875,0.00508,0.0085725,0.002143125};
Point(437) = {0.0142875,0.00508,0.01143,0.002143125};
Point(438) = {0.0142875,0.00508,0.0142875,0.002143125};
Point(439) = {0.0142875,0.00508,0.017145,0.002143125};
Point(440) = {0.0142875,0.00508,0.0200025,0.002143125};
Point(441) = {0.0142875,0.00508,0.02286,0.002143125};
Point(442) = {0.0142875,0.00508,0.0257175,0.002143125};
Point(443) = {0.0142875,0.00508,0.028575,0.002143125};
Point(444) = {0.0142875,0.00508,0.0314325,0.002143125};
Point(445) = {0.0142875,0.00508,0.03429,0.002143125};
Point(446) = {0.0142875,0.00508,0.0371475,0.002143125};
Point(447) = {0.0142875,0.00508,0.040005,0.002143125};
Point(448) = {0.0142875,0.00508,0.0428625,0.002143125};
Point(449) = {0.0142875,0.00762,0,0.002143125};
Point(450) = {0.0142875,0.00762,0.0028575,0.002143125};
Point(451) = {0.0142875,0.00762,0.005715,0.002143125};
Point(452) = {0.0142875,0.00762,0.0085725,0.002143125};
Point(453) = {0.0142875,0.00762,0.01143,0.002143125};
Point(454) = {0.0142875,0.00762,0.0142875,0.002143125};
Point(455) = {0.0142875,0.00762,0.017145,0.002143125};
Point(456) = {0.0142875,0.00762,0.0200025,0.002143125};
Point(457) = {0.0142875,0.00762,0.02286,0.002143125};
Point(458) = {0.0142875,0.00762,0.0257175,0.002143125};
Point(459) = {0.0142875,0.00762,0.028575,0.002143125};
Point(460) = {0.0142875,0.00762,0.0314325,0.002143125};
Point(461) = {0.0142875,0.00762,0.03429,0.002143125};
Point(462) = {0.0142875,0.00762,0.0371475,0.002143125};
Point(463) = {0.0142875,0.00762,0.040005,0.002143125};
Point(464) = {0.0142875,0.00762,0.0428625,0.002143125};
Point(465) = {0.0142875,0.01016,0,0.002143125};
Point(466) = {0.0142875,0.01016,0.0028575,0.002143125};
Point(467) = {0.0142875,0.01016,0.005715,0.002143125};
Point(468) = {0.0142875,0.01016,0.0085725,0.002143125};
Point(469) = {0.0142875,0.01016,0.01143,0.002143125};
Point(470) = {0.0142875,0.01016,0.0142875,0.002143125};
Point(471) = {0.0142875,0.01016,0.017145,0.002143125};
Point(472) = {0.0142875,0.01016,0.0200025,0.002143125};
Point(473) = {0.0142875,0.01016,0.02286,0.002143125};
Point(474) = {0.0142875,0.01016,0.0257175,0.002143125};
Point(475) = {0.0142875,0.01016,0.028575,0.002143125};
Point(476) = {0.0142875,0.01016,0.0314325,0.002143125};
Point(477) = {0.0142875,0.01016,0.03429,0.002143125};
Point(478) = {0.0142875,0.01016,0.0371475,0.002143125};
Point(479) = {0.0142875,0.01016,0.040005,0.002143125};
Point(480) = {0.0142875,0.01016,0.0428625,0.002143125};
Point(481) = {0.017145,0,0,0.002143125};
Point(482) = {0.017145,0,0.0028575,0.002143125};
Point(483) = {0.017145,0,0.005715,0.002143125};
Point(484) = {0.017145,0,0.0085725,0.002143125};
Point(485) = {0.017145,0,0.01143,0.002143125};
Point(486) = {0.017145,0,0.0142875,0.002143125};
Point(487) = {0.017145,0,0.017145,0.002143125};
Point(488) = {0.017145,0,0.0200025,0.002143125};
Point(489) = {0.017145,0,0.02286,0.002143125};
Point(490) = {0.017145,0,0.0257175,0.002143125};
Point(491) = {0.017145,0,0.028575,0.002143125};
Point(492) = {0.017145,0,0.0314325,0.002143125};
Point(493) = {0.017145,0,0.03429,0.002143125};
Point(494) = {0.017145,0,0.0371475,0.002143125};
Point(495) = {0.017145,0,0.040005,0.002143125};
Point(496) = {0.017145,0,0.0428625,0.002143125};
Point(497) = {0.017145,0.00254,0,0.002143125};
Point(498) = {0.017145,0.00254,0.0028575,0.002143125};
Point(499) = {0.017145,0.00254,0.005715,0.002143125};
Point(500) = {0.017145,0.00254,0.0085725,0.002143125};
Point(501) = {0.017145,0.00254,0.01143,0.002143125};
Point(502) = {0.017145,0.00254,0.0142875,0.002143125};
Point(503) = {0.017145,0.00254,0.017145,0.002143125};
Point(504) = {0.017145,0.00254,0.0200025,0.002143125};
Point(505) = {0.017145,0.00254,0.02286,0.002143125};
Point(506) = {0.017145,0.00254,0.0257175,0.002143125};
Point(507) = {0.017145,0.00254,0.028575,0.002143125};
Point(508) = {0.017145,0.00254,0.0314325,0.002143125};
Point(509) = {0.017145,0.00254,0.03429,0.002143125};
Point(510) = {0.017145,0.00254,0.0371475,0.002143125};
Point(511) = {0.017145,0.00254,0.040005,0.002143125};
Point(512) = {0.017145,0.00254,0.0428625,0.002143125};
Point(513) = {0.017145,0.00508,0,0.002143125};
Point(514) = {0.017145,0.00508,0.0028575,0.002143125};
Point(515) = {0.017145,0.00508,0.005715,0.002143125};
Point(516) = {0.017145,0.00508,0.0085725,0.002143125};
Point(517) = {0.017145,0.00508,0.01143,0.002143125};
Point(518) = {0.017145,0.00508,0.0142875,0.002143125};
Point(519) = {0.017145,0.00508,0.017145,0.002143125};
Point(520) = {0.017145,0.00508,0.0200025,0.002143125};
Point(521) = {0.017145,0.00508,0.02286,0.002143125};
Point(522) = {0.017145,0.00508,0.0257175,0.002143125};
Point(523) = {0.017145,0.00508,0.028575,0.002143125};
Point(524) = {0.017145,0.00508,0.0314325,0.002143125};
Point(525) = {0.017145,0.00508,0.03429,0.002143125};
Point(526) = {0.017145,0.00508,0.0371475,0.002143125};
Point(527) = {0.017145,0.00508,0.040005,0.002143125};
Point(528) = {0.017145,0.00508,0.0428625,0.002143125};
Point(529) = {0.017145,0.00762,0,0.002143125};
Point(530) = {0.017145,0.00762,0.0028575,0.002143125};
Point(531) = {0.017145,0.00762,0.005715,0.002143125};
Point(532) = {0.017145,0.00762,0.0085725,0.002143125};
Point(533) = {0.017145,0.00762,0.01143,0.002143125};
Point(534) = {0.017145,0.00762,0.0142875,0.002143125};
Point(535) = {0.017145,0.00762,0.017145,0.002143125};
Point(536) = {0.017145,0.00762,0.0200025,0.002143125};
Point(537) = {0.017145,0.00762,0.02286,0.002143125};
Point(538) = {0.017145,0.00762,0.0257175,0.002143125};
Point(539) = {0.017145,0.00762,0.028575,0.002143125};
Point(540) = {0.017145,0.00762,0.0314325,0.002143125};
Point(541) = {0.017145,0.00762,0.03429,0.002143125};
Point(542) = {0.017145,0.00762,0.0371475,0.002143125};
Point(543) = {0.017145,0.00762,0.040005,0.002143125};
Point(544) = {0.017145,0.00762,0.0428625,0.002143125};
Point(545) = {0.017145,0.01016,0,0.002143125};
Point(546) = {0.017145,0.01016,0.0028575,0.002143125};
Point(547) = {0.017145,0.01016,0.005715,0.002143125};
Point(548) = {0.017145,0.01016,0.0085725,0.002143125};
Point(549) = {0.017145,0.01016,0.01143,0.002143125};
Point(550) = {0.017145,0.01016,0.0142875,0.002143125};
Point(551) = {0.017145,0.01016,0.017145,0.002143125};
Point(552) = {0.017145,0.01016,0.0200025,0.002143125};
Point(553) = {0.017145,0.01016,0.02286,0.002143125};
Point(554) = {0.017145,0.01016,0.0257175,0.002143125};
Point(555) = {0.017145,0.01016,0.028575,0.002143125};
Point(556) = {0.017145,0.01016,0.0314325,0.002143125};
Point(557) = {0.017145,0.01016,0.03429,0.002143125};
Point(558) = {0.017145,0.01016,0.0371475,0.002143125};
Point(559) = {0.017145,0.01016,0.040005,0.002143125};
Point(560) = {0.017145,0.01016,0.0428625,0.002143125};
Point(561) = {0.0200025,0,0,0.002143125};
Point(562) = {0.0200025,0,0.0028575,0.002143125};
Point(563) = {0.0200025,0,0.005715,0.002143125};
Point(564) = {0.0200025,0,0.0085725,0.002143125};
Point(565) = {0.0200025,0,0.01143,0.002143125};
Point(566) = {0.0200025,0,0.0142875,0.002143125};
Point(567) = {0.0200025,0,0.017145,0.002143125};
Point(568) = {0.0200025,0,0.0200025,0.002143125};
Point(569) = {0.0200025,0,0.02286,0.002143125};
Point(570) = {0.0200025,0,0.0257175,0.002143125};
Point(571) = {0.0200025,0,0.028575,0.002143125};
Point(572) = {0.0200025,0,0.0314325,0.002143125};
Point(573) = {0.0200025,0,0.03429,0.002143125};
Point(574) = {0.0200025,0,0.0371475,0.002143125};
Point(575) = {0.0200025,0,0.040005,0.002143125};
Point(576) = {0.0200025,0,0.0428625,0.002143125};
Point(577) = {0.0200025,0.00254,0,0.002143125};
Point(578) = {0.0200025,0.00254,0.0028575,0.002143125};
Point(579) = {0.0200025,0.00254,0.005715,0.002143125};
Point(580) = {0.0200025,0.00254,0.0085725,0.002143125};
Point(581) = {0.0200025,0.00254,0.01143,0.002143125};
Point(582) = {0.0200025,0.00254,0.0142875,0.002143125};
Point(583) = {0.0200025,0.00254,0.017145,0.002143125};
Point(584) = {0.0200025,0.00254,0.0200025,0.002143125};
Point(585) = {0.0200025,0.00254,0.02286,0.002143125};
Point(586) = {0.0200025,0.00254,0.0257175,0.002143125};
Point(587) = {0.0200025,0.00254,0.028575,0.002143125};
Point(588) = {0.0200025,0.00254,0.0314325,0.002143125};
Point(589) = {0.0200025,0.00254,0.03429,0.002143125};
Point(590) = {0.0200025,0.00254,0.0371475,0.002143125};
Point(591) = {0.0200025,0.00254,0.040005,0.002143125};
Point(592) = {0.0200025,0.00254,0.0428625,0.002143125};
Point(593) = {0.0200025,0.00508,0,0.002143125};
Point(594) = {0.0200025,0.00508,0.0028575,0.002143125};
Point(595) = {0.0200025,0.00508,0.005715,0.002143125};
Point(596) = {0.0200025,0.00508,0.0085725,0.002143125};
Point(597) = {0.0200025,0.00508,0.01143,0.002143125};
Point(598) = {0.0200025,0.00508,0.0142875,0.002143125};
Point(599) = {0.0200025,0.00508,0.017145,0.002143125};
Point(600) = {0.0200025,0.00508,0.0200025,0.002143125};
Point(601) = {0.0200025,0.00508,0.02286,0.002143125};
Point(602) = {0.0200025,0.00508,0.0257175,0.002143125};
Point(603) = {0.0200025,0.00508,0.028575,0.002143125};
Point(604) = {0.0200025,0.00508,0.0314325,0.002143125};
Point(605) = {0.0200025,0.00508,0.03429,0.002143125};
Point(606) = {0.0200025,0.00508,0.0371475,0.002143125};
Point(607) = {0.0200025,0.00508,0.040005,0.002143125};
Point(608) = {0.0200025,0.00508,0.0428625,0.002143125};
Point(609) = {0.0200025,0.00762,0,0.002143125};
Point(610) = {0.0200025,0.00762,0.0028575,0.002143125};
Point(611) = {0.0200025,0.00762,0.005715,0.002143125};
Point(612) = {0.0200025,0.00762,0.0085725,0.002143125};
Point(613) = {0.0200025,0.00762,0.01143,0.002143125};
Point(614) = {0.0200025,0.00762,0.0142875,0.002143125};
Point(615) = {0.0200025,0.00762,0.017145,0.002143125};
Point(616) = {0.0200025,0.00762,0.0200025,0.002143125};
Point(617) = {0.0200025,0.00762,0.02286,0.002143125};
Point(618) = {0.0200025,0.00762,0.0257175,0.002143125};
Point(619) = {0.0200025,0.00762,0.028575,0.002143125};
Point(620) = {0.0200025,0.00762,0.0314325,0.002143125};
Point(621) = {0.0200025,0.00762,0.03429,0.002143125};
Point(622) = {0.0200025,0.00762,0.0371475,0.002143125};
Point(623) = {0.0200025,0.00762,0.040005,0.002143125};
Point(624) = {0.0200025,0.00762,0.0428625,0.002143125};
Point(625) = {0.0200025,0.01016,0,0.002143125};
Point(626) = {0.0200025,0.01016,0.0028575,0.002143125};
Point(627) = {0.0200025,0.01016,0.005715,0.002143125};
Point(628) = {0.0200025,0.01016,0.0085725,0.002143125};
Point(629) = {0.0200025,0.01016,0.01143,0.002143125};
Point(630) = {0.0200025,0.01016,0.0142875,0.002143125};
Point(631) = {0.0200025,0.01016,0.017145,0.002143125};
Point(632) = {0.0200025,0.01016,0.0200025,0.002143125};
Point(633) = {0.0200025,0.01016,0.02286,0.002143125};
Point(634) = {0.0200025,0.01016,0.0257175,0.002143125};
Point(635) = {0.0200025,0.01016,0.028575,0.002143125};
Point(636) = {0.0200025,0.01016,0.0314325,0.002143125};
Point(637) = {0.0200025,0.01016,0.03429,0.002143125};
Point(638) = {0.0200025,0.01016,0.0371475,0.002143125};
Point(639) = {0.0200025,0.01016,0.040005,0.002143125};
Point(640) = {0.0200025,0.01016,0.0428625,0.002143125};
Point(641) = {0.02286,0,0,0.002143125};
Point(642) = {0.02286,0,0.0028575,0.002143125};
Point(643) = {0.02286,0,0.005715,0.002143125};
Point(644) = {0.02286,0,0.0085725,0.002143125};
Point(645) = {0.02286,0,0.01143,0.002143125};
Point(646) = {0.02286,0,0.0142875,0.002143125};
Point(647) = {0.02286,0,0.017145,0.002143125};
Point(648) = {0.02286,0,0.0200025,0.002143125};
Point(649) = {0.02286,0,0.02286,0.002143125};
Point(650) = {0.02286,0,0.0257175,0.002143125};
Point(651) = {0.02286,0,0.028575,0.002143125};
Point(652) = {0.02286,0,0.0314325,0.002143125};
Point(653) = {0.02286,0,0.03429,0.002143125};
Point(654) = {0.02286,0,0.0371475,0.002143125};
Point(655) = {0.02286,0,0.040005,0.002143125};
Point(656) = {0.02286,0,0.0428625,0.002143125};
Point(657) = {0.02286,0.00254,0,0.002143125};
Point(658) = {0.02286,0.00254,0.0028575,0.002143125};
Point(659) = {0.02286,0.00254,0.005715,0.002143125};
Point(660) = {0.02286,0.00254,0.0085725,0.002143125};
Point(661) = {0.02286,0.00254,0.01143,0.002143125};
Point(662) = {0.02286,0.00254,0.0142875,0.002143125};
Point(663) = {0.02286,0.00254,0.017145,0.002143125};
Point(664) = {0.02286,0.00254,0.0200025,0.002143125};
Point(665) = {0.02286,0.00254,0.02286,0.002143125};
Point(666) = {0.02286,0.00254,0.0257175,0.002143125};
Point(667) = {0.02286,0.00254,0.028575,0.002143125};
Point(668) = {0.02286,0.00254,0.0314325,0.002143125};
Point(669) = {0.02286,0.00254,0.03429,0.002143125};
Point(670) = {0.02286,0.00254,0.0371475,0.002143125};
Point(671) = {0.02286,0.00254,0.040005,0.002143125};
Point(672) = {0.02286,0.00254,0.0428625,0.002143125};
Point(673) = {0.02286,0.00508,0,0.002143125};
Point(674) = {0.02286,0.00508,0.0028575,0.002143125};
Point(675) = {0.02286,0.00508,0.005715,0.002143125};
Point(676) = {0.02286,0.00508,0.0085725,0.002143125};
Point(677) = {0.02286,0.00508,0.01143,0.002143125};
Point(678) = {0.02286,0.00508,0.0142875,0.002143125};
Point(679) = {0.02286,0.00508,0.017145,0.002143125};
Point(680) = {0.02286,0.00508,0.0200025,0.002143125};
Point(681) = {0.02286,0.00508,0.02286,0.002143125};
Point(682) = {0.02286,0.00508,0.0257175,0.002143125};
Point(683) = {0.02286,0.00508,0.028575,0.002143125};
Point(684) = {0.02286,0.00508,0.0314325,0.002143125};
Point(685) = {0.02286,0.00508,0.03429,0.002143125};
Point(686) = {0.02286,0.00508,0.0371475,0.002143125};
Point(687) = {0.02286,0.00508,0.040005,0.002143125};
Point(688) = {0.02286,0.00508,0.0428625,0.002143125};
Point(689) = {0.02286,0.00762,0,0.002143125};
Point(690) = {0.02286,0.00762,0.0028575,0.002143125};
Point(691) = {0.02286,0.00762,0.005715,0.002143125};
Point(692) = {0.02286,0.00762,0.0085725,0.002143125};
Point(693) = {0.02286,0.00762,0.01143,0.002143125};
Point(694) = {0.02286,0.00762,0.0142875,0.002143125};
Point(695) = {0.02286,0.00762,0.017145,0.002143125};
Point(696) = {0.02286,0.00762,0.0200025,0.002143125};
Point(697) = {0.02286,0.00762,0.02286,0.002143125};
Point(698) = {0.02286,0.00762,0.0257175,0.002143125};
Point(699) = {0.02286,0.00762,0.028575,0.002143125};
Point(700) = {0.02286,0.00762,0.0314325,0.002143125};
Point(701) = {0.02286,0.00762,0.03429,0.002143125};
Point(702) = {0.02286,0.00762,0.0371475,0.002143125};
Point(703) = {0.02286,0.00762,0.040005,0.002143125};
Point(704) = {0.02286,0.00762,0.0428625,0.002143125};
Point(705) = {0.02286,0.01016,0,0.002143125};
Point(706) = {0.02286,0.01016,0.0028575,0.002143125};
Point(707) = {0.02286,0.01016,0.005715,0.002143125};
Point(708) = {0.02286,0.01016,0.0085725,0.002143125};
Point(709) = {0.02286,0.01016,0.01143,0.002143125};
Point(710) = {0.02286,0.01016,0.0142875,0.002143125};
Point(711) = {0.02286,0.01016,0.017145,0.002143125};
Point(712) = {0.02286,0.01016,0.0200025,0.002143125};
Point(713) = {0.02286,0.01016,0.02286,0.002143125};
Point(714) = {0.02286,0.01016,0.0257175,0.002143125};
Point(715) = {0.02286,0.01016,0.028575,0.002143125};
Point(716) = {0.02286,0.01016,0.0314325,0.002143125};
Point(717) = {0.02286,0.01016,0.03429,0.002143125};
Point(718) = {0.02286,0.01016,0.0371475,0.002143125};
Point(719) = {0.02286,0.01016,0.040005,0.002143125};
Point(720) = {0.02286,0.01016,0.0428625,0.002143125};
Line(1) = {6,86};
Line(2) = {8,88};
Line(3) = {22,102};
Line(4) = {24,104};
Line(5) = {38,118};
Line(6) = {40,120};
Line(7) = {54,134};
Line(8) = {56,136};
Line(9) = {70,150};
Line(10) = {72,152};
Line(11) = {85,165};
Line(12) = {88,168};
Line(13) = {101,181};
Line(14) = {104,184};
Line(15) = {117,197};
Line(16) = {120,200};
Line(17) = {133,213};
Line(18) = {136,216};
Line(19) = {149,229};
Line(20) = {152,232};
Line(21) = {165,245};
Line(22) = {168,248};
Line(23) = {181,261};
Line(24) = {184,264};
Line(25) = {197,277};
Line(26) = {200,280};
Line(27) = {213,293};
Line(28) = {216,296};
Line(29) = {229,309};
Line(30) = {232,312};
Line(31) = {245,325};
Line(32) = {247,327};
Line(33) = {261,341};
Line(34) = {263,343};
Line(35) = {277,357};
Line(36) = {279,359};
Line(37) = {293,373};
Line(38) = {295,375};
Line(39) = {309,389};
Line(40) = {311,391};
Line(41) = {331,411};
Line(42) = {332,412};
Line(43) = {347,427};
Line(44) = {348,428};
Line(45) = {363,443};
Line(46) = {364,444};
Line(47) = {379,459};
Line(48) = {380,460};
Line(49) = {395,475};
Line(50) = {396,476};
Line(51) = {409,489};
Line(52) = {412,492};
Line(53) = {425,505};
Line(54) = {428,508};
Line(55) = {441,521};
Line(56) = {444,524};
Line(57) = {457,537};
Line(58) = {460,540};
Line(59) = {473,553};
Line(60) = {476,556};
Line(61) = {488,568};
Line(62) = {492,572};
Line(63) = {504,584};
Line(64) = {508,588};
Line(65) = {520,600};
Line(66) = {524,604};
Line(67) = {536,616};
Line(68) = {540,620};
Line(69) = {552,632};
Line(70) = {556,636};
Line(71) = {569,649};
Line(72) = {572,652};
Line(73) = {585,665};
Line(74) = {588,668};
Line(75) = {601,681};
Line(76) = {604,684};
Line(77) = {617,697};
Line(78) = {620,700};
Line(79) = {633,713};
Line(80) = {636,716};
Line(81) = {6,22};
Line(82) = {8,24};
Line(83) = {22,38};
Line(84) = {24,40};
Line(85) = {38,54};
Line(86) = {40,56};
Line(87) = {54,70};
Line(88) = {56,72};
Line(89) = {85,101};
Line(90) = {86,102};
Line(91) = {88,104};
Line(92) = {101,117};
Line(93) = {102,118};
Line(94) = {104,120};
Line(95) = {117,133};
Line(96) = {118,134};
Line(97) = {120,136};
Line(98) = {133,149};
Line(99) = {134,150};
Line(100) = {136,152};
Line(101) = {165,181};
Line(102) = {168,184};
Line(103) = {181,197};
Line(104) = {184,200};
Line(105) = {197,213};
Line(106) = {200,216};
Line(107) = {213,229};
Line(108) = {216,232};
Line(109) = {245,261};
Line(110) = {247,263};
Line(111) = {248,264};
Line(112) = {261,277};
Line(113) = {263,279};
Line(114) = {264,280};
Line(115) = {277,293};
Line(116) = {279,295};
Line(117) = {280,296};
Line(118) = {293,309};
Line(119) = {295,311};
Line(120) = {296,312};
Line(121) = {325,341};
Line(122) = {326,342};
Line(123) = {327,343};
Line(124) = {331,347};
Line(125) = {332,348};
Line(126) = {341,357};
Line(127) = {342,358};
Line(128) = {343,359};
Line(129) = {347,363};
Line(130) = {348,364};
Line(131) = {357,373};
Line(132) = {358,374};
Line(133) = {359,375};
Line(134) = {363,379};
Line(135) = {364,380};
Line(136) = {373,389};
Line(137) = {374,390};
Line(138) = {375,391};
Line(139) = {379,395};
Line(140) = {380,396};
Line(141) = {409,425};
Line(142) = {410,426};
Line(143) = {411,427};
Line(144) = {412,428};
Line(145) = {425,441};
Line(146) = {426,442};
Line(147) = {427,443};
Line(148) = {428,444};
Line(149) = {441,457};
Line(150) = {442,458};
Line(151) = {443,459};
Line(152) = {444,460};
Line(153) = {457,473};
Line(154) = {458,474};
Line(155) = {459,475};
Line(156) = {460,476};
Line(157) = {488,504};
Line(158) = {489,505};
Line(159) = {492,508};
Line(160) = {504,520};
Line(161) = {505,521};
Line(162) = {508,524};
Line(163) = {520,536};
Line(164) = {521,537};
Line(165) = {524,540};
Line(166) = {536,552};
Line(167) = {537,553};
Line(168) = {540,556};
Line(169) = {568,584};
Line(170) = {569,585};
Line(171) = {572,588};
Line(172) = {584,600};
Line(173) = {585,601};
Line(174) = {588,604};
Line(175) = {600,616};
Line(176) = {601,617};
Line(177) = {604,620};
Line(178) = {616,632};
Line(179) = {617,633};
Line(180) = {620,636};
Line(181) = {649,665};
Line(182) = {652,668};
Line(183) = {665,681};
Line(184) = {668,684};
Line(185) = {681,697};
Line(186) = {684,700};
Line(187) = {697,713};
Line(188) = {700,716};
Line(189) = {85,86};
Line(190) = {101,102};
Line(191) = {117,118};
Line(192) = {133,134};
Line(193) = {149,150};
Line(194) = {247,248};
Line(195) = {263,264};
Line(196) = {279,280};
Line(197) = {295,296};
Line(198) = {311,312};
Line(199) = {325,326};
Line(200) = {326,327};
Line(201) = {331,332};
Line(202) = {341,342};
Line(203) = {342,343};
Line(204) = {347,348};
Line(205) = {357,358};
Line(206) = {358,359};
Line(207) = {363,364};
Line(208) = {373,374};
Line(209) = {374,375};
Line(210) = {379,380};
Line(211) = {389,390};
Line(212) = {390,391};
Line(213) = {395,396};
Line(214) = {409,410};
Line(215) = {410,411};
Line(216) = {425,426};
Line(217) = {426,427};
Line(218) = {441,442};
Line(219) = {442,443};
Line(220) = {457,458};
Line(221) = {458,459};
Line(222) = {473,474};
Line(223) = {474,475};
Line(224) = {488,489};
Line(225) = {504,505};
Line(226) = {520,521};
Line(227) = {536,537};
Line(228) = {552,553};
Line(229) = {568,569};
Line(230) = {584,585};
Line(231) = {600,601};
Line(232) = {616,617};
Line(233) = {632,633};
Line Loop(1) = {189,90,-190,-89};
Plane Surface(1) = {1};
Line Loop(2) = {190,93,-191,-92};
Plane Surface(2) = {2};
Line Loop(3) = {191,96,-192,-95};
Plane Surface(3) = {3};
Line Loop(4) = {192,99,-193,-98};
Plane Surface(4) = {4};
Line Loop(5) = {194,111,-195,-110};
Plane Surface(5) = {5};
Line Loop(6) = {195,114,-196,-113};
Plane Surface(6) = {6};
Line Loop(7) = {196,117,-197,-116};
Plane Surface(7) = {7};
Line Loop(8) = {197,120,-198,-119};
Plane Surface(8) = {8};
Line Loop(9) = {199,122,-202,-121};
Plane Surface(9) = {9};
Line Loop(10) = {200,123,-203,-122};
Plane Surface(10) = {10};
Line Loop(11) = {201,125,-204,-124};
Plane Surface(11) = {11};
Line Loop(12) = {202,127,-205,-126};
Plane Surface(12) = {12};
Line Loop(13) = {203,128,-206,-127};
Plane Surface(13) = {13};
Line Loop(14) = {204,130,-207,-129};
Plane Surface(14) = {14};
Line Loop(15) = {205,132,-208,-131};
Plane Surface(15) = {15};
Line Loop(16) = {206,133,-209,-132};
Plane Surface(16) = {16};
Line Loop(17) = {207,135,-210,-134};
Plane Surface(17) = {17};
Line Loop(18) = {208,137,-211,-136};
Plane Surface(18) = {18};
Line Loop(19) = {209,138,-212,-137};
Plane Surface(19) = {19};
Line Loop(20) = {210,140,-213,-139};
Plane Surface(20) = {20};
Line Loop(21) = {214,142,-216,-141};
Plane Surface(21) = {21};
Line Loop(22) = {215,143,-217,-142};
Plane Surface(22) = {22};
Line Loop(23) = {216,146,-218,-145};
Plane Surface(23) = {23};
Line Loop(24) = {217,147,-219,-146};
Plane Surface(24) = {24};
Line Loop(25) = {218,150,-220,-149};
Plane Surface(25) = {25};
Line Loop(26) = {219,151,-221,-150};
Plane Surface(26) = {26};
Line Loop(27) = {220,154,-222,-153};
Plane Surface(27) = {27};
Line Loop(28) = {221,155,-223,-154};
Plane Surface(28) = {28};
Line Loop(29) = {224,158,-225,-157};
Plane Surface(29) = {29};
Line Loop(30) = {225,161,-226,-160};
Plane Surface(30) = {30};
Line Loop(31) = {226,164,-227,-163};
Plane Surface(31) = {31};
Line Loop(32) = {227,167,-228,-166};
Plane Surface(32) = {32};
Line Loop(33) = {229,170,-230,-169};
Plane Surface(33) = {33};
Line Loop(34) = {230,173,-231,-172};
Plane Surface(34) = {34};
Line Loop(35) = {231,176,-232,-175};
Plane Surface(35) = {35};
Line Loop(36) = {232,179,-233,-178};
Plane Surface(36) = {36};
Line Loop(37) = {81,3,-90,-1};
Plane Surface(37) = {37};
Line Loop(38) = {82,4,-91,-2};
Plane Surface(38) = {38};
Line Loop(39) = {83,5,-93,-3};
Plane Surface(39) = {39};
Line Loop(40) = {84,6,-94,-4};
Plane Surface(40) = {40};
Line Loop(41) = {85,7,-96,-5};
Plane Surface(41) = {41};
Line Loop(42) = {86,8,-97,-6};
Plane Surface(42) = {42};
Line Loop(43) = {87,9,-99,-7};
Plane Surface(43) = {43};
Line Loop(44) = {88,10,-100,-8};
Plane Surface(44) = {44};
Line Loop(45) = {89,13,-101,-11};
Plane Surface(45) = {45};
Line Loop(46) = {91,14,-102,-12};
Plane Surface(46) = {46};
Line Loop(47) = {92,15,-103,-13};
Plane Surface(47) = {47};
Line Loop(48) = {94,16,-104,-14};
Plane Surface(48) = {48};
Line Loop(49) = {95,17,-105,-15};
Plane Surface(49) = {49};
Line Loop(50) = {97,18,-106,-16};
Plane Surface(50) = {50};
Line Loop(51) = {98,19,-107,-17};
Plane Surface(51) = {51};
Line Loop(52) = {100,20,-108,-18};
Plane Surface(52) = {52};
Line Loop(53) = {101,23,-109,-21};
Plane Surface(53) = {53};
Line Loop(54) = {102,24,-111,-22};
Plane Surface(54) = {54};
Line Loop(55) = {103,25,-112,-23};
Plane Surface(55) = {55};
Line Loop(56) = {104,26,-114,-24};
Plane Surface(56) = {56};
Line Loop(57) = {105,27,-115,-25};
Plane Surface(57) = {57};
Line Loop(58) = {106,28,-117,-26};
Plane Surface(58) = {58};
Line Loop(59) = {107,29,-118,-27};
Plane Surface(59) = {59};
Line Loop(60) = {108,30,-120,-28};
Plane Surface(60) = {60};
Line Loop(61) = {109,33,-121,-31};
Plane Surface(61) = {61};
Line Loop(62) = {110,34,-123,-32};
Plane Surface(62) = {62};
Line Loop(63) = {112,35,-126,-33};
Plane Surface(63) = {63};
Line Loop(64) = {113,36,-128,-34};
Plane Surface(64) = {64};
Line Loop(65) = {115,37,-131,-35};
Plane Surface(65) = {65};
Line Loop(66) = {116,38,-133,-36};
Plane Surface(66) = {66};
Line Loop(67) = {118,39,-136,-37};
Plane Surface(67) = {67};
Line Loop(68) = {119,40,-138,-38};
Plane Surface(68) = {68};
Line Loop(69) = {124,43,-143,-41};
Plane Surface(69) = {69};
Line Loop(70) = {125,44,-144,-42};
Plane Surface(70) = {70};
Line Loop(71) = {129,45,-147,-43};
Plane Surface(71) = {71};
Line Loop(72) = {130,46,-148,-44};
Plane Surface(72) = {72};
Line Loop(73) = {134,47,-151,-45};
Plane Surface(73) = {73};
Line Loop(74) = {135,48,-152,-46};
Plane Surface(74) = {74};
Line Loop(75) = {139,49,-155,-47};
Plane Surface(75) = {75};
Line Loop(76) = {140,50,-156,-48};
Plane Surface(76) = {76};
Line Loop(77) = {141,53,-158,-51};
Plane Surface(77) = {77};
Line Loop(78) = {144,54,-159,-52};
Plane Surface(78) = {78};
Line Loop(79) = {145,55,-161,-53};
Plane Surface(79) = {79};
Line Loop(80) = {148,56,-162,-54};
Plane Surface(80) = {80};
Line Loop(81) = {149,57,-164,-55};
Plane Surface(81) = {81};
Line Loop(82) = {152,58,-165,-56};
Plane Surface(82) = {82};
Line Loop(83) = {153,59,-167,-57};
Plane Surface(83) = {83};
Line Loop(84) = {156,60,-168,-58};
Plane Surface(84) = {84};
Line Loop(85) = {157,63,-169,-61};
Plane Surface(85) = {85};
Line Loop(86) = {159,64,-171,-62};
Plane Surface(86) = {86};
Line Loop(87) = {160,65,-172,-63};
Plane Surface(87) = {87};
Line Loop(88) = {162,66,-174,-64};
Plane Surface(88) = {88};
Line Loop(89) = {163,67,-175,-65};
Plane Surface(89) = {89};
Line Loop(90) = {165,68,-177,-66};
Plane Surface(90) = {90};
Line Loop(91) = {166,69,-178,-67};
Plane Surface(91) = {91};
Line Loop(92) = {168,70,-180,-68};
Plane Surface(92) = {92};
Line Loop(93) = {170,73,-181,-71};
Plane Surface(93) = {93};
Line Loop(94) = {171,74,-182,-72};
Plane Surface(94) = {94};
Line Loop(95) = {173,75,-183,-73};
Plane Surface(95) = {95};
Line Loop(96) = {174,76,-184,-74};
Plane Surface(96) = {96};
Line Loop(97) = {176,77,-185,-75};
Plane Surface(97) = {97};
Line Loop(98) = {177,78,-186,-76};
Plane Surface(98) = {98};
Line Loop(99) = {179,79,-187,-77};
Plane Surface(99) = {99};
Line Loop(100) = {180,80,-188,-78};
Plane Surface(100) = {100};
Physical Surface(1) = {1,2,3,4,5,6,7,8,9,10,11,12,13,14,15,16,17,18,19,20,21,22,23,24,25,26,27,28,29,30,31,32,33,34,35,36,37,38,39,40,41,42,43,44,45,46,47,48,49,50,51,52,53,54,55,56,57,58,59,60,61,62,63,64,65,66,67,68,69,70,71,72,73,74,75,76,77,78,79,80,81,82,83,84,85,86,87,88,89,90,91,92,93,94,95,96,97,98,99,100};
Point(721) = {0.01843,0.01016,0.02296714838486225,0.002143125};
Point(722) = {0.01989410161513775,0.01016,0.02843125,0.002143125};
Point(723) = {0.01443,0.01016,0.02989535161513775,0.002143125};
Point(724) = {0.01843,0,0.02296714838486225,0.002143125};
Point(725) = {0.01989410161513775,0,0.02843125,0.002143125};
Point(726) = {0.01443,0,0.02989535161513775,0.002143125};
Point(727) = {0.01643,0.01016,0.02643125,0.002143125};
Point(728) = {0.01643,0,0.02643125,0.002143125};
Point(729) = {0.004131866670643065,0.01016,0.01835961282905962,0.002143125};
Point(730) = {0.004501637170940381,0.01016,0.01413311667064306,0.002143125};
Point(731) = {0.008728133329356933,0.01016,0.01450288717094038,0.002143125};
Point(732) = {0.004131866670643065,0,0.01835961282905962,0.002143125};
Point(733) = {0.004501637170940381,0,0.01413311667064306,0.002143125};
Point(734) = {0.008728133329356933,0,0.01450288717094038,0.002143125};
Point(735) = {0.006429999999999999,0.01016,0.01643125,0.002143125};
Point(736) = {0.006429999999999999,0,0.01643125,0.002143125};
Line(234) = {724,721};
Line(235) = {725,722};
Line(236) = {726,723};
Line(237) = {721,723};
Line(238) = {724,726};
Line(239) = {732,729};
Line(240) = {733,730};
Line(241) = {734,731};
Line(242) = {729,731};
Line(243) = {732,734};
Circle(newc) = {721,727,722};
Circle(newc) = {722,727,723};
Circle(newc) = {724,728,725};
Circle(newc) = {725,728,726};
Circle(newc) = {729,735,730};
Circle(newc) = {730,735,731};
Circle(newc) = {732,736,733};
Circle(newc) = {733,736,734};
Line Loop(252) = {246,235,-244,-234};
Ruled Surface(253) = {252};
Line Loop(254) = {247,236,-245,-235};
Ruled Surface(255) = {254};
Line Loop(256) = {251,241,-249,-240};
Ruled Surface(257) = {256};
Line Loop(258) = {248,-240,-250,239};
Ruled Surface(259) = {258};
Line Loop(260) = {236,-237,-234,238};
Plane Surface(261) = {260};
Line Loop(262) = {241,-242,-239,243};
Plane Surface(263) = {262};
Line(264) = {652,649};
Line(265) = {716,713};
Line(266) = {8,6};
Line(267) = {72,70};
Line Loop(268) = {72,264,-71,-229,-61,224,-51,214,215,-41,201,42,52,62};
Line Loop(269) = {246,247,-238};
Plane Surface(270) = {268,269};
Line Loop(271) = {31,199,200,-32,194,-22,-12,-2,266,1,-189,11,21};
Line Loop(272) = {243,-251,-250};
Plane Surface(273) = {271,272};
Line Loop(274) = {10,20,30,-198,40,-212,-211,-39,-29,-19,193,-9,-267};
Line Loop(275) = {248,249,-242};
Plane Surface(276) = {274,275};
Line Loop(277) = {213,50,60,70,80,265,-79,-233,-69,228,-59,222,223,-49};
Line Loop(278) = {237,-245,-244};
Plane Surface(279) = {277,278};
Line Loop(280) = {266,81,83,85,87,-267,-88,-86,-84,-82};
Plane Surface(281) = {280};
Line Loop(282) = {264,181,183,185,187,-265,-188,-186,-184,-182};
Plane Surface(283) = {282};
Surface Loop(284) = {283,270,94,86,78,70,11,14,72,74,17,20,76,279,84,92,100,98,90,82,80,88,96,99,36,35,34,33,93,95,97,85,29,77,21,22,69,71,73,75,28,26,24,23,25,27,83,32,31,30,79,81,87,89,91,253,255,261};
Volume(285) = {284};
Surface Loop(286) = {263,257,273,61,53,45,1,37,281,39,41,43,276,44,52,60,8,7,6,5,54,46,38,40,42,50,58,56,48,62,64,66,68,19,16,13,10,9,12,15,18,67,59,51,4,3,2,47,49,57,65,63,55,259};
Volume(287) = {286};
Physical Surface(1001) = {276,270,279,273,261,263,253,255,257,259,281,283};
Physical Volume(1) = {285,287};
