// Gmsh project created on Mon Apr  4 13:01:19 2011
a = 1;
b = 3*a/10;
c = 4*a/10;
t = a/4;
d = (a-t)/2;
lc0 = a/2;
eps_r = 16;


Point(1) = { 0, 0, 0, lc0};
Point(2) = {-d, 0, 0, lc0};
Point(3) = {-d, 0, b, lc0};
Point(4) = { 0, 0, b, lc0};
Point(5) = { 0, c, 0, lc0};
Point(6) = {-d, c, 0, lc0};
Point(7) = {-d, c, b, lc0};
Point(8) = { 0, c, b, lc0};
Point(9) = { -t-d , 0, 0, lc0};
Point(10) = {-t-d-d, 0, 0, lc0};
Point(11) = {-t-d-d, 0, b, lc0};
Point(12) = {-t-d  , 0, b, lc0};
Point(13) = {-t-d  , c, 0, lc0};
Point(14) = {-t-d-d, c, 0, lc0};
Point(15) = {-t-d-d, c, b, lc0};
Point(16) = {-t-d  , c, b, lc0};


// Mesh control
Field[1] = Box;
Field[1].VIn = lc0 / Sqrt(eps_r);
Field[1].VOut = lc0;
Field[1].XMin = -d-t; 
Field[1].XMax = -d;
Field[1].YMin = 0;
Field[1].YMax = c;
Field[1].ZMin = 0;
Field[1].ZMax = b;
Background Field = 1;

Line(1) = {5, 8};
Line(2) = {8, 4};
Line(3) = {4, 1};
Line(4) = {1, 5};
Line Loop(5) = {2, 3, 4, 1};
Plane Surface(6) = {5};
Line(7) = {8, 7};
Line(8) = {7, 6};
Line(9) = {6, 5};
Line(10) = {6, 2};
Line(11) = {2, 1};
Line(12) = {4, 3};
Line(13) = {3, 2};
Line(14) = {3, 7};
Line Loop(15) = {9, 1, 7, 8};
Plane Surface(16) = {15};
Line Loop(17) = {8, 10, -13, 14};
Plane Surface(18) = {17};
Line Loop(19) = {9, -4, -11, -10};
Plane Surface(20) = {19};
Line Loop(21) = {12, 13, 11, -3};
Plane Surface(22) = {21};
Line Loop(23) = {12, 14, -7, 2};
Plane Surface(24) = {23};
Line(25) = {3, 12};
Line(26) = {12, 9};
Line(27) = {9, 2};
Line(28) = {6, 13};
Line(29) = {13, 9};
Line(30) = {7, 16};
Line(31) = {16, 13};
Line(32) = {16, 12};
Line Loop(33) = {10, -27, -29, -28};
Plane Surface(34) = {33};
Line Loop(35) = {13, -27, -26, -25};
Plane Surface(36) = {35};
Line Loop(37) = {28, -31, -30, 8};
Plane Surface(38) = {37};
Line Loop(39) = {31, 29, -26, -32};
Plane Surface(40) = {39};
Line(41) = {9, 10};
Line(42) = {10, 11};
Line(43) = {11, 12};
Line(44) = {16, 15};
Line(45) = {15, 11};
Line(46) = {15, 14};
Line(47) = {14, 13};
Line(48) = {14, 10};
Line Loop(49) = {26, 41, 42, 43};
Plane Surface(50) = {49};
Line Loop(51) = {32, -43, -45, -44};
Plane Surface(52) = {51};
Line Loop(53) = {46, 48, 42, -45};
Plane Surface(54) = {53};
Line Loop(55) = {47, -31, 44, 46};
Plane Surface(56) = {55};
Line Loop(57) = {47, 29, 41, -48};
Plane Surface(58) = {57};
Line Loop(59) = {30, 32, -25, 14};
Plane Surface(60) = {59};

Surface Loop(61) = {16, 20, 6, 24, 22, 18};
Volume(62) = {61};
Surface Loop(63) = {18, 36, 34, 38, 60, 40};
Volume(64) = {63};
Surface Loop(65) = {40, 50, 58, 56, 52, 54};
Volume(66) = {65};

Physical Volume(1000) = {64};
Physical Volume(1001) = {62, 66};