a = 29;
b = 23;
c = 19;
lc = 19;
Point(1) = {0, 0, 0, lc};
Point(2) = {a, 0, 0, lc};
Point(3) = {0, b, 0, lc};
Point(4) = {0, 0, c, lc};
Point(5) = {a, b, 0, lc};
Point(6) = {a, 0, c, lc};
Point(7) = {0, b, c, lc};
Point(8) = {a, b, c, lc};
Line(1) = {2, 2};
Line(2) = {2, 6};
Line(3) = {6, 8};
Line(4) = {8, 5};
Line(5) = {5, 2};
Line(6) = {8, 7};
Line(7) = {5, 3};
Line(8) = {3, 7};
Line(9) = {2, 1};
Line(10) = {1, 4};
Line(11) = {1, 3};
Line(12) = {4, 7};
Line(13) = {4, 6};
Line Loop(14) = {7, 8, -6, 4};
Plane Surface(15) = {14};
Line Loop(16) = {8, -12, -10, 11};
Plane Surface(17) = {16};
Line Loop(18) = {11, -7, 5, 9};
Plane Surface(19) = {18};
Line Loop(20) = {9, 10, 13, -2};
Plane Surface(21) = {20};
Line Loop(22) = {2, 3, 4, 5};
Plane Surface(23) = {22};
Line Loop(24) = {12, -6, -3, -13};
Plane Surface(25) = {24};
Surface Loop(26) = {25, 17, 15, 19, 23, 21};
Volume(27) = {26};
Physical Volume(1000) = {27};
