Point(1) = {0, 0, 0, 0.5};
Point(2) = {1, 0, 1, 0.5};
Point(3) = {-0, 0.8, 0.6, 0.5};
Point(4) = {0.3, 0.8, -0.1, 0.5};
Point(5) = {0.6, 0.3, -0.4, 0.5};
Line(1) = {1, 2};
Line(2) = {1, 5};
Line(3) = {5, 4};
Line(4) = {4, 3};
Line(5) = {3, 2};
Line(6) = {2, 4};
Line(7) = {1, 4};
Line(8) = {3, 1};
Line Loop(9) = {8, 7, 4};
Plane Surface(10) = {9};
Line Loop(11) = {8, 1, -5};
Plane Surface(12) = {11};
Line Loop(13) = {6, -7, 1};
Plane Surface(14) = {13};
Line(15) = {5, 2};
Line Loop(16) = {6, 4, 5};
Plane Surface(17) = {16};
Line Loop(18) = {3, -6, -15};
Plane Surface(19) = {18};
Line Loop(20) = {1, -15, -2};
Plane Surface(21) = {20};
Line Loop(22) = {2, 3, -7};
Plane Surface(23) = {22};
Surface Loop(24) = {14, 23, 21, 19};
Volume(25) = {24};
Surface Loop(26) = {14, 10, 12, 17};
Volume(27) = {26};
Physical Volume ( 1000 ) = { 25 };
Physical Volume ( 2000 ) = { 27 };
