cl1 = 0.15;
Point(1) = {0, 0, 0, cl1};
Point(2) = {1, 0, 0, cl1};
Point(3) = {1, 0.5, 0, cl1};
Point(4) = {0, 0.5, 0, cl1};
Point(5) = {0, 0, 0.25, cl1};
Point(6) = {1, 0, 0.25, cl1};
Point(7) = {1, 0.5, 0.25, cl1};
Point(8) = {0, 0.5, 0.25, cl1};
Line(1) = {1, 2};
Line(2) = {2, 3};
Line(3) = {3, 4};
Line(4) = {4, 1};
Line(5) = {5, 6};
Line(6) = {6, 7};
Line(7) = {7, 8};
Line(8) = {8, 5};
Line(9) = {1, 5};
Line(10) = {2, 6};
Line(11) = {3, 7};
Line(12) = {4, 8};
Line Loop(14) = {3, 4, 1, 2};
Plane Surface(14) = {14};
Line Loop(16) = {5, 6, 7, 8};
Plane Surface(16) = {16};
Line Loop(18) = {2, 11, -6, -10};
Plane Surface(18) = {18};
Line Loop(20) = {3, 12, -7, -11};
Plane Surface(20) = {20};
Line Loop(22) = {4, 9, -8, -12};
Plane Surface(22) = {22};
Line Loop(24) = {1, 10, -5, -9};
Plane Surface(24) = {24};
Surface Loop(26) = {18, 14, 20, 22, 24, 16};
Volume(26) = {26};
PEC = 1;
Physical Surface(PEC) = {14,16,18,20,22,24};
Empty = 0;
Physical Volume(Empty) = {26};
